G04*
G04 #@! TF.GenerationSoftware,Altium Limited,Altium Designer,19.1.8 (144)*
G04*
G04 Layer_Color=65535*
%FSLAX25Y25*%
%MOIN*%
G70*
G01*
G75*
%ADD10C,0.00600*%
%ADD11C,0.00500*%
%ADD12C,0.00591*%
%ADD13C,0.00787*%
%ADD14C,0.01181*%
%ADD15C,0.00800*%
%ADD16C,0.00598*%
%ADD17C,0.00544*%
%ADD18C,0.00510*%
%ADD19C,0.01042*%
G36*
X9200Y135300D02*
X7700Y134800D01*
X7200Y135300D01*
X8200Y136800D01*
X7200Y138300D01*
X6200D01*
Y139300D01*
X7700D01*
X8200Y140800D01*
X7200Y142300D01*
X7700Y142800D01*
X9200Y141800D01*
X10700Y142800D01*
Y143800D01*
X11700D01*
X12200Y142300D01*
X13700Y141800D01*
X14700Y142800D01*
X15200Y142300D01*
X14700Y140800D01*
X15200Y139300D01*
X16700D01*
X16200Y138300D01*
X14700Y137800D01*
Y136300D01*
X15200Y135300D01*
X14700Y134800D01*
X13700Y135300D01*
X13200D01*
X12700Y136800D01*
X13700Y138800D01*
X12700Y140300D01*
X11200Y140800D01*
X9700Y140300D01*
X9200Y138800D01*
X9700Y137300D01*
X10200Y136800D01*
X9200Y135300D01*
D01*
D02*
G37*
G36*
X32597Y166500D02*
X24403D01*
X28500Y163000D01*
X32597Y166500D01*
D02*
G37*
G36*
X115597Y166500D02*
X107403D01*
X111500Y163000D01*
X115597Y166500D01*
D02*
G37*
G36*
X90114Y-5644D02*
X90143Y-5647D01*
X90178Y-5650D01*
X90214Y-5654D01*
X90256Y-5663D01*
X90344Y-5683D01*
X90441Y-5712D01*
X90490Y-5731D01*
X90535Y-5754D01*
X90580Y-5783D01*
X90626Y-5812D01*
X90629Y-5816D01*
X90635Y-5819D01*
X90648Y-5829D01*
X90664Y-5845D01*
X90681Y-5861D01*
X90703Y-5884D01*
X90726Y-5909D01*
X90752Y-5935D01*
X90778Y-5968D01*
X90804Y-6007D01*
X90833Y-6046D01*
X90859Y-6088D01*
X90882Y-6136D01*
X90907Y-6185D01*
X90927Y-6237D01*
X90946Y-6295D01*
X90655Y-6363D01*
Y-6360D01*
X90652Y-6353D01*
X90645Y-6340D01*
X90639Y-6324D01*
X90632Y-6305D01*
X90622Y-6279D01*
X90596Y-6227D01*
X90564Y-6169D01*
X90525Y-6110D01*
X90477Y-6055D01*
X90425Y-6007D01*
X90418Y-6000D01*
X90399Y-5987D01*
X90366Y-5971D01*
X90324Y-5948D01*
X90269Y-5929D01*
X90208Y-5909D01*
X90133Y-5897D01*
X90052Y-5893D01*
X90026D01*
X90010Y-5897D01*
X89987D01*
X89961Y-5900D01*
X89900Y-5909D01*
X89832Y-5922D01*
X89761Y-5945D01*
X89686Y-5977D01*
X89618Y-6020D01*
X89615D01*
X89611Y-6026D01*
X89589Y-6042D01*
X89560Y-6068D01*
X89524Y-6107D01*
X89482Y-6156D01*
X89443Y-6211D01*
X89407Y-6279D01*
X89375Y-6353D01*
Y-6357D01*
X89372Y-6363D01*
X89368Y-6373D01*
X89365Y-6389D01*
X89359Y-6408D01*
X89352Y-6431D01*
X89342Y-6486D01*
X89330Y-6551D01*
X89317Y-6622D01*
X89310Y-6700D01*
X89307Y-6784D01*
Y-6787D01*
Y-6797D01*
Y-6813D01*
Y-6833D01*
X89310Y-6855D01*
Y-6885D01*
X89313Y-6917D01*
X89317Y-6953D01*
X89326Y-7030D01*
X89342Y-7115D01*
X89362Y-7199D01*
X89388Y-7283D01*
Y-7287D01*
X89391Y-7293D01*
X89398Y-7303D01*
X89404Y-7319D01*
X89424Y-7358D01*
X89453Y-7403D01*
X89488Y-7455D01*
X89534Y-7510D01*
X89586Y-7559D01*
X89647Y-7604D01*
X89650D01*
X89657Y-7607D01*
X89666Y-7614D01*
X89679Y-7620D01*
X89696Y-7627D01*
X89715Y-7636D01*
X89761Y-7656D01*
X89819Y-7675D01*
X89884Y-7692D01*
X89955Y-7704D01*
X90029Y-7708D01*
X90052D01*
X90071Y-7704D01*
X90094D01*
X90117Y-7701D01*
X90175Y-7688D01*
X90243Y-7672D01*
X90311Y-7646D01*
X90383Y-7610D01*
X90418Y-7591D01*
X90451Y-7565D01*
X90454Y-7562D01*
X90457Y-7559D01*
X90467Y-7549D01*
X90480Y-7539D01*
X90493Y-7523D01*
X90509Y-7503D01*
X90528Y-7484D01*
X90545Y-7458D01*
X90564Y-7429D01*
X90587Y-7397D01*
X90606Y-7364D01*
X90626Y-7325D01*
X90642Y-7283D01*
X90658Y-7238D01*
X90674Y-7189D01*
X90687Y-7137D01*
X90985Y-7212D01*
Y-7215D01*
X90982Y-7228D01*
X90975Y-7248D01*
X90966Y-7273D01*
X90956Y-7303D01*
X90943Y-7338D01*
X90927Y-7377D01*
X90907Y-7419D01*
X90862Y-7510D01*
X90804Y-7601D01*
X90768Y-7646D01*
X90733Y-7692D01*
X90694Y-7730D01*
X90648Y-7769D01*
X90645Y-7773D01*
X90639Y-7779D01*
X90622Y-7785D01*
X90606Y-7798D01*
X90580Y-7815D01*
X90554Y-7831D01*
X90519Y-7847D01*
X90483Y-7863D01*
X90441Y-7883D01*
X90395Y-7899D01*
X90347Y-7915D01*
X90295Y-7931D01*
X90240Y-7944D01*
X90182Y-7951D01*
X90120Y-7957D01*
X90055Y-7960D01*
X90020D01*
X89994Y-7957D01*
X89965D01*
X89929Y-7954D01*
X89890Y-7947D01*
X89845Y-7941D01*
X89751Y-7925D01*
X89654Y-7899D01*
X89556Y-7863D01*
X89511Y-7841D01*
X89466Y-7815D01*
X89462Y-7811D01*
X89456Y-7808D01*
X89443Y-7798D01*
X89430Y-7785D01*
X89411Y-7773D01*
X89388Y-7753D01*
X89362Y-7730D01*
X89336Y-7704D01*
X89310Y-7675D01*
X89281Y-7646D01*
X89223Y-7572D01*
X89168Y-7484D01*
X89119Y-7387D01*
Y-7384D01*
X89113Y-7374D01*
X89109Y-7358D01*
X89100Y-7338D01*
X89093Y-7312D01*
X89083Y-7280D01*
X89070Y-7244D01*
X89061Y-7205D01*
X89051Y-7163D01*
X89038Y-7115D01*
X89022Y-7014D01*
X89009Y-6901D01*
X89002Y-6784D01*
Y-6781D01*
Y-6768D01*
Y-6749D01*
X89006Y-6726D01*
Y-6694D01*
X89009Y-6661D01*
X89012Y-6619D01*
X89018Y-6577D01*
X89035Y-6483D01*
X89057Y-6379D01*
X89090Y-6276D01*
X89135Y-6175D01*
X89138Y-6172D01*
X89142Y-6162D01*
X89148Y-6149D01*
X89161Y-6133D01*
X89174Y-6110D01*
X89190Y-6084D01*
X89232Y-6026D01*
X89287Y-5961D01*
X89352Y-5897D01*
X89427Y-5832D01*
X89514Y-5777D01*
X89517Y-5773D01*
X89527Y-5770D01*
X89540Y-5764D01*
X89556Y-5754D01*
X89582Y-5744D01*
X89608Y-5734D01*
X89641Y-5722D01*
X89676Y-5709D01*
X89715Y-5696D01*
X89757Y-5683D01*
X89848Y-5663D01*
X89952Y-5647D01*
X90059Y-5641D01*
X90091D01*
X90114Y-5644D01*
D02*
G37*
G36*
X97673Y-7921D02*
X97417D01*
Y-7717D01*
X97413Y-7721D01*
X97410Y-7727D01*
X97400Y-7740D01*
X97387Y-7756D01*
X97371Y-7773D01*
X97352Y-7792D01*
X97329Y-7815D01*
X97300Y-7837D01*
X97271Y-7860D01*
X97238Y-7883D01*
X97199Y-7902D01*
X97157Y-7918D01*
X97115Y-7935D01*
X97067Y-7947D01*
X97015Y-7954D01*
X96960Y-7957D01*
X96940D01*
X96927Y-7954D01*
X96889Y-7951D01*
X96843Y-7944D01*
X96788Y-7931D01*
X96727Y-7912D01*
X96665Y-7886D01*
X96603Y-7850D01*
X96600D01*
X96597Y-7844D01*
X96577Y-7831D01*
X96548Y-7805D01*
X96513Y-7773D01*
X96470Y-7730D01*
X96428Y-7678D01*
X96386Y-7620D01*
X96351Y-7552D01*
Y-7549D01*
X96347Y-7542D01*
X96344Y-7533D01*
X96338Y-7520D01*
X96331Y-7500D01*
X96321Y-7478D01*
X96315Y-7455D01*
X96308Y-7426D01*
X96292Y-7361D01*
X96276Y-7287D01*
X96266Y-7202D01*
X96263Y-7112D01*
Y-7108D01*
Y-7102D01*
Y-7089D01*
Y-7069D01*
X96266Y-7050D01*
Y-7024D01*
X96273Y-6966D01*
X96283Y-6898D01*
X96299Y-6823D01*
X96318Y-6745D01*
X96344Y-6671D01*
Y-6668D01*
X96347Y-6661D01*
X96354Y-6651D01*
X96360Y-6639D01*
X96380Y-6603D01*
X96406Y-6558D01*
X96438Y-6509D01*
X96480Y-6460D01*
X96529Y-6408D01*
X96587Y-6366D01*
X96590D01*
X96594Y-6363D01*
X96603Y-6357D01*
X96616Y-6350D01*
X96649Y-6334D01*
X96694Y-6311D01*
X96746Y-6292D01*
X96807Y-6276D01*
X96876Y-6263D01*
X96947Y-6259D01*
X96973D01*
X96999Y-6263D01*
X97034Y-6266D01*
X97076Y-6276D01*
X97122Y-6285D01*
X97167Y-6301D01*
X97209Y-6324D01*
X97216Y-6327D01*
X97229Y-6334D01*
X97248Y-6350D01*
X97274Y-6366D01*
X97306Y-6389D01*
X97336Y-6418D01*
X97368Y-6447D01*
X97397Y-6483D01*
Y-5679D01*
X97673D01*
Y-7921D01*
D02*
G37*
G36*
X95939Y-5945D02*
X94614D01*
Y-6629D01*
X95855D01*
Y-6894D01*
X94614D01*
Y-7656D01*
X95991D01*
Y-7921D01*
X94316D01*
Y-5679D01*
X95939D01*
Y-5945D01*
D02*
G37*
G36*
X92242Y-5683D02*
X92268D01*
X92327Y-5689D01*
X92391Y-5696D01*
X92459Y-5709D01*
X92527Y-5725D01*
X92589Y-5748D01*
X92592D01*
X92595Y-5751D01*
X92615Y-5760D01*
X92644Y-5777D01*
X92677Y-5799D01*
X92715Y-5829D01*
X92757Y-5864D01*
X92796Y-5909D01*
X92832Y-5958D01*
X92835Y-5965D01*
X92845Y-5984D01*
X92861Y-6010D01*
X92877Y-6049D01*
X92894Y-6094D01*
X92910Y-6143D01*
X92919Y-6198D01*
X92923Y-6253D01*
Y-6259D01*
Y-6276D01*
X92919Y-6305D01*
X92913Y-6340D01*
X92903Y-6382D01*
X92887Y-6428D01*
X92868Y-6473D01*
X92842Y-6522D01*
X92839Y-6528D01*
X92829Y-6541D01*
X92809Y-6567D01*
X92783Y-6593D01*
X92751Y-6626D01*
X92712Y-6661D01*
X92664Y-6694D01*
X92608Y-6726D01*
X92612D01*
X92618Y-6729D01*
X92628Y-6732D01*
X92641Y-6739D01*
X92680Y-6752D01*
X92725Y-6775D01*
X92774Y-6804D01*
X92829Y-6839D01*
X92877Y-6882D01*
X92923Y-6933D01*
X92926Y-6940D01*
X92939Y-6959D01*
X92958Y-6988D01*
X92978Y-7027D01*
X92997Y-7079D01*
X93017Y-7134D01*
X93030Y-7199D01*
X93033Y-7270D01*
Y-7273D01*
Y-7277D01*
Y-7296D01*
X93030Y-7329D01*
X93023Y-7367D01*
X93017Y-7413D01*
X93004Y-7461D01*
X92988Y-7513D01*
X92965Y-7565D01*
X92962Y-7572D01*
X92952Y-7588D01*
X92939Y-7610D01*
X92919Y-7643D01*
X92894Y-7675D01*
X92868Y-7711D01*
X92835Y-7747D01*
X92800Y-7776D01*
X92796Y-7779D01*
X92783Y-7789D01*
X92761Y-7802D01*
X92732Y-7815D01*
X92696Y-7834D01*
X92654Y-7853D01*
X92608Y-7870D01*
X92553Y-7886D01*
X92547D01*
X92527Y-7892D01*
X92495Y-7896D01*
X92453Y-7902D01*
X92401Y-7908D01*
X92339Y-7915D01*
X92272Y-7918D01*
X92194Y-7921D01*
X91338D01*
Y-5679D01*
X92220D01*
X92242Y-5683D01*
D02*
G37*
G36*
X87969D02*
X88024Y-5686D01*
X88082Y-5689D01*
X88137Y-5696D01*
X88186Y-5702D01*
X88192D01*
X88215Y-5709D01*
X88244Y-5715D01*
X88283Y-5725D01*
X88325Y-5741D01*
X88371Y-5760D01*
X88419Y-5783D01*
X88461Y-5809D01*
X88468Y-5812D01*
X88481Y-5822D01*
X88500Y-5841D01*
X88526Y-5864D01*
X88555Y-5893D01*
X88584Y-5932D01*
X88617Y-5974D01*
X88643Y-6023D01*
X88646Y-6029D01*
X88652Y-6046D01*
X88665Y-6075D01*
X88678Y-6114D01*
X88688Y-6159D01*
X88701Y-6211D01*
X88708Y-6269D01*
X88711Y-6331D01*
Y-6334D01*
Y-6344D01*
Y-6357D01*
X88708Y-6379D01*
X88704Y-6402D01*
X88701Y-6431D01*
X88695Y-6464D01*
X88688Y-6499D01*
X88665Y-6574D01*
X88652Y-6613D01*
X88633Y-6655D01*
X88610Y-6697D01*
X88588Y-6736D01*
X88558Y-6775D01*
X88526Y-6813D01*
X88523Y-6817D01*
X88516Y-6823D01*
X88507Y-6833D01*
X88490Y-6843D01*
X88471Y-6859D01*
X88445Y-6875D01*
X88413Y-6894D01*
X88377Y-6911D01*
X88335Y-6930D01*
X88286Y-6949D01*
X88234Y-6966D01*
X88173Y-6979D01*
X88108Y-6992D01*
X88037Y-7001D01*
X87956Y-7008D01*
X87872Y-7011D01*
X87298D01*
Y-7921D01*
X87000D01*
Y-5679D01*
X87920D01*
X87969Y-5683D01*
D02*
G37*
G36*
X100572Y-6263D02*
X100598Y-6266D01*
X100631Y-6272D01*
X100666Y-6279D01*
X100708Y-6289D01*
X100747Y-6298D01*
X100793Y-6314D01*
X100835Y-6331D01*
X100880Y-6353D01*
X100926Y-6379D01*
X100971Y-6408D01*
X101013Y-6444D01*
X101052Y-6483D01*
X101055Y-6486D01*
X101062Y-6493D01*
X101071Y-6506D01*
X101084Y-6525D01*
X101101Y-6548D01*
X101117Y-6574D01*
X101136Y-6606D01*
X101156Y-6645D01*
X101175Y-6687D01*
X101194Y-6732D01*
X101211Y-6784D01*
X101227Y-6839D01*
X101240Y-6901D01*
X101250Y-6966D01*
X101256Y-7034D01*
X101259Y-7108D01*
Y-7112D01*
Y-7124D01*
Y-7147D01*
X101256Y-7180D01*
X100041D01*
Y-7183D01*
Y-7192D01*
X100044Y-7205D01*
Y-7225D01*
X100048Y-7248D01*
X100054Y-7273D01*
X100064Y-7332D01*
X100083Y-7397D01*
X100109Y-7468D01*
X100145Y-7533D01*
X100190Y-7591D01*
X100193D01*
X100197Y-7598D01*
X100216Y-7614D01*
X100245Y-7636D01*
X100284Y-7659D01*
X100336Y-7685D01*
X100394Y-7708D01*
X100459Y-7724D01*
X100495Y-7727D01*
X100533Y-7730D01*
X100559D01*
X100589Y-7727D01*
X100624Y-7721D01*
X100663Y-7711D01*
X100708Y-7698D01*
X100751Y-7678D01*
X100793Y-7653D01*
X100796Y-7649D01*
X100812Y-7636D01*
X100832Y-7617D01*
X100854Y-7591D01*
X100880Y-7555D01*
X100909Y-7510D01*
X100938Y-7458D01*
X100964Y-7397D01*
X101250Y-7432D01*
Y-7435D01*
X101246Y-7442D01*
X101243Y-7455D01*
X101237Y-7474D01*
X101227Y-7494D01*
X101217Y-7520D01*
X101191Y-7575D01*
X101159Y-7636D01*
X101113Y-7701D01*
X101062Y-7763D01*
X100997Y-7821D01*
X100994D01*
X100987Y-7828D01*
X100977Y-7834D01*
X100964Y-7844D01*
X100945Y-7853D01*
X100926Y-7863D01*
X100900Y-7876D01*
X100870Y-7889D01*
X100838Y-7902D01*
X100806Y-7915D01*
X100725Y-7935D01*
X100634Y-7951D01*
X100533Y-7957D01*
X100498D01*
X100475Y-7954D01*
X100446Y-7951D01*
X100410Y-7944D01*
X100372Y-7938D01*
X100329Y-7931D01*
X100239Y-7905D01*
X100190Y-7886D01*
X100145Y-7866D01*
X100096Y-7841D01*
X100051Y-7811D01*
X100009Y-7779D01*
X99967Y-7740D01*
X99963Y-7737D01*
X99957Y-7730D01*
X99947Y-7717D01*
X99934Y-7698D01*
X99918Y-7675D01*
X99902Y-7649D01*
X99882Y-7617D01*
X99863Y-7581D01*
X99843Y-7539D01*
X99824Y-7494D01*
X99808Y-7442D01*
X99792Y-7387D01*
X99779Y-7329D01*
X99769Y-7264D01*
X99762Y-7196D01*
X99759Y-7124D01*
Y-7121D01*
Y-7105D01*
Y-7086D01*
X99762Y-7056D01*
X99766Y-7021D01*
X99769Y-6982D01*
X99775Y-6937D01*
X99785Y-6891D01*
X99811Y-6787D01*
X99827Y-6736D01*
X99847Y-6681D01*
X99872Y-6629D01*
X99902Y-6580D01*
X99934Y-6532D01*
X99970Y-6486D01*
X99973Y-6483D01*
X99979Y-6476D01*
X99992Y-6467D01*
X100009Y-6451D01*
X100028Y-6434D01*
X100054Y-6415D01*
X100083Y-6392D01*
X100119Y-6373D01*
X100154Y-6350D01*
X100197Y-6331D01*
X100242Y-6311D01*
X100291Y-6295D01*
X100342Y-6279D01*
X100397Y-6269D01*
X100456Y-6263D01*
X100517Y-6259D01*
X100550D01*
X100572Y-6263D01*
D02*
G37*
G36*
X98755D02*
X98777Y-6266D01*
X98807Y-6272D01*
X98839Y-6279D01*
X98875Y-6289D01*
X98910Y-6301D01*
X98949Y-6318D01*
X98988Y-6337D01*
X99030Y-6360D01*
X99069Y-6386D01*
X99108Y-6418D01*
X99147Y-6454D01*
X99182Y-6496D01*
Y-6295D01*
X99435D01*
Y-7701D01*
Y-7704D01*
Y-7717D01*
Y-7737D01*
Y-7763D01*
X99432Y-7792D01*
Y-7828D01*
X99429Y-7866D01*
X99425Y-7908D01*
X99416Y-7996D01*
X99403Y-8087D01*
X99393Y-8129D01*
X99383Y-8168D01*
X99370Y-8203D01*
X99357Y-8236D01*
Y-8239D01*
X99354Y-8242D01*
X99341Y-8262D01*
X99325Y-8291D01*
X99299Y-8326D01*
X99263Y-8365D01*
X99221Y-8407D01*
X99169Y-8450D01*
X99111Y-8485D01*
X99108D01*
X99105Y-8489D01*
X99095Y-8495D01*
X99082Y-8498D01*
X99066Y-8508D01*
X99046Y-8514D01*
X98998Y-8531D01*
X98939Y-8550D01*
X98868Y-8563D01*
X98787Y-8576D01*
X98700Y-8579D01*
X98671D01*
X98651Y-8576D01*
X98625D01*
X98599Y-8573D01*
X98567Y-8569D01*
X98531Y-8563D01*
X98457Y-8547D01*
X98379Y-8524D01*
X98301Y-8492D01*
X98230Y-8446D01*
X98227Y-8443D01*
X98223Y-8440D01*
X98201Y-8421D01*
X98175Y-8391D01*
X98142Y-8349D01*
X98110Y-8294D01*
X98081Y-8226D01*
X98071Y-8187D01*
X98065Y-8145D01*
X98058Y-8103D01*
Y-8054D01*
X98327Y-8090D01*
Y-8096D01*
X98330Y-8109D01*
X98337Y-8132D01*
X98343Y-8161D01*
X98356Y-8190D01*
X98372Y-8220D01*
X98392Y-8249D01*
X98418Y-8271D01*
X98424Y-8275D01*
X98437Y-8284D01*
X98460Y-8297D01*
X98492Y-8310D01*
X98531Y-8326D01*
X98580Y-8339D01*
X98638Y-8349D01*
X98700Y-8352D01*
X98732D01*
X98764Y-8349D01*
X98810Y-8343D01*
X98855Y-8333D01*
X98904Y-8320D01*
X98952Y-8301D01*
X98994Y-8275D01*
X98998Y-8271D01*
X99011Y-8262D01*
X99030Y-8242D01*
X99053Y-8220D01*
X99076Y-8187D01*
X99098Y-8152D01*
X99121Y-8109D01*
X99137Y-8061D01*
Y-8058D01*
X99140Y-8045D01*
X99143Y-8019D01*
X99147Y-7986D01*
X99150Y-7964D01*
Y-7938D01*
X99153Y-7908D01*
Y-7876D01*
Y-7841D01*
X99156Y-7798D01*
Y-7756D01*
Y-7708D01*
X99153Y-7711D01*
X99147Y-7717D01*
X99137Y-7727D01*
X99124Y-7740D01*
X99108Y-7756D01*
X99085Y-7776D01*
X99059Y-7795D01*
X99033Y-7815D01*
X98965Y-7853D01*
X98891Y-7889D01*
X98849Y-7902D01*
X98803Y-7912D01*
X98755Y-7918D01*
X98706Y-7921D01*
X98690D01*
X98674Y-7918D01*
X98651D01*
X98622Y-7915D01*
X98589Y-7908D01*
X98554Y-7902D01*
X98515Y-7892D01*
X98473Y-7879D01*
X98431Y-7863D01*
X98389Y-7844D01*
X98343Y-7821D01*
X98301Y-7792D01*
X98259Y-7760D01*
X98220Y-7724D01*
X98185Y-7682D01*
X98181Y-7678D01*
X98178Y-7672D01*
X98168Y-7656D01*
X98155Y-7640D01*
X98142Y-7614D01*
X98126Y-7588D01*
X98110Y-7555D01*
X98094Y-7517D01*
X98078Y-7478D01*
X98061Y-7432D01*
X98045Y-7387D01*
X98032Y-7335D01*
X98010Y-7225D01*
X98006Y-7163D01*
X98003Y-7102D01*
Y-7099D01*
Y-7092D01*
Y-7079D01*
Y-7063D01*
X98006Y-7040D01*
Y-7017D01*
X98013Y-6959D01*
X98023Y-6894D01*
X98039Y-6823D01*
X98058Y-6749D01*
X98087Y-6674D01*
Y-6671D01*
X98090Y-6664D01*
X98097Y-6655D01*
X98103Y-6642D01*
X98123Y-6606D01*
X98149Y-6561D01*
X98185Y-6512D01*
X98227Y-6464D01*
X98275Y-6412D01*
X98330Y-6370D01*
X98334D01*
X98337Y-6366D01*
X98347Y-6360D01*
X98359Y-6353D01*
X98392Y-6334D01*
X98437Y-6314D01*
X98492Y-6295D01*
X98557Y-6276D01*
X98628Y-6263D01*
X98706Y-6259D01*
X98735D01*
X98755Y-6263D01*
D02*
G37*
%LPC*%
G36*
X96976Y-6486D02*
X96960D01*
X96947Y-6489D01*
X96911Y-6493D01*
X96869Y-6506D01*
X96820Y-6522D01*
X96769Y-6551D01*
X96717Y-6587D01*
X96691Y-6613D01*
X96668Y-6639D01*
Y-6642D01*
X96662Y-6645D01*
X96658Y-6655D01*
X96649Y-6668D01*
X96639Y-6684D01*
X96629Y-6703D01*
X96620Y-6726D01*
X96607Y-6752D01*
X96594Y-6784D01*
X96584Y-6820D01*
X96574Y-6859D01*
X96565Y-6901D01*
X96558Y-6946D01*
X96552Y-6998D01*
X96545Y-7053D01*
Y-7112D01*
Y-7115D01*
Y-7124D01*
Y-7141D01*
X96548Y-7163D01*
Y-7189D01*
X96552Y-7218D01*
X96561Y-7287D01*
X96577Y-7361D01*
X96600Y-7439D01*
X96632Y-7513D01*
X96652Y-7546D01*
X96675Y-7578D01*
X96678D01*
X96681Y-7585D01*
X96697Y-7601D01*
X96727Y-7627D01*
X96762Y-7653D01*
X96807Y-7682D01*
X96863Y-7708D01*
X96921Y-7724D01*
X96953Y-7727D01*
X96986Y-7730D01*
X97002D01*
X97015Y-7727D01*
X97050Y-7724D01*
X97093Y-7711D01*
X97141Y-7695D01*
X97193Y-7669D01*
X97245Y-7633D01*
X97271Y-7610D01*
X97294Y-7585D01*
Y-7581D01*
X97300Y-7578D01*
X97306Y-7568D01*
X97313Y-7555D01*
X97323Y-7539D01*
X97336Y-7523D01*
X97345Y-7497D01*
X97358Y-7471D01*
X97371Y-7442D01*
X97381Y-7410D01*
X97394Y-7371D01*
X97404Y-7332D01*
X97410Y-7287D01*
X97417Y-7241D01*
X97423Y-7189D01*
Y-7134D01*
Y-7131D01*
Y-7118D01*
Y-7102D01*
X97420Y-7079D01*
Y-7053D01*
X97417Y-7021D01*
X97413Y-6985D01*
X97407Y-6946D01*
X97391Y-6869D01*
X97368Y-6787D01*
X97336Y-6710D01*
X97316Y-6677D01*
X97294Y-6645D01*
Y-6642D01*
X97287Y-6639D01*
X97271Y-6619D01*
X97242Y-6593D01*
X97206Y-6564D01*
X97161Y-6535D01*
X97106Y-6512D01*
X97044Y-6493D01*
X97012Y-6489D01*
X96976Y-6486D01*
D02*
G37*
G36*
X92168Y-5945D02*
X91636D01*
Y-6619D01*
X92187D01*
X92229Y-6616D01*
X92275Y-6613D01*
X92320Y-6609D01*
X92365Y-6603D01*
X92401Y-6596D01*
X92408Y-6593D01*
X92421Y-6590D01*
X92440Y-6580D01*
X92466Y-6567D01*
X92492Y-6554D01*
X92521Y-6535D01*
X92550Y-6509D01*
X92573Y-6483D01*
X92576Y-6480D01*
X92582Y-6470D01*
X92592Y-6451D01*
X92602Y-6428D01*
X92612Y-6402D01*
X92621Y-6370D01*
X92628Y-6331D01*
X92631Y-6289D01*
Y-6282D01*
Y-6269D01*
X92628Y-6250D01*
X92625Y-6224D01*
X92618Y-6191D01*
X92608Y-6159D01*
X92595Y-6127D01*
X92576Y-6094D01*
X92573Y-6091D01*
X92566Y-6081D01*
X92553Y-6065D01*
X92537Y-6049D01*
X92514Y-6029D01*
X92489Y-6010D01*
X92456Y-5991D01*
X92421Y-5977D01*
X92417D01*
X92401Y-5971D01*
X92378Y-5968D01*
X92343Y-5961D01*
X92294Y-5955D01*
X92239Y-5952D01*
X92168Y-5945D01*
D02*
G37*
G36*
X92226Y-6885D02*
X91636D01*
Y-7656D01*
X92275D01*
X92343Y-7653D01*
X92372Y-7649D01*
X92398Y-7646D01*
X92401D01*
X92414Y-7643D01*
X92434Y-7640D01*
X92456Y-7633D01*
X92511Y-7614D01*
X92566Y-7588D01*
X92570Y-7585D01*
X92579Y-7578D01*
X92592Y-7568D01*
X92608Y-7555D01*
X92625Y-7536D01*
X92647Y-7517D01*
X92664Y-7491D01*
X92683Y-7461D01*
X92686Y-7458D01*
X92689Y-7448D01*
X92696Y-7429D01*
X92706Y-7406D01*
X92715Y-7380D01*
X92722Y-7348D01*
X92725Y-7309D01*
X92728Y-7270D01*
Y-7264D01*
Y-7251D01*
X92725Y-7225D01*
X92719Y-7196D01*
X92712Y-7163D01*
X92699Y-7128D01*
X92683Y-7092D01*
X92660Y-7056D01*
X92657Y-7053D01*
X92647Y-7040D01*
X92634Y-7024D01*
X92615Y-7005D01*
X92589Y-6982D01*
X92557Y-6959D01*
X92521Y-6940D01*
X92479Y-6924D01*
X92472Y-6920D01*
X92459Y-6917D01*
X92430Y-6911D01*
X92395Y-6904D01*
X92349Y-6898D01*
X92294Y-6891D01*
X92226Y-6885D01*
D02*
G37*
G36*
X87940Y-5945D02*
X87298D01*
Y-6745D01*
X87901D01*
X87923Y-6742D01*
X87946D01*
X87972Y-6739D01*
X88034Y-6732D01*
X88102Y-6719D01*
X88170Y-6700D01*
X88231Y-6674D01*
X88260Y-6658D01*
X88283Y-6639D01*
X88289Y-6632D01*
X88302Y-6619D01*
X88322Y-6593D01*
X88345Y-6561D01*
X88367Y-6519D01*
X88387Y-6467D01*
X88400Y-6408D01*
X88406Y-6340D01*
Y-6337D01*
Y-6334D01*
Y-6318D01*
X88403Y-6289D01*
X88396Y-6256D01*
X88390Y-6221D01*
X88377Y-6178D01*
X88358Y-6140D01*
X88335Y-6101D01*
X88332Y-6097D01*
X88322Y-6084D01*
X88306Y-6068D01*
X88286Y-6046D01*
X88257Y-6023D01*
X88225Y-6003D01*
X88189Y-5984D01*
X88147Y-5968D01*
X88144D01*
X88131Y-5965D01*
X88111Y-5961D01*
X88085Y-5955D01*
X88046Y-5952D01*
X87998Y-5948D01*
X87940Y-5945D01*
D02*
G37*
G36*
X100521Y-6486D02*
X100501D01*
X100488Y-6489D01*
X100452Y-6493D01*
X100410Y-6502D01*
X100358Y-6519D01*
X100303Y-6541D01*
X100252Y-6574D01*
X100200Y-6616D01*
X100193Y-6622D01*
X100180Y-6639D01*
X100158Y-6668D01*
X100135Y-6707D01*
X100109Y-6752D01*
X100086Y-6810D01*
X100067Y-6878D01*
X100057Y-6953D01*
X100968D01*
Y-6949D01*
Y-6943D01*
X100964Y-6933D01*
Y-6920D01*
X100958Y-6882D01*
X100948Y-6839D01*
X100932Y-6787D01*
X100916Y-6739D01*
X100890Y-6690D01*
X100861Y-6648D01*
Y-6645D01*
X100854Y-6642D01*
X100838Y-6622D01*
X100809Y-6596D01*
X100770Y-6567D01*
X100721Y-6538D01*
X100663Y-6512D01*
X100595Y-6493D01*
X100559Y-6489D01*
X100521Y-6486D01*
D02*
G37*
G36*
X98761D02*
X98709D01*
X98696Y-6489D01*
X98661Y-6493D01*
X98619Y-6506D01*
X98567Y-6522D01*
X98515Y-6551D01*
X98463Y-6587D01*
X98437Y-6613D01*
X98411Y-6639D01*
Y-6642D01*
X98405Y-6645D01*
X98398Y-6655D01*
X98392Y-6668D01*
X98382Y-6681D01*
X98372Y-6700D01*
X98359Y-6723D01*
X98350Y-6749D01*
X98337Y-6778D01*
X98324Y-6813D01*
X98314Y-6849D01*
X98304Y-6888D01*
X98298Y-6933D01*
X98291Y-6979D01*
X98285Y-7027D01*
Y-7082D01*
Y-7086D01*
Y-7095D01*
Y-7112D01*
X98288Y-7134D01*
Y-7160D01*
X98291Y-7192D01*
X98301Y-7261D01*
X98317Y-7338D01*
X98337Y-7413D01*
X98369Y-7487D01*
X98389Y-7520D01*
X98411Y-7549D01*
X98418Y-7555D01*
X98434Y-7572D01*
X98460Y-7594D01*
X98499Y-7620D01*
X98544Y-7649D01*
X98599Y-7672D01*
X98661Y-7688D01*
X98693Y-7692D01*
X98729Y-7695D01*
X98748D01*
X98761Y-7692D01*
X98797Y-7688D01*
X98842Y-7675D01*
X98891Y-7659D01*
X98946Y-7633D01*
X98998Y-7598D01*
X99024Y-7575D01*
X99050Y-7549D01*
Y-7546D01*
X99056Y-7542D01*
X99063Y-7533D01*
X99069Y-7520D01*
X99079Y-7507D01*
X99092Y-7487D01*
X99101Y-7465D01*
X99114Y-7435D01*
X99127Y-7406D01*
X99137Y-7374D01*
X99150Y-7335D01*
X99160Y-7293D01*
X99166Y-7251D01*
X99173Y-7202D01*
X99179Y-7147D01*
Y-7092D01*
Y-7089D01*
Y-7079D01*
Y-7063D01*
X99176Y-7044D01*
Y-7017D01*
X99173Y-6988D01*
X99163Y-6924D01*
X99147Y-6849D01*
X99124Y-6775D01*
X99092Y-6700D01*
X99069Y-6668D01*
X99046Y-6639D01*
Y-6635D01*
X99040Y-6632D01*
X99024Y-6616D01*
X98994Y-6590D01*
X98956Y-6561D01*
X98910Y-6535D01*
X98855Y-6509D01*
X98794Y-6493D01*
X98761Y-6486D01*
D02*
G37*
%LPD*%
D10*
X12100Y137100D02*
G03*
X10500Y137100I-800J1600D01*
G01*
X65358Y15850D02*
G03*
X66500Y14709I1142J0D01*
G01*
X71350D02*
G03*
X72642Y16000I0J1291D01*
G01*
X52442Y140350D02*
G03*
X51300Y141491I-1142J0D01*
G01*
X46450D02*
G03*
X45158Y140200I0J-1291D01*
G01*
Y129200D02*
G03*
X46450Y127909I1291J0D01*
G01*
X51300D02*
G03*
X52442Y129050I0J1142D01*
G01*
X132150Y118858D02*
G03*
X133291Y120000I0J1142D01*
G01*
Y124850D02*
G03*
X132000Y126142I-1291J0D01*
G01*
X121000D02*
G03*
X119709Y124850I0J-1291D01*
G01*
Y120000D02*
G03*
X120850Y118858I1142J0D01*
G01*
X132150Y142858D02*
G03*
X133291Y144000I0J1142D01*
G01*
Y148850D02*
G03*
X132000Y150142I-1291J0D01*
G01*
X121000D02*
G03*
X119709Y148850I0J-1291D01*
G01*
Y144000D02*
G03*
X120850Y142858I1142J0D01*
G01*
X47142Y15150D02*
G03*
X46000Y16291I-1142J0D01*
G01*
X41150D02*
G03*
X39858Y15000I0J-1291D01*
G01*
Y4000D02*
G03*
X41150Y2709I1291J0D01*
G01*
X46000D02*
G03*
X47142Y3850I0J1142D01*
G01*
X9500Y134800D02*
X10500Y137100D01*
X9000Y135100D02*
X9500Y134800D01*
X6900Y135200D02*
X7700Y136500D01*
X7200Y137800D02*
X7700Y136500D01*
X7200Y139600D02*
X7800Y140900D01*
X12100Y137100D02*
X13000Y134800D01*
X10300Y142700D02*
X10600Y144300D01*
X11900D01*
X12200Y142700D01*
X14800Y140900D02*
X15300Y139700D01*
X16800Y139400D01*
Y138100D02*
Y139400D01*
X15400Y137800D02*
X16800Y138100D01*
X14800Y136500D02*
X15400Y137800D01*
X14800Y136500D02*
X15700Y135200D01*
X7800Y134300D02*
X9000Y135100D01*
X6900Y135200D02*
X7800Y134300D01*
X6900Y142200D02*
X7800Y140900D01*
X6900Y142200D02*
X7800Y143100D01*
X9100Y142200D01*
X10300Y142700D01*
X14800Y143100D02*
X15700Y142200D01*
X14800Y140900D02*
X15700Y142200D01*
X14800Y134300D02*
X15700Y135200D01*
X5700Y138100D02*
X7200Y137800D01*
X5700Y138100D02*
Y139400D01*
X7200Y139600D01*
X13000Y134800D02*
X13600Y135100D01*
X12200Y142700D02*
X13400Y142200D01*
X14800Y143100D01*
X13600Y135100D02*
X14800Y134300D01*
X85300Y22900D02*
Y28100D01*
Y22900D02*
X96700D01*
Y28100D01*
X85300D02*
X96700D01*
X65358Y15850D02*
Y20000D01*
X66500Y14709D02*
X71350D01*
X72642Y16000D02*
Y20000D01*
X65358Y23000D02*
Y27150D01*
X52700Y3516D02*
Y8303D01*
X47300Y3516D02*
X52700D01*
X47300D02*
Y8303D01*
Y10697D02*
Y15484D01*
X52700D01*
Y10697D02*
Y15484D01*
X52442Y136200D02*
Y140350D01*
X46450Y141491D02*
X51300D01*
X45158Y136200D02*
Y140200D01*
Y129200D02*
Y133200D01*
X46450Y127909D02*
X51300D01*
X52442Y129050D02*
Y133200D01*
X83165Y133800D02*
X87953D01*
X83165D02*
Y139200D01*
X87953D01*
X90346D02*
X95134D01*
Y133800D02*
Y139200D01*
X90346Y133800D02*
X95134D01*
X83165Y128300D02*
X87953D01*
X83165D02*
Y133700D01*
X87953D01*
X90346D02*
X95134D01*
Y128300D02*
Y133700D01*
X90346Y128300D02*
X95134D01*
X83165Y122900D02*
X87953D01*
X83165D02*
Y128300D01*
X87953D01*
X90346D02*
X95134D01*
Y122900D02*
Y128300D01*
X90346Y122900D02*
X95134D01*
X128000Y118858D02*
X132150D01*
X133291Y120000D02*
Y124850D01*
X128000Y126142D02*
X132000D01*
X121000D02*
X125000D01*
X119709Y120000D02*
Y124850D01*
X120850Y118858D02*
X125000D01*
X128000Y142858D02*
X132150D01*
X133291Y144000D02*
Y148850D01*
X128000Y150142D02*
X132000D01*
X121000D02*
X125000D01*
X119709Y144000D02*
Y148850D01*
X120850Y142858D02*
X125000D01*
X89300Y152847D02*
Y157634D01*
X94700D01*
Y152847D02*
Y157634D01*
Y145665D02*
Y150453D01*
X89300Y145665D02*
X94700D01*
X89300D02*
Y150453D01*
X71700Y1016D02*
Y5803D01*
X66300Y1016D02*
X71700D01*
X66300D02*
Y5803D01*
Y8197D02*
Y12984D01*
X71700D01*
Y8197D02*
Y12984D01*
X52700Y16016D02*
Y20803D01*
X47300Y16016D02*
X52700D01*
X47300D02*
Y20803D01*
Y23197D02*
Y27984D01*
X52700D01*
Y23197D02*
Y27984D01*
X47142Y11000D02*
Y15150D01*
X41150Y16291D02*
X46000D01*
X39858Y11000D02*
Y15000D01*
Y4000D02*
Y8000D01*
X41150Y2709D02*
X46000D01*
X47142Y3850D02*
Y8000D01*
X16900Y35300D02*
X22100D01*
Y46700D01*
X16900D02*
X22100D01*
X16900Y35300D02*
Y46700D01*
X25600Y92565D02*
Y97353D01*
X20200Y92565D02*
X25600D01*
X20200D02*
Y97353D01*
Y99747D02*
Y104534D01*
X25600D01*
Y99747D02*
Y104534D01*
X6700Y92516D02*
Y97303D01*
X1300Y92516D02*
X6700D01*
X1300D02*
Y97303D01*
Y99697D02*
Y104484D01*
X6700D01*
Y99697D02*
Y104484D01*
D11*
X101100Y104504D02*
G03*
X99744Y103148I0J-1356D01*
G01*
X105300Y103100D02*
G03*
X103896Y104504I-1404J0D01*
G01*
Y92496D02*
G03*
X105300Y93900I0J1404D01*
G01*
X99744Y93852D02*
G03*
X101100Y92496I1356J0D01*
G01*
X132504Y91900D02*
G03*
X131148Y93256I-1356J0D01*
G01*
X131100Y87700D02*
G03*
X132504Y89104I0J1404D01*
G01*
X120496D02*
G03*
X121900Y87700I1404J0D01*
G01*
X121852Y93256D02*
G03*
X120496Y91900I0J-1356D01*
G01*
X121004Y85900D02*
G03*
X119648Y87256I-1356J0D01*
G01*
X119600Y81700D02*
G03*
X121004Y83104I0J1404D01*
G01*
X108996D02*
G03*
X110400Y81700I1404J0D01*
G01*
X110352Y87256D02*
G03*
X108996Y85900I0J-1356D01*
G01*
X101900Y24496D02*
G03*
X103256Y25852I0J1356D01*
G01*
X97700Y25900D02*
G03*
X99104Y24496I1404J0D01*
G01*
Y36504D02*
G03*
X97700Y35100I0J-1404D01*
G01*
X103256Y35148D02*
G03*
X101900Y36504I-1356J0D01*
G01*
X72496Y24100D02*
G03*
X73852Y22744I1356J0D01*
G01*
X73900Y28300D02*
G03*
X72496Y26896I0J-1404D01*
G01*
X84504D02*
G03*
X83100Y28300I-1404J0D01*
G01*
X83148Y22744D02*
G03*
X84504Y24100I0J1356D01*
G01*
X65496Y103600D02*
G03*
X66852Y102244I1356J0D01*
G01*
X66900Y107800D02*
G03*
X65496Y106396I0J-1404D01*
G01*
X77504D02*
G03*
X76100Y107800I-1404J0D01*
G01*
X76148Y102244D02*
G03*
X77504Y103600I0J1356D01*
G01*
X56700Y128645D02*
G03*
X58056Y130001I0J1356D01*
G01*
X52500Y130049D02*
G03*
X53904Y128645I1404J0D01*
G01*
Y140653D02*
G03*
X52500Y139249I0J-1404D01*
G01*
X58056Y139297D02*
G03*
X56700Y140653I-1356J0D01*
G01*
X95055Y143400D02*
G03*
X93699Y144756I-1356J0D01*
G01*
X93651Y139200D02*
G03*
X95055Y140604I0J1404D01*
G01*
X83047D02*
G03*
X84451Y139200I1404J0D01*
G01*
X84403Y144756D02*
G03*
X83047Y143400I0J-1356D01*
G01*
X135100Y149504D02*
G03*
X133744Y148148I0J-1356D01*
G01*
X139300Y148100D02*
G03*
X137896Y149504I-1404J0D01*
G01*
Y137496D02*
G03*
X139300Y138900I0J1404D01*
G01*
X133744Y138852D02*
G03*
X135100Y137496I1356J0D01*
G01*
X85100Y157555D02*
G03*
X83744Y156199I0J-1356D01*
G01*
X89300Y156151D02*
G03*
X87896Y157555I-1404J0D01*
G01*
Y145547D02*
G03*
X89300Y146951I0J1404D01*
G01*
X83744Y146903D02*
G03*
X85100Y145547I1356J0D01*
G01*
X74100Y166504D02*
G03*
X72744Y165148I0J-1356D01*
G01*
X78300Y165100D02*
G03*
X76896Y166504I-1404J0D01*
G01*
Y154496D02*
G03*
X78300Y155900I0J1404D01*
G01*
X72744Y155852D02*
G03*
X74100Y154496I1356J0D01*
G01*
X65600Y166555D02*
G03*
X64244Y165199I0J-1356D01*
G01*
X69800Y165151D02*
G03*
X68396Y166555I-1404J0D01*
G01*
Y154547D02*
G03*
X69800Y155951I0J1404D01*
G01*
X64244Y155903D02*
G03*
X65600Y154547I1356J0D01*
G01*
X33900Y34996D02*
G03*
X35256Y36352I0J1356D01*
G01*
X29700Y36400D02*
G03*
X31104Y34996I1404J0D01*
G01*
Y47004D02*
G03*
X29700Y45600I0J-1404D01*
G01*
X35256Y45648D02*
G03*
X33900Y47004I-1356J0D01*
G01*
X27400Y34996D02*
G03*
X28756Y36352I0J1356D01*
G01*
X23200Y36400D02*
G03*
X24604Y34996I1404J0D01*
G01*
Y47004D02*
G03*
X23200Y45600I0J-1404D01*
G01*
X28756Y45648D02*
G03*
X27400Y47004I-1356J0D01*
G01*
X29004Y56400D02*
G03*
X27648Y57756I-1356J0D01*
G01*
X27600Y52200D02*
G03*
X29004Y53604I0J1404D01*
G01*
X16996D02*
G03*
X18400Y52200I1404J0D01*
G01*
X18352Y57756D02*
G03*
X16996Y56400I0J-1356D01*
G01*
Y75600D02*
G03*
X18352Y74244I1356J0D01*
G01*
X18400Y79800D02*
G03*
X16996Y78396I0J-1404D01*
G01*
X29004D02*
G03*
X27600Y79800I-1404J0D01*
G01*
X27648Y74244D02*
G03*
X29004Y75600I0J1356D01*
G01*
X30400Y86655D02*
G03*
X29044Y85299I0J-1356D01*
G01*
X34600Y85251D02*
G03*
X33196Y86655I-1404J0D01*
G01*
Y74647D02*
G03*
X34600Y76051I0J1404D01*
G01*
X29044Y76003D02*
G03*
X30400Y74647I1356J0D01*
G01*
X38600Y104504D02*
G03*
X37244Y103148I0J-1356D01*
G01*
X42800Y103100D02*
G03*
X41396Y104504I-1404J0D01*
G01*
Y92496D02*
G03*
X42800Y93900I0J1404D01*
G01*
X37244Y93852D02*
G03*
X38600Y92496I1356J0D01*
G01*
X99744Y99500D02*
Y103148D01*
X101100Y104504D02*
X103896D01*
X105300Y99500D02*
Y103100D01*
Y93900D02*
Y97500D01*
X101100Y92496D02*
X103896D01*
X99744Y93852D02*
Y97500D01*
X100500Y98000D02*
X104500D01*
X100500Y99051D02*
X104500D01*
X127500Y93256D02*
X131148D01*
X132504Y89104D02*
Y91900D01*
X127500Y87700D02*
X131100D01*
X121900D02*
X125500D01*
X120496Y89104D02*
Y91900D01*
X121852Y93256D02*
X125500D01*
X126000Y88500D02*
Y92500D01*
X127051Y88500D02*
Y92500D01*
X116000Y87256D02*
X119648D01*
X121004Y83104D02*
Y85900D01*
X116000Y81700D02*
X119600D01*
X110400D02*
X114000D01*
X108996Y83104D02*
Y85900D01*
X110352Y87256D02*
X114000D01*
X114500Y82500D02*
Y86500D01*
X115551Y82500D02*
Y86500D01*
X103256Y25852D02*
Y29500D01*
X99104Y24496D02*
X101900D01*
X97700Y25900D02*
Y29500D01*
Y31500D02*
Y35100D01*
X99104Y36504D02*
X101900D01*
X103256Y31500D02*
Y35148D01*
X98500Y31000D02*
X102500D01*
X98500Y29949D02*
X102500D01*
X73852Y22744D02*
X77500D01*
X72496Y24100D02*
Y26896D01*
X84504Y24100D02*
Y26896D01*
X79500Y22744D02*
X83148D01*
X79000Y23500D02*
Y27500D01*
X77949Y23500D02*
Y27500D01*
X66852Y102244D02*
X70500D01*
X65496Y103600D02*
Y106396D01*
X66900Y107800D02*
X70500D01*
X72500D02*
X76100D01*
X77504Y103600D02*
Y106396D01*
X72500Y102244D02*
X76148D01*
X72000Y103000D02*
Y107000D01*
X70949Y103000D02*
Y107000D01*
X58056Y130001D02*
Y133649D01*
X53904Y128645D02*
X56700D01*
X52500Y130049D02*
Y133649D01*
Y135649D02*
Y139249D01*
X53904Y140653D02*
X56700D01*
X58056Y135649D02*
Y139297D01*
X53300Y135149D02*
X57300D01*
X53300Y134098D02*
X57300D01*
X90051Y144756D02*
X93699D01*
X95055Y140604D02*
Y143400D01*
X90051Y139200D02*
X93651D01*
X84451D02*
X88051D01*
X83047Y140604D02*
Y143400D01*
X84403Y144756D02*
X88051D01*
X88551Y140000D02*
Y144000D01*
X89602Y140000D02*
Y144000D01*
X133744Y144500D02*
Y148148D01*
X135100Y149504D02*
X137896D01*
X139300Y144500D02*
Y148100D01*
Y138900D02*
Y142500D01*
X135100Y137496D02*
X137896D01*
X133744Y138852D02*
Y142500D01*
X134500Y143000D02*
X138500D01*
X134500Y144051D02*
X138500D01*
X83744Y152551D02*
Y156199D01*
X85100Y157555D02*
X87896D01*
X89300Y152551D02*
Y156151D01*
Y146951D02*
Y150551D01*
X85100Y145547D02*
X87896D01*
X83744Y146903D02*
Y150551D01*
X84500Y151051D02*
X88500D01*
X84500Y152102D02*
X88500D01*
X72744Y161500D02*
Y165148D01*
X74100Y166504D02*
X76896D01*
X78300Y161500D02*
Y165100D01*
Y155900D02*
Y159500D01*
X74100Y154496D02*
X76896D01*
X72744Y155852D02*
Y159500D01*
X73500Y160000D02*
X77500D01*
X73500Y161051D02*
X77500D01*
X64244Y161551D02*
Y165199D01*
X65600Y166555D02*
X68396D01*
X69800Y161551D02*
Y165151D01*
Y155951D02*
Y159551D01*
X65600Y154547D02*
X68396D01*
X64244Y155903D02*
Y159551D01*
X65000Y160051D02*
X69000D01*
X65000Y161102D02*
X69000D01*
X35256Y36352D02*
Y40000D01*
X31104Y34996D02*
X33900D01*
X29700Y36400D02*
Y40000D01*
Y42000D02*
Y45600D01*
X31104Y47004D02*
X33900D01*
X35256Y42000D02*
Y45648D01*
X30500Y41500D02*
X34500D01*
X30500Y40449D02*
X34500D01*
X28756Y36352D02*
Y40000D01*
X24604Y34996D02*
X27400D01*
X23200Y36400D02*
Y40000D01*
Y42000D02*
Y45600D01*
X24604Y47004D02*
X27400D01*
X28756Y42000D02*
Y45648D01*
X24000Y41500D02*
X28000D01*
X24000Y40449D02*
X28000D01*
X24000Y57756D02*
X27648D01*
X29004Y53604D02*
Y56400D01*
X24000Y52200D02*
X27600D01*
X18400D02*
X22000D01*
X16996Y53604D02*
Y56400D01*
X18352Y57756D02*
X22000D01*
X22500Y53000D02*
Y57000D01*
X23551Y53000D02*
Y57000D01*
X18352Y74244D02*
X22000D01*
X16996Y75600D02*
Y78396D01*
X18400Y79800D02*
X22000D01*
X24000D02*
X27600D01*
X29004Y75600D02*
Y78396D01*
X24000Y74244D02*
X27648D01*
X23500Y75000D02*
Y79000D01*
X22449Y75000D02*
Y79000D01*
X29044Y81651D02*
Y85299D01*
X30400Y86655D02*
X33196D01*
X34600Y81651D02*
Y85251D01*
Y76051D02*
Y79651D01*
X30400Y74647D02*
X33196D01*
X29044Y76003D02*
Y79651D01*
X29800Y80151D02*
X33800D01*
X29800Y81202D02*
X33800D01*
X37244Y99500D02*
Y103148D01*
X38600Y104504D02*
X41396D01*
X42800Y99500D02*
Y103100D01*
Y93900D02*
Y97500D01*
X38600Y92496D02*
X41396D01*
X37244Y93852D02*
Y97500D01*
X38000Y98000D02*
X42000D01*
X38000Y99051D02*
X42000D01*
X126566Y96383D02*
X126150Y96799D01*
X125317D01*
X124900Y96383D01*
Y94717D01*
X125317Y94300D01*
X126150D01*
X126566Y94717D01*
X127399Y94300D02*
X128232D01*
X127816D01*
Y96799D01*
X127399Y96383D01*
X42817Y19266D02*
X42401Y18850D01*
Y18016D01*
X42817Y17600D01*
X44484D01*
X44900Y18016D01*
Y18850D01*
X44484Y19266D01*
X44900Y21765D02*
Y20099D01*
X43234Y21765D01*
X42817D01*
X42401Y21349D01*
Y20516D01*
X42817Y20099D01*
X126066Y117183D02*
X125650Y117599D01*
X124817D01*
X124400Y117183D01*
Y115516D01*
X124817Y115100D01*
X125650D01*
X126066Y115516D01*
X126899Y117183D02*
X127316Y117599D01*
X128149D01*
X128565Y117183D01*
Y116766D01*
X128149Y116350D01*
X127732D01*
X128149D01*
X128565Y115933D01*
Y115516D01*
X128149Y115100D01*
X127316D01*
X126899Y115516D01*
X32066Y49783D02*
X31650Y50199D01*
X30817D01*
X30400Y49783D01*
Y48116D01*
X30817Y47700D01*
X31650D01*
X32066Y48116D01*
X34149Y47700D02*
Y50199D01*
X32899Y48950D01*
X34565D01*
X25566Y49883D02*
X25150Y50299D01*
X24317D01*
X23900Y49883D01*
Y48217D01*
X24317Y47800D01*
X25150D01*
X25566Y48217D01*
X28065Y50299D02*
X26399D01*
Y49050D01*
X27232Y49466D01*
X27649D01*
X28065Y49050D01*
Y48217D01*
X27649Y47800D01*
X26816D01*
X26399Y48217D01*
X39266Y107483D02*
X38850Y107899D01*
X38017D01*
X37600Y107483D01*
Y105816D01*
X38017Y105400D01*
X38850D01*
X39266Y105816D01*
X41765Y107899D02*
X40932Y107483D01*
X40099Y106650D01*
Y105816D01*
X40516Y105400D01*
X41349D01*
X41765Y105816D01*
Y106233D01*
X41349Y106650D01*
X40099D01*
X136366Y152583D02*
X135950Y152999D01*
X135117D01*
X134700Y152583D01*
Y150917D01*
X135117Y150500D01*
X135950D01*
X136366Y150917D01*
X137199Y152999D02*
X138865D01*
Y152583D01*
X137199Y150917D01*
Y150500D01*
X105117Y29766D02*
X104701Y29350D01*
Y28517D01*
X105117Y28100D01*
X106783D01*
X107200Y28517D01*
Y29350D01*
X106783Y29766D01*
X105117Y30599D02*
X104701Y31016D01*
Y31849D01*
X105117Y32265D01*
X105534D01*
X105950Y31849D01*
X106367Y32265D01*
X106783D01*
X107200Y31849D01*
Y31016D01*
X106783Y30599D01*
X106367D01*
X105950Y31016D01*
X105534Y30599D01*
X105117D01*
X105950Y31016D02*
Y31849D01*
X96417Y99066D02*
X96001Y98650D01*
Y97816D01*
X96417Y97400D01*
X98084D01*
X98500Y97816D01*
Y98650D01*
X98084Y99066D01*
Y99899D02*
X98500Y100316D01*
Y101149D01*
X98084Y101565D01*
X96417D01*
X96001Y101149D01*
Y100316D01*
X96417Y99899D01*
X96834D01*
X97250Y100316D01*
Y101565D01*
X59866Y105783D02*
X59450Y106199D01*
X58617D01*
X58200Y105783D01*
Y104116D01*
X58617Y103700D01*
X59450D01*
X59866Y104116D01*
X60699Y103700D02*
X61532D01*
X61116D01*
Y106199D01*
X60699Y105783D01*
X62782D02*
X63198Y106199D01*
X64031D01*
X64448Y105783D01*
Y104116D01*
X64031Y103700D01*
X63198D01*
X62782Y104116D01*
Y105783D01*
X21166Y108283D02*
X20750Y108699D01*
X19917D01*
X19500Y108283D01*
Y106616D01*
X19917Y106200D01*
X20750D01*
X21166Y106616D01*
X21999Y106200D02*
X22832D01*
X22416D01*
Y108699D01*
X21999Y108283D01*
X24082Y106200D02*
X24915D01*
X24498D01*
Y108699D01*
X24082Y108283D01*
X117366Y153183D02*
X116950Y153599D01*
X116116D01*
X115700Y153183D01*
Y151516D01*
X116116Y151100D01*
X116950D01*
X117366Y151516D01*
X118199Y151100D02*
X119032D01*
X118616D01*
Y153599D01*
X118199Y153183D01*
X121948Y151100D02*
X120282D01*
X121948Y152766D01*
Y153183D01*
X121531Y153599D01*
X120698D01*
X120282Y153183D01*
X31817Y69166D02*
X31401Y68750D01*
Y67917D01*
X31817Y67500D01*
X33483D01*
X33900Y67917D01*
Y68750D01*
X33483Y69166D01*
X33900Y69999D02*
Y70832D01*
Y70416D01*
X31401D01*
X31817Y69999D01*
Y72082D02*
X31401Y72498D01*
Y73331D01*
X31817Y73748D01*
X32234D01*
X32650Y73331D01*
Y72915D01*
Y73331D01*
X33067Y73748D01*
X33483D01*
X33900Y73331D01*
Y72498D01*
X33483Y72082D01*
X56117Y158366D02*
X55701Y157950D01*
Y157116D01*
X56117Y156700D01*
X57784D01*
X58200Y157116D01*
Y157950D01*
X57784Y158366D01*
X58200Y159199D02*
Y160032D01*
Y159616D01*
X55701D01*
X56117Y159199D01*
X58200Y162531D02*
X55701D01*
X56950Y161282D01*
Y162948D01*
X54717Y122266D02*
X54301Y121850D01*
Y121017D01*
X54717Y120600D01*
X56384D01*
X56800Y121017D01*
Y121850D01*
X56384Y122266D01*
X56800Y123099D02*
Y123932D01*
Y123516D01*
X54301D01*
X54717Y123099D01*
X54301Y126848D02*
X54717Y126015D01*
X55550Y125182D01*
X56384D01*
X56800Y125598D01*
Y126431D01*
X56384Y126848D01*
X55967D01*
X55550Y126431D01*
Y125182D01*
X48417Y122266D02*
X48001Y121850D01*
Y121017D01*
X48417Y120600D01*
X50084D01*
X50500Y121017D01*
Y121850D01*
X50084Y122266D01*
X50500Y123099D02*
Y123932D01*
Y123516D01*
X48001D01*
X48417Y123099D01*
X48001Y125182D02*
Y126848D01*
X48417D01*
X50084Y125182D01*
X50500D01*
X85817Y160666D02*
X85401Y160250D01*
Y159416D01*
X85817Y159000D01*
X87484D01*
X87900Y159416D01*
Y160250D01*
X87484Y160666D01*
X87900Y161499D02*
Y162332D01*
Y161916D01*
X85401D01*
X85817Y161499D01*
Y163582D02*
X85401Y163998D01*
Y164831D01*
X85817Y165248D01*
X86234D01*
X86650Y164831D01*
X87067Y165248D01*
X87484D01*
X87900Y164831D01*
Y163998D01*
X87484Y163582D01*
X87067D01*
X86650Y163998D01*
X86234Y163582D01*
X85817D01*
X86650Y163998D02*
Y164831D01*
X61117Y158366D02*
X60701Y157950D01*
Y157116D01*
X61117Y156700D01*
X62783D01*
X63200Y157116D01*
Y157950D01*
X62783Y158366D01*
X63200Y159199D02*
Y160032D01*
Y159616D01*
X60701D01*
X61117Y159199D01*
X62783Y161282D02*
X63200Y161698D01*
Y162531D01*
X62783Y162948D01*
X61117D01*
X60701Y162531D01*
Y161698D01*
X61117Y161282D01*
X61534D01*
X61950Y161698D01*
Y162948D01*
X73401Y127583D02*
X72984Y127999D01*
X72151D01*
X71735Y127583D01*
Y125917D01*
X72151Y125500D01*
X72984D01*
X73401Y125917D01*
X75900Y125500D02*
X74234D01*
X75900Y127166D01*
Y127583D01*
X75483Y127999D01*
X74650D01*
X74234Y127583D01*
X76733D02*
X77149Y127999D01*
X77983D01*
X78399Y127583D01*
Y125917D01*
X77983Y125500D01*
X77149D01*
X76733Y125917D01*
Y127583D01*
X80117Y158366D02*
X79701Y157950D01*
Y157116D01*
X80117Y156700D01*
X81783D01*
X82200Y157116D01*
Y157950D01*
X81783Y158366D01*
X82200Y160865D02*
Y159199D01*
X80534Y160865D01*
X80117D01*
X79701Y160449D01*
Y159616D01*
X80117Y159199D01*
X82200Y161698D02*
Y162531D01*
Y162115D01*
X79701D01*
X80117Y161698D01*
X31717Y54166D02*
X31301Y53750D01*
Y52917D01*
X31717Y52500D01*
X33384D01*
X33800Y52917D01*
Y53750D01*
X33384Y54166D01*
X33800Y56249D02*
X31301D01*
X32550Y54999D01*
Y56665D01*
X31717Y57498D02*
X31301Y57915D01*
Y58748D01*
X31717Y59165D01*
X33384D01*
X33800Y58748D01*
Y57915D01*
X33384Y57498D01*
X31717D01*
X21866Y82883D02*
X21450Y83299D01*
X20617D01*
X20200Y82883D01*
Y81217D01*
X20617Y80800D01*
X21450D01*
X21866Y81217D01*
X23949Y80800D02*
Y83299D01*
X22699Y82050D01*
X24365D01*
X25198Y80800D02*
X26031D01*
X25615D01*
Y83299D01*
X25198Y82883D01*
X67066Y30183D02*
X66650Y30599D01*
X65816D01*
X65400Y30183D01*
Y28517D01*
X65816Y28100D01*
X66650D01*
X67066Y28517D01*
X69149Y28100D02*
Y30599D01*
X67899Y29350D01*
X69565D01*
X71648Y28100D02*
Y30599D01*
X70398Y29350D01*
X72065D01*
X112866Y89683D02*
X112450Y90099D01*
X111617D01*
X111200Y89683D01*
Y88016D01*
X111617Y87600D01*
X112450D01*
X112866Y88016D01*
X114949Y87600D02*
Y90099D01*
X113699Y88850D01*
X115365D01*
X116198Y89683D02*
X116615Y90099D01*
X117448D01*
X117865Y89683D01*
Y89266D01*
X117448Y88850D01*
X117865Y88433D01*
Y88016D01*
X117448Y87600D01*
X116615D01*
X116198Y88016D01*
Y88433D01*
X116615Y88850D01*
X116198Y89266D01*
Y89683D01*
X116615Y88850D02*
X117448D01*
X76466Y29983D02*
X76050Y30399D01*
X75217D01*
X74800Y29983D01*
Y28317D01*
X75217Y27900D01*
X76050D01*
X76466Y28317D01*
X78549Y27900D02*
Y30399D01*
X77299Y29150D01*
X78965D01*
X79798Y28317D02*
X80215Y27900D01*
X81048D01*
X81464Y28317D01*
Y29983D01*
X81048Y30399D01*
X80215D01*
X79798Y29983D01*
Y29566D01*
X80215Y29150D01*
X81464D01*
X88800Y16799D02*
Y14300D01*
X90050D01*
X90466Y14717D01*
Y16383D01*
X90050Y16799D01*
X88800D01*
X91299Y16383D02*
X91716Y16799D01*
X92549D01*
X92965Y16383D01*
Y15966D01*
X92549Y15550D01*
X92132D01*
X92549D01*
X92965Y15133D01*
Y14717D01*
X92549Y14300D01*
X91716D01*
X91299Y14717D01*
X4466Y84499D02*
X3633D01*
X4050D01*
Y82416D01*
X3633Y82000D01*
X3216D01*
X2800Y82416D01*
X5299Y82000D02*
Y84499D01*
X6549D01*
X6965Y84083D01*
Y83250D01*
X6549Y82833D01*
X5299D01*
X7798Y82000D02*
X8631D01*
X8215D01*
Y84499D01*
X7798Y84083D01*
X131566Y85499D02*
X130733D01*
X131150D01*
Y83416D01*
X130733Y83000D01*
X130316D01*
X129900Y83416D01*
X132399Y83000D02*
Y85499D01*
X133649D01*
X134065Y85083D01*
Y84250D01*
X133649Y83833D01*
X132399D01*
X136565Y83000D02*
X134898D01*
X136565Y84666D01*
Y85083D01*
X136148Y85499D01*
X135315D01*
X134898Y85083D01*
X123366Y86399D02*
X122533D01*
X122950D01*
Y84316D01*
X122533Y83900D01*
X122116D01*
X121700Y84316D01*
X124199Y83900D02*
Y86399D01*
X125449D01*
X125865Y85983D01*
Y85150D01*
X125449Y84733D01*
X124199D01*
X126698Y85983D02*
X127115Y86399D01*
X127948D01*
X128365Y85983D01*
Y85566D01*
X127948Y85150D01*
X127531D01*
X127948D01*
X128365Y84733D01*
Y84316D01*
X127948Y83900D01*
X127115D01*
X126698Y84316D01*
X18200Y50499D02*
Y48000D01*
X19866D01*
X20699D02*
X21532D01*
X21116D01*
Y50499D01*
X20699Y50083D01*
X88300Y21899D02*
Y19400D01*
X89966D01*
X92465D02*
X90799D01*
X92465Y21066D01*
Y21483D01*
X92049Y21899D01*
X91216D01*
X90799Y21483D01*
X57500Y12399D02*
Y9900D01*
X59166D01*
X59999Y11983D02*
X60416Y12399D01*
X61249D01*
X61665Y11983D01*
Y11566D01*
X61249Y11150D01*
X60832D01*
X61249D01*
X61665Y10733D01*
Y10317D01*
X61249Y9900D01*
X60416D01*
X59999Y10317D01*
X4800Y129599D02*
Y127100D01*
X6466D01*
X8965Y129599D02*
X7299D01*
Y127100D01*
X8965D01*
X7299Y128350D02*
X8132D01*
X9798Y129599D02*
Y127100D01*
X11048D01*
X11464Y127516D01*
Y129183D01*
X11048Y129599D01*
X9798D01*
X12298Y127100D02*
X13131D01*
X12714D01*
Y129599D01*
X12298Y129183D01*
X103401Y159100D02*
X105900D01*
Y160766D01*
X103401Y163265D02*
Y161599D01*
X105900D01*
Y163265D01*
X104650Y161599D02*
Y162432D01*
X103401Y164098D02*
X105900D01*
Y165348D01*
X105483Y165764D01*
X103817D01*
X103401Y165348D01*
Y164098D01*
X105900Y168264D02*
Y166598D01*
X104234Y168264D01*
X103817D01*
X103401Y167847D01*
Y167014D01*
X103817Y166598D01*
X34601Y159800D02*
X37100D01*
Y161466D01*
X34601Y163965D02*
Y162299D01*
X37100D01*
Y163965D01*
X35850Y162299D02*
Y163132D01*
X34601Y164798D02*
X37100D01*
Y166048D01*
X36683Y166464D01*
X35017D01*
X34601Y166048D01*
Y164798D01*
X35017Y167298D02*
X34601Y167714D01*
Y168547D01*
X35017Y168964D01*
X35434D01*
X35850Y168547D01*
Y168131D01*
Y168547D01*
X36267Y168964D01*
X36683D01*
X37100Y168547D01*
Y167714D01*
X36683Y167298D01*
X14100Y150999D02*
Y148500D01*
X15766D01*
X16599D02*
Y150999D01*
X17432Y150166D01*
X18265Y150999D01*
Y148500D01*
X19098D02*
X19931D01*
X19515D01*
Y150999D01*
X19098Y150583D01*
X8966Y106116D02*
Y107783D01*
X8550Y108199D01*
X7717D01*
X7300Y107783D01*
Y106116D01*
X7717Y105700D01*
X8550D01*
X8133Y106533D02*
X8966Y105700D01*
X8550D02*
X8966Y106116D01*
X9799Y105700D02*
X10632D01*
X10216D01*
Y108199D01*
X9799Y107783D01*
X83466Y19816D02*
Y21483D01*
X83050Y21899D01*
X82217D01*
X81800Y21483D01*
Y19816D01*
X82217Y19400D01*
X83050D01*
X82633Y20233D02*
X83466Y19400D01*
X83050D02*
X83466Y19816D01*
X85965Y19400D02*
X84299D01*
X85965Y21066D01*
Y21483D01*
X85549Y21899D01*
X84716D01*
X84299Y21483D01*
X24100Y86300D02*
X21601D01*
Y87550D01*
X22017Y87966D01*
X22850D01*
X23267Y87550D01*
Y86300D01*
Y87133D02*
X24100Y87966D01*
Y88799D02*
Y89632D01*
Y89216D01*
X21601D01*
X22017Y88799D01*
X5300Y86200D02*
X2801D01*
Y87450D01*
X3217Y87866D01*
X4050D01*
X4467Y87450D01*
Y86200D01*
Y87033D02*
X5300Y87866D01*
Y90365D02*
Y88699D01*
X3634Y90365D01*
X3217D01*
X2801Y89949D01*
Y89116D01*
X3217Y88699D01*
X94100Y159100D02*
X91601D01*
Y160350D01*
X92017Y160766D01*
X92850D01*
X93267Y160350D01*
Y159100D01*
Y159933D02*
X94100Y160766D01*
X92017Y161599D02*
X91601Y162016D01*
Y162849D01*
X92017Y163265D01*
X92434D01*
X92850Y162849D01*
Y162432D01*
Y162849D01*
X93267Y163265D01*
X93683D01*
X94100Y162849D01*
Y162016D01*
X93683Y161599D01*
X87300Y118800D02*
Y121299D01*
X88550D01*
X88966Y120883D01*
Y120050D01*
X88550Y119633D01*
X87300D01*
X88133D02*
X88966Y118800D01*
X91049D02*
Y121299D01*
X89799Y120050D01*
X91465D01*
X46400Y24400D02*
X43901D01*
Y25650D01*
X44317Y26066D01*
X45150D01*
X45567Y25650D01*
Y24400D01*
Y25233D02*
X46400Y26066D01*
X43901Y28565D02*
Y26899D01*
X45150D01*
X44734Y27732D01*
Y28149D01*
X45150Y28565D01*
X45983D01*
X46400Y28149D01*
Y27316D01*
X45983Y26899D01*
X72035Y116500D02*
Y118999D01*
X73284D01*
X73701Y118583D01*
Y117750D01*
X73284Y117333D01*
X72035D01*
X72868D02*
X73701Y116500D01*
X76200Y118999D02*
X75367Y118583D01*
X74534Y117750D01*
Y116917D01*
X74950Y116500D01*
X75783D01*
X76200Y116917D01*
Y117333D01*
X75783Y117750D01*
X74534D01*
X71900Y120900D02*
Y123399D01*
X73150D01*
X73566Y122983D01*
Y122150D01*
X73150Y121733D01*
X71900D01*
X72733D02*
X73566Y120900D01*
X74399Y123399D02*
X76065D01*
Y122983D01*
X74399Y121317D01*
Y120900D01*
X87800Y14300D02*
X85301D01*
Y15550D01*
X85717Y15966D01*
X86550D01*
X86967Y15550D01*
Y14300D01*
Y15133D02*
X87800Y15966D01*
X87384Y16799D02*
X87800Y17216D01*
Y18049D01*
X87384Y18465D01*
X85717D01*
X85301Y18049D01*
Y17216D01*
X85717Y16799D01*
X86134D01*
X86550Y17216D01*
Y18465D01*
X46700Y400D02*
Y2899D01*
X47950D01*
X48366Y2483D01*
Y1650D01*
X47950Y1233D01*
X46700D01*
X47533D02*
X48366Y400D01*
X49199D02*
X50032D01*
X49616D01*
Y2899D01*
X49199Y2483D01*
X51282D02*
X51698Y2899D01*
X52531D01*
X52948Y2483D01*
Y817D01*
X52531Y400D01*
X51698D01*
X51282Y817D01*
Y2483D01*
X22700Y126100D02*
Y128599D01*
X23950D01*
X24366Y128183D01*
Y127350D01*
X23950Y126933D01*
X22700D01*
X23533D02*
X24366Y126100D01*
X25199D02*
Y128599D01*
X26865Y126100D01*
Y128599D01*
X27698Y126100D02*
X28531D01*
X28115D01*
Y128599D01*
X27698Y128183D01*
X107200Y110900D02*
Y113399D01*
X108450D01*
X108866Y112983D01*
Y112150D01*
X108450Y111733D01*
X107200D01*
X108033D02*
X108866Y110900D01*
X109699D02*
Y113399D01*
X111365Y110900D01*
Y113399D01*
X113865Y110900D02*
X112198D01*
X113865Y112566D01*
Y112983D01*
X113448Y113399D01*
X112615D01*
X112198Y112983D01*
X111000Y105500D02*
Y107999D01*
X112250D01*
X112666Y107583D01*
Y106750D01*
X112250Y106333D01*
X111000D01*
X111833D02*
X112666Y105500D01*
X113499D02*
Y107999D01*
X115165Y105500D01*
Y107999D01*
X115998Y107583D02*
X116415Y107999D01*
X117248D01*
X117665Y107583D01*
Y107166D01*
X117248Y106750D01*
X116831D01*
X117248D01*
X117665Y106333D01*
Y105917D01*
X117248Y105500D01*
X116415D01*
X115998Y105917D01*
X49400Y102099D02*
Y100016D01*
X49817Y99600D01*
X50650D01*
X51066Y100016D01*
Y102099D01*
X51899Y99600D02*
X52732D01*
X52316D01*
Y102099D01*
X51899Y101683D01*
X61800Y128799D02*
Y126716D01*
X62217Y126300D01*
X63050D01*
X63466Y126716D01*
Y128799D01*
X65965Y126300D02*
X64299D01*
X65965Y127966D01*
Y128383D01*
X65549Y128799D01*
X64716D01*
X64299Y128383D01*
X133700Y135499D02*
Y133416D01*
X134116Y133000D01*
X134950D01*
X135366Y133416D01*
Y135499D01*
X137865D02*
X136199D01*
Y134250D01*
X137032Y134666D01*
X137449D01*
X137865Y134250D01*
Y133416D01*
X137449Y133000D01*
X136616D01*
X136199Y133416D01*
X55400Y29999D02*
Y27916D01*
X55817Y27500D01*
X56650D01*
X57066Y27916D01*
Y29999D01*
X57899Y29583D02*
X58316Y29999D01*
X59149D01*
X59565Y29583D01*
Y29166D01*
X59149Y28750D01*
X59565Y28333D01*
Y27916D01*
X59149Y27500D01*
X58316D01*
X57899Y27916D01*
Y28333D01*
X58316Y28750D01*
X57899Y29166D01*
Y29583D01*
X58316Y28750D02*
X59149D01*
X104200Y24699D02*
X105866Y22200D01*
Y24699D02*
X104200Y22200D01*
X106699D02*
X107532D01*
X107116D01*
Y24699D01*
X106699Y24283D01*
X39100Y34599D02*
X40766Y32100D01*
Y34599D02*
X39100Y32100D01*
X42849D02*
Y34599D01*
X41599Y33350D01*
X43265D01*
X30800Y65199D02*
Y64783D01*
X31633Y63950D01*
X32466Y64783D01*
Y65199D01*
X31633Y63950D02*
Y62700D01*
X33299D02*
X34132D01*
X33716D01*
Y65199D01*
X33299Y64783D01*
D12*
X110260Y91020D02*
G03*
X110260Y91020I-984J0D01*
G01*
X47756Y87728D02*
G03*
X47756Y87728I-984J0D01*
G01*
X106260Y114520D02*
G03*
X106260Y114520I-984J0D01*
G01*
X19754Y123224D02*
G03*
X19754Y123224I-984J0D01*
G01*
X107307Y94563D02*
Y102437D01*
X120693Y94563D02*
Y102437D01*
X107307Y98500D02*
X120693D01*
X82150Y17453D02*
X84512D01*
Y14303D02*
Y17453D01*
X73488D02*
X75850D01*
X73488Y14303D02*
Y17453D01*
X78213Y11941D02*
X79787D01*
X56221Y98752D02*
Y100721D01*
X66063Y98752D02*
Y102689D01*
X46378Y98752D02*
Y102689D01*
X75906Y98752D02*
Y100721D01*
X85748Y98752D02*
Y102689D01*
X104252Y88122D02*
X106220D01*
X104252Y78280D02*
X108189D01*
X104252Y68437D02*
X106220D01*
X104252Y48752D02*
X106220D01*
X104252Y58595D02*
X108189D01*
X83780Y28280D02*
Y30248D01*
X73937Y26311D02*
Y30248D01*
X93622Y26311D02*
Y30248D01*
X64095Y28280D02*
Y30248D01*
X54252Y26311D02*
Y30248D01*
X33779Y40878D02*
X35748D01*
X31800Y50721D02*
X36000D01*
X33779Y60563D02*
X35748D01*
X31811Y70406D02*
X35748D01*
X33779Y80248D02*
X35748D01*
X44803Y88910D02*
X45591Y89697D01*
X44803Y39303D02*
Y88910D01*
Y39303D02*
X95197D01*
Y89697D01*
X45591D02*
X95197D01*
X103307Y118063D02*
Y125937D01*
X116693Y118063D02*
Y125937D01*
X103307Y122000D02*
X116693D01*
X121095Y133319D02*
X132905D01*
Y135681D01*
X121095D02*
X132905D01*
X121095Y133319D02*
Y135681D01*
X53594Y20181D02*
X65405D01*
X53594Y17819D02*
Y20181D01*
Y17819D02*
X65405D01*
Y20181D01*
X16650Y101453D02*
X19012D01*
Y98303D02*
Y101453D01*
X7988D02*
X10350D01*
X7988Y98303D02*
Y101453D01*
X12713Y95941D02*
X14287D01*
X22313Y125193D02*
X30187D01*
X22313Y111807D02*
X30187D01*
X26250D02*
Y125193D01*
D13*
X35551Y88122D02*
G03*
X35551Y88122I-984J0D01*
G01*
X120284Y129000D02*
G03*
X120284Y129000I-984J0D01*
G01*
X101496Y133217D02*
G03*
X101496Y148783I7783J7783D01*
G01*
X38504D02*
G03*
X38504Y133217I-7783J-7783D01*
G01*
X64421Y28842D02*
G03*
X64421Y28842I-984J0D01*
G01*
X11562Y118500D02*
G03*
X11562Y118500I-2062J0D01*
G01*
X116900Y172000D02*
X119900D01*
X118400Y170500D02*
Y173500D01*
X21600Y170500D02*
Y173500D01*
X20100Y172000D02*
X23100D01*
X115791Y12870D02*
X123400D01*
X100900Y23878D02*
X102000Y21979D01*
X103300Y23878D01*
X100900D02*
X103300D01*
X88109Y-130D02*
X125891D01*
X88109Y12870D02*
X98209D01*
X93700D02*
Y20978D01*
X120300Y12870D02*
Y20978D01*
X93700D02*
X120300D01*
X110200Y-3022D02*
X111600Y-1622D01*
X109600D02*
X111600D01*
Y-3621D02*
Y-1622D01*
X106200Y-7022D02*
X110200Y-3022D01*
X102100Y-7022D02*
X106200D01*
X131000Y62000D02*
X136000D01*
X128500Y64500D02*
X131000Y62000D01*
X136000Y52000D02*
X138500Y49500D01*
X131000Y32000D02*
X136000D01*
X128500Y29500D02*
X131000Y32000D01*
X136000Y22000D02*
X138500Y19500D01*
Y14500D02*
Y19500D01*
X128500Y4500D02*
X131000Y2000D01*
X136000Y62000D02*
X138500Y64500D01*
X128500Y59500D02*
X131000Y62000D01*
X128500Y54500D02*
Y59500D01*
X136000Y32000D02*
X138500Y34500D01*
X128500Y24500D02*
Y29500D01*
X131000Y2000D02*
X136000D01*
X138500Y64500D02*
Y69500D01*
X128500Y54500D02*
X131000Y52000D01*
X136000Y42000D02*
X138500Y39500D01*
Y34500D02*
Y39500D01*
X128500Y24500D02*
X131000Y22000D01*
X138500Y4500D02*
Y9500D01*
X136000Y2000D02*
X138500Y4500D01*
X136000Y72000D02*
X138500Y69500D01*
X131000Y52000D02*
X136000D01*
X128500Y74500D02*
X131000Y72000D01*
X128500Y74500D02*
Y79500D01*
Y44500D02*
X131000Y42000D01*
X136000Y22000D02*
X138500Y24500D01*
X131000Y22000D02*
X136000D01*
X138500Y54500D02*
Y59500D01*
X136000Y52000D02*
X138500Y54500D01*
X131000Y72000D02*
X136000D01*
X128500Y79500D02*
X131000Y82000D01*
Y42000D02*
X136000D01*
X138500Y24500D02*
Y29500D01*
X136000Y62000D02*
X138500Y59500D01*
X136000Y72000D02*
X138500Y74500D01*
Y44500D02*
Y49500D01*
X136000Y82000D02*
X138500Y79500D01*
X136000Y42000D02*
X138500Y44500D01*
X131000Y82000D02*
X136000D01*
Y32000D02*
X138500Y29500D01*
X128500Y69500D02*
X131000Y72000D01*
X138500Y74500D02*
Y79500D01*
X128500Y44500D02*
Y49500D01*
Y39500D02*
X131000Y42000D01*
X128500Y14500D02*
Y19500D01*
Y14500D02*
X131000Y12000D01*
X136000D01*
X128500Y4500D02*
Y9500D01*
Y64500D02*
Y69500D01*
Y49500D02*
X131000Y52000D01*
X128500Y34500D02*
Y39500D01*
Y34500D02*
X131000Y32000D01*
X128500Y19500D02*
X131000Y22000D01*
X136000Y12000D02*
X138500Y14500D01*
X136000Y12000D02*
X138500Y9500D01*
X128500D02*
X131000Y12000D01*
X113500Y79500D02*
X116000Y82000D01*
X121000D01*
Y62000D02*
X123500Y64500D01*
Y69500D01*
X113500Y39500D02*
X116000Y42000D01*
X121000D01*
X116000Y52000D02*
X121000D01*
X123500Y49500D01*
X113500Y74500D02*
X116000Y72000D01*
X121000Y22000D02*
X123500Y24500D01*
X113500Y74500D02*
Y79500D01*
X123500Y74500D02*
Y79500D01*
X116000Y72000D02*
X121000D01*
X116000Y32000D02*
X121000D01*
X123500Y34500D01*
X121000Y62000D02*
X123500Y59500D01*
X113500Y54500D02*
X116000Y52000D01*
X113500Y49500D02*
X116000Y52000D01*
X113500Y69500D02*
X116000Y72000D01*
X113500Y24500D02*
Y29500D01*
X121000Y72000D02*
X123500Y69500D01*
X113500Y64500D02*
X116000Y62000D01*
X113500Y59500D02*
X116000Y62000D01*
X121000Y42000D02*
X123500Y39500D01*
X113500Y29500D02*
X116000Y32000D01*
Y62000D02*
X121000D01*
X113500Y44500D02*
X116000Y42000D01*
X123500Y54500D02*
Y59500D01*
X113500Y24500D02*
X116000Y22000D01*
X121000D01*
X113500Y64500D02*
Y69500D01*
X123500Y24500D02*
Y29500D01*
X113500Y34500D02*
X116000Y32000D01*
X121000D02*
X123500Y29500D01*
X113500Y54500D02*
Y59500D01*
Y44500D02*
Y49500D01*
X121000Y52000D02*
X123500Y54500D01*
X121000Y82000D02*
X123500Y79500D01*
X121000Y72000D02*
X123500Y74500D01*
X113500Y34500D02*
Y39500D01*
X123500Y34500D02*
Y39500D01*
X121000Y42000D02*
X123500Y44500D01*
Y49500D01*
X15689Y197D02*
X39311D01*
X26319D02*
Y11614D01*
X19232Y26181D02*
Y30512D01*
X36161D02*
X39311D01*
X36161Y26181D02*
Y30512D01*
X15689D02*
X18839D01*
X15689Y197D02*
Y30512D01*
X26319Y11614D02*
X28681D01*
X39311Y197D02*
Y30512D01*
X28681Y197D02*
Y11614D01*
X18839Y30512D02*
X19232D01*
X81800Y128300D02*
X83165D01*
X81800Y115600D02*
Y128300D01*
X70600Y115600D02*
X81800D01*
X70600D02*
Y128300D01*
X101496Y148783D02*
Y172496D01*
Y109504D02*
Y133217D01*
X38504Y109504D02*
Y133217D01*
Y109504D02*
X101496D01*
X38504Y172496D02*
X101496D01*
X38504Y148783D02*
Y172496D01*
X97559Y113441D02*
Y168559D01*
X42441Y113441D02*
X97559D01*
X42441D02*
Y168559D01*
X97559D01*
X76500Y153500D02*
X82000D01*
Y148000D02*
Y153500D01*
X59665Y130468D02*
X80335D01*
X59665Y151532D02*
X80335D01*
X59665Y130468D02*
Y151532D01*
X80335Y130468D02*
Y151532D01*
X44276Y146512D02*
Y147669D01*
Y146512D02*
X53724D01*
Y147669D01*
X45000Y158512D02*
X53000D01*
X45000Y156512D02*
X53000D01*
X58000Y9000D02*
X61000D01*
X58000Y1000D02*
X61000D01*
X4000Y61000D02*
X9000D01*
X1500Y63500D02*
X4000Y61000D01*
X9000Y51000D02*
X11500Y48500D01*
X4000Y31000D02*
X9000D01*
X1500Y28500D02*
X4000Y31000D01*
X9000Y21000D02*
X11500Y18500D01*
Y13500D02*
Y18500D01*
X1500Y3500D02*
X4000Y1000D01*
X9000Y61000D02*
X11500Y63500D01*
X1500Y58500D02*
X4000Y61000D01*
X1500Y53500D02*
Y58500D01*
X9000Y31000D02*
X11500Y33500D01*
X1500Y23500D02*
Y28500D01*
X4000Y1000D02*
X9000D01*
X11500Y63500D02*
Y68500D01*
X1500Y53500D02*
X4000Y51000D01*
X9000Y41000D02*
X11500Y38500D01*
Y33500D02*
Y38500D01*
X1500Y23500D02*
X4000Y21000D01*
X11500Y3500D02*
Y8500D01*
X9000Y1000D02*
X11500Y3500D01*
X9000Y71000D02*
X11500Y68500D01*
X4000Y51000D02*
X9000D01*
X1500Y73500D02*
X4000Y71000D01*
X1500Y73500D02*
Y78500D01*
Y43500D02*
X4000Y41000D01*
X9000Y21000D02*
X11500Y23500D01*
X4000Y21000D02*
X9000D01*
X11500Y53500D02*
Y58500D01*
X9000Y51000D02*
X11500Y53500D01*
X4000Y71000D02*
X9000D01*
X1500Y78500D02*
X4000Y81000D01*
Y41000D02*
X9000D01*
X11500Y23500D02*
Y28500D01*
X9000Y61000D02*
X11500Y58500D01*
X9000Y71000D02*
X11500Y73500D01*
Y43500D02*
Y48500D01*
X9000Y81000D02*
X11500Y78500D01*
X9000Y41000D02*
X11500Y43500D01*
X4000Y81000D02*
X9000D01*
Y31000D02*
X11500Y28500D01*
X1500Y68500D02*
X4000Y71000D01*
X11500Y73500D02*
Y78500D01*
X1500Y43500D02*
Y48500D01*
Y38500D02*
X4000Y41000D01*
X1500Y13500D02*
Y18500D01*
Y13500D02*
X4000Y11000D01*
X9000D01*
X1500Y3500D02*
Y8500D01*
Y63500D02*
Y68500D01*
Y48500D02*
X4000Y51000D01*
X1500Y33500D02*
Y38500D01*
Y33500D02*
X4000Y31000D01*
X1500Y18500D02*
X4000Y21000D01*
X9000Y11000D02*
X11500Y13500D01*
X9000Y11000D02*
X11500Y8500D01*
X1500D02*
X4000Y11000D01*
X26776Y88500D02*
Y89657D01*
Y88500D02*
X36224D01*
Y89657D01*
X27500Y100500D02*
X35500D01*
X27500Y98500D02*
X35500D01*
X16500Y112000D02*
X19000D01*
Y114500D01*
X3988Y112000D02*
Y112937D01*
Y112000D02*
X15012D01*
Y112937D01*
Y124063D02*
Y125000D01*
X3988D02*
X15012D01*
X3988Y124063D02*
Y125000D01*
D14*
X15331Y73579D02*
G03*
X15331Y73579I-591J0D01*
G01*
D15*
X81862Y1441D02*
X83436D01*
X76350D02*
X81862D01*
Y6559D02*
X83436D01*
X76350D02*
X81862D01*
X80862Y1441D02*
Y6559D01*
X44276Y147669D02*
Y153575D01*
X53724Y147669D02*
Y153575D01*
X44276Y147669D02*
X53724D01*
Y161449D02*
Y167355D01*
X44276D02*
X53724D01*
X44276Y161449D02*
Y167355D01*
X16709Y57831D02*
Y74366D01*
X30094D01*
X16709Y57831D02*
X30094D01*
Y74366D01*
X26776Y89657D02*
Y95563D01*
X36224Y89657D02*
Y95563D01*
X26776Y89657D02*
X36224D01*
Y103437D02*
Y109343D01*
X26776D02*
X36224D01*
X26776Y103437D02*
Y109343D01*
D16*
X107169Y155800D02*
Y161500D01*
Y155800D02*
X115831D01*
Y161500D01*
X107169Y168500D02*
Y174200D01*
X115831D01*
Y168500D02*
Y174200D01*
X24169Y155800D02*
Y161500D01*
Y155800D02*
X32831D01*
Y161500D01*
X24169Y168500D02*
Y174200D01*
X32831D01*
Y168500D02*
Y174200D01*
D17*
X109734Y54813D02*
X109281Y54360D01*
Y53453D01*
X109734Y53000D01*
X110187D01*
X110640Y53453D01*
Y54360D01*
X111094Y54813D01*
X111547D01*
X112000Y54360D01*
Y53453D01*
X111547Y53000D01*
X109281Y55719D02*
X112000D01*
X111094Y56625D01*
X112000Y57532D01*
X109281D01*
Y58438D02*
X112000D01*
Y59798D01*
X111547Y60251D01*
X109734D01*
X109281Y59798D01*
Y58438D01*
X109734Y64813D02*
X109281Y64360D01*
Y63453D01*
X109734Y63000D01*
X110187D01*
X110640Y63453D01*
Y64360D01*
X111094Y64813D01*
X111547D01*
X112000Y64360D01*
Y63453D01*
X111547Y63000D01*
X109281Y65719D02*
X112000D01*
X111094Y66625D01*
X112000Y67532D01*
X109281D01*
X109734Y70251D02*
X109281Y69798D01*
Y68891D01*
X109734Y68438D01*
X111547D01*
X112000Y68891D01*
Y69798D01*
X111547Y70251D01*
X127500Y74500D02*
X124781D01*
Y75860D01*
X125234Y76313D01*
X126140D01*
X126594Y75860D01*
Y74500D01*
Y75406D02*
X127500Y76313D01*
X125234Y79032D02*
X124781Y78579D01*
Y77672D01*
X125234Y77219D01*
X125687D01*
X126140Y77672D01*
Y78579D01*
X126594Y79032D01*
X127047D01*
X127500Y78579D01*
Y77672D01*
X127047Y77219D01*
X124781Y79938D02*
Y81751D01*
Y80845D01*
X127500D01*
Y25000D02*
X124781D01*
Y26360D01*
X125234Y26813D01*
X126140D01*
X126594Y26360D01*
Y25000D01*
X124781Y27719D02*
Y29532D01*
X125234D01*
X127047Y27719D01*
X127500D01*
X125234Y5313D02*
X124781Y4860D01*
Y3953D01*
X125234Y3500D01*
X127047D01*
X127500Y3953D01*
Y4860D01*
X127047Y5313D01*
X126140D01*
Y4406D01*
X127500Y6219D02*
X124781D01*
X127500Y8032D01*
X124781D01*
Y8938D02*
X127500D01*
Y10298D01*
X127047Y10751D01*
X125234D01*
X124781Y10298D01*
Y8938D01*
Y13500D02*
X126594D01*
X127500Y14406D01*
X126594Y15313D01*
X124781D01*
Y16219D02*
Y17126D01*
Y16672D01*
X127500D01*
Y16219D01*
Y17126D01*
Y18485D02*
X124781D01*
X127500Y20298D01*
X124781D01*
X127500Y33500D02*
X124781D01*
Y34860D01*
X125234Y35313D01*
X126140D01*
X126594Y34860D01*
Y33500D01*
X125234Y36219D02*
X124781Y36672D01*
Y37579D01*
X125234Y38032D01*
X125687D01*
X126140Y37579D01*
X126594Y38032D01*
X127047D01*
X127500Y37579D01*
Y36672D01*
X127047Y36219D01*
X126594D01*
X126140Y36672D01*
X125687Y36219D01*
X125234D01*
X126140Y36672D02*
Y37579D01*
X112000Y43500D02*
X109281D01*
Y44860D01*
X109734Y45313D01*
X110640D01*
X111094Y44860D01*
Y43500D01*
Y44406D02*
X112000Y45313D01*
X109734Y48032D02*
X109281Y47579D01*
Y46672D01*
X109734Y46219D01*
X110187D01*
X110640Y46672D01*
Y47579D01*
X111094Y48032D01*
X111547D01*
X112000Y47579D01*
Y46672D01*
X111547Y46219D01*
X109281Y48938D02*
Y50751D01*
Y49845D01*
X112000D01*
X109734Y24813D02*
X109281Y24360D01*
Y23453D01*
X109734Y23000D01*
X111547D01*
X112000Y23453D01*
Y24360D01*
X111547Y24813D01*
X110640D01*
Y23906D01*
X112000Y25719D02*
X109281D01*
X112000Y27532D01*
X109281D01*
Y28438D02*
X112000D01*
Y29798D01*
X111547Y30251D01*
X109734D01*
X109281Y29798D01*
Y28438D01*
X109734Y32500D02*
X109281Y32953D01*
Y33860D01*
X109734Y34313D01*
X110187D01*
X110640Y33860D01*
Y33406D01*
Y33860D01*
X111094Y34313D01*
X111547D01*
X112000Y33860D01*
Y32953D01*
X111547Y32500D01*
X112000Y35219D02*
X111547D01*
Y35672D01*
X112000D01*
Y35219D01*
X109734Y37485D02*
X109281Y37938D01*
Y38845D01*
X109734Y39298D01*
X110187D01*
X110640Y38845D01*
Y38391D01*
Y38845D01*
X111094Y39298D01*
X111547D01*
X112000Y38845D01*
Y37938D01*
X111547Y37485D01*
X110187Y40204D02*
X112000Y41111D01*
X110187Y42017D01*
X125234Y52813D02*
X124781Y52360D01*
Y51453D01*
X125234Y51000D01*
X125687D01*
X126140Y51453D01*
Y52360D01*
X126594Y52813D01*
X127047D01*
X127500Y52360D01*
Y51453D01*
X127047Y51000D01*
X124781Y53719D02*
X125234D01*
X126140Y54625D01*
X125234Y55532D01*
X124781D01*
X126140Y54625D02*
X127500D01*
Y56438D02*
X124781D01*
X127500Y58251D01*
X124781D01*
X127500Y43500D02*
X124781D01*
Y44860D01*
X125234Y45313D01*
X126140D01*
X126594Y44860D01*
Y43500D01*
X127047Y46219D02*
X127500Y46672D01*
Y47579D01*
X127047Y48032D01*
X125234D01*
X124781Y47579D01*
Y46672D01*
X125234Y46219D01*
X125687D01*
X126140Y46672D01*
Y48032D01*
X109734Y74813D02*
X109281Y74360D01*
Y73453D01*
X109734Y73000D01*
X110187D01*
X110640Y73453D01*
Y74360D01*
X111094Y74813D01*
X111547D01*
X112000Y74360D01*
Y73453D01*
X111547Y73000D01*
X109281Y75719D02*
X112000D01*
X111094Y76626D01*
X112000Y77532D01*
X109281D01*
Y79798D02*
Y78891D01*
X109734Y78438D01*
X111547D01*
X112000Y78891D01*
Y79798D01*
X111547Y80251D01*
X109734D01*
X109281Y79798D01*
X15000Y14000D02*
X12281D01*
Y15360D01*
X12734Y15813D01*
X13640D01*
X14094Y15360D01*
Y14000D01*
X12281Y18532D02*
X12734Y17626D01*
X13640Y16719D01*
X14547D01*
X15000Y17172D01*
Y18079D01*
X14547Y18532D01*
X14094D01*
X13640Y18079D01*
Y16719D01*
X15000Y33500D02*
X12281D01*
Y34860D01*
X12734Y35313D01*
X13640D01*
X14094Y34860D01*
Y33500D01*
X15000Y37579D02*
X12281D01*
X13640Y36219D01*
Y38032D01*
X15000Y23500D02*
X12281D01*
Y24860D01*
X12734Y25313D01*
X13640D01*
X14094Y24860D01*
Y23500D01*
X12281Y28032D02*
Y26219D01*
X13640D01*
X13187Y27125D01*
Y27579D01*
X13640Y28032D01*
X14547D01*
X15000Y27579D01*
Y26672D01*
X14547Y26219D01*
X15000Y43500D02*
X12281D01*
Y44860D01*
X12734Y45313D01*
X13640D01*
X14094Y44860D01*
Y43500D01*
X12734Y46219D02*
X12281Y46672D01*
Y47579D01*
X12734Y48032D01*
X13187D01*
X13640Y47579D01*
Y47126D01*
Y47579D01*
X14094Y48032D01*
X14547D01*
X15000Y47579D01*
Y46672D01*
X14547Y46219D01*
X15000Y54000D02*
X12281D01*
Y55360D01*
X12734Y55813D01*
X13640D01*
X14094Y55360D01*
Y54000D01*
X15000Y58532D02*
Y56719D01*
X13187Y58532D01*
X12734D01*
X12281Y58079D01*
Y57172D01*
X12734Y56719D01*
X15000Y64000D02*
X12281D01*
Y65360D01*
X12734Y65813D01*
X13640D01*
X14094Y65360D01*
Y64000D01*
X15000Y66719D02*
Y67625D01*
Y67172D01*
X12281D01*
X12734Y66719D01*
Y2000D02*
X12281Y2453D01*
Y3360D01*
X12734Y3813D01*
X13187D01*
X13640Y3360D01*
Y2906D01*
Y3360D01*
X14094Y3813D01*
X14547D01*
X15000Y3360D01*
Y2453D01*
X14547Y2000D01*
X15000Y4719D02*
X14547D01*
Y5172D01*
X15000D01*
Y4719D01*
X12734Y6985D02*
X12281Y7438D01*
Y8345D01*
X12734Y8798D01*
X13187D01*
X13640Y8345D01*
Y7891D01*
Y8345D01*
X14094Y8798D01*
X14547D01*
X15000Y8345D01*
Y7438D01*
X14547Y6985D01*
X12281Y9704D02*
X14094D01*
X15000Y10610D01*
X14094Y11517D01*
X12281D01*
X15100Y75400D02*
X12381D01*
Y76760D01*
X12834Y77213D01*
X13740D01*
X14194Y76760D01*
Y75400D01*
X12834Y78119D02*
X12381Y78572D01*
Y79479D01*
X12834Y79932D01*
X14647D01*
X15100Y79479D01*
Y78572D01*
X14647Y78119D01*
X12834D01*
D18*
X124951Y60250D02*
X127500D01*
Y61525D01*
X127075Y61949D01*
X126650D01*
X126225Y61525D01*
Y60250D01*
Y61525D01*
X125801Y61949D01*
X125376D01*
X124951Y61525D01*
Y60250D01*
Y64074D02*
Y63224D01*
X125376Y62799D01*
X127075D01*
X127500Y63224D01*
Y64074D01*
X127075Y64499D01*
X125376D01*
X124951Y64074D01*
Y66623D02*
Y65773D01*
X125376Y65348D01*
X127075D01*
X127500Y65773D01*
Y66623D01*
X127075Y67048D01*
X125376D01*
X124951Y66623D01*
Y67897D02*
Y69597D01*
Y68747D01*
X127500D01*
D19*
X26500Y32161D02*
X20715D01*
X23608Y29269D02*
Y35054D01*
X34500Y32161D02*
X28715D01*
M02*
