G04*
G04 #@! TF.GenerationSoftware,Altium Limited,Altium Designer,19.1.8 (144)*
G04*
G04 Layer_Color=16711935*
%FSLAX25Y25*%
%MOIN*%
G70*
G01*
G75*
%ADD104C,0.00394*%
D104*
X91500Y7727D02*
X93599Y4578D01*
Y7727D02*
X91500Y4578D01*
X94649D02*
X95698D01*
X95173D01*
Y7727D01*
X94649Y7202D01*
X67876Y17099D02*
X67351Y16574D01*
Y15525D01*
X67876Y15000D01*
X69975D01*
X70500Y15525D01*
Y16574D01*
X69975Y17099D01*
X70500Y19723D02*
X67351D01*
X68926Y18149D01*
Y20248D01*
X70500Y22872D02*
X67351D01*
X68926Y21297D01*
Y23396D01*
X49924Y139101D02*
X50449Y139626D01*
Y140675D01*
X49924Y141200D01*
X47825D01*
X47300Y140675D01*
Y139626D01*
X47825Y139101D01*
X47300Y138051D02*
Y137002D01*
Y137527D01*
X50449D01*
X49924Y138051D01*
X50449Y135428D02*
Y133328D01*
X49924D01*
X47825Y135428D01*
X47300D01*
X130901Y121376D02*
X131426Y120851D01*
X132475D01*
X133000Y121376D01*
Y123475D01*
X132475Y124000D01*
X131426D01*
X130901Y123475D01*
X129851Y121376D02*
X129327Y120851D01*
X128277D01*
X127752Y121376D01*
Y121901D01*
X128277Y122426D01*
X128802D01*
X128277D01*
X127752Y122950D01*
Y123475D01*
X128277Y124000D01*
X129327D01*
X129851Y123475D01*
X130901Y145376D02*
X131426Y144851D01*
X132475D01*
X133000Y145376D01*
Y147475D01*
X132475Y148000D01*
X131426D01*
X130901Y147475D01*
X129851Y148000D02*
X128802D01*
X129327D01*
Y144851D01*
X129851Y145376D01*
X125128Y148000D02*
X127228D01*
X125128Y145901D01*
Y145376D01*
X125653Y144851D01*
X126703D01*
X127228Y145376D01*
X44624Y13901D02*
X45149Y14426D01*
Y15475D01*
X44624Y16000D01*
X42525D01*
X42000Y15475D01*
Y14426D01*
X42525Y13901D01*
X42000Y10752D02*
Y12851D01*
X44099Y10752D01*
X44624D01*
X45149Y11277D01*
Y12327D01*
X44624Y12851D01*
M02*
