M48
;Layer_Color=9474304
;FILE_FORMAT=2:5
INCH,LZ
;TYPE=PLATED
T1F00S00C0.01200
T4F00S00C0.03150
T5F00S00C0.03937
T6F00S00C0.04000
T7F00S00C0.10000
T8F00S00C0.12992
%
T01
X00367Y00041
X00391
Y00072
X00367
X00391Y00189
Y00223
X0043
Y00189
Y00257
X00385Y003302
X00405Y00372
X0036151
X0029449
X00184Y00335
X00525Y00401
X00608Y00431
X00647
X00682
X00699Y00461
X0073567
X0077233
X00808Y00493
X0084624Y0040215
X0087717
X00909Y00403
X01092Y00421
X01059Y00458
X01046Y00336
Y0027676
X01131Y00248
Y00222
X00881Y00226
X0075449Y0029051
X00637Y00188
X00596
X00555
X00747Y00064
X00775
X01289Y00612
X0125Y00709
X01249Y00769
X0122Y00827
X01136Y00804
X0115575Y0091325
X01235Y00944
X01333Y00971
X0133Y00905
X01326Y00849
X0131Y01048
X0128Y01098
X01231Y01124
X01148Y0113
X01154Y01098
X0115575Y0105476
X0118724
X01192Y01177
X01185Y01225
X0130437Y0118851
X01335Y01152
X0134086Y01225
X01365Y01502
X0130437Y0150149
X01004Y01505
X00978Y01481
X00963Y01421
Y01393
X00966Y01349
X00985Y01308
X01003Y0125543
X00962Y01213
X00963Y01183
X00964Y01038
X00985Y01016
X01022Y00963
X01096Y00914
X01085Y0088
X01112Y00804
X01129Y00781
X0105157Y0074343
X01052Y00704
X01059Y00669
X01057Y00566
X00942Y00567
X00903Y00566
X0086Y00545
X0081
X0076
X00761Y00649
X00805
X00853Y00651
X00829Y00687
X00877Y00743
X00941Y0076311
X0085Y00819
X00851Y00857
X00798Y00883
X00748Y01004
X00723Y01105
X00683Y01118
X0073724Y0116024
X0079Y01212
X00824Y01261
Y01311
X00743Y01312
X0073Y01394
X00713Y01427
X0071424Y0145724
X00684Y01458
X00671Y01392
X00674Y01364
X00599Y01377
Y0133421
X006Y01426
Y0145749
X00578Y01536
X00625
X0065472Y0151528
X007Y01534
X0071378Y01575
X0079878Y015735
X00828Y01548
X00865Y0158899
X00849Y01671
X00755Y0167848
X0067Y0167899
X0049Y0167222
X00405Y01641
X00285Y01538
X0011Y01495
X00052Y01468
Y014025
Y01337
X0006Y01295
X0003988Y0110988
X0004Y01057
X00044Y00865
X0008Y00844
X00081Y00887
X00146Y00836
X00229Y00856
Y00917
X00299Y00882
X0026051Y0079851
X00491Y00842
X00522
Y00885
X00553
X00491
X00623
X00609Y00841
X0059705Y0080805
X0064
X00626Y00699
X00679
X00721
X00679Y00604
X00596
X00468
X00473Y00551
X00484Y00647
X00468Y00683
X0034764Y0060563
X0032Y0058
X00305Y00551
X00347Y00552
X002Y00583
X00241Y01076
X0026Y01095
X00297Y01106
X004Y01088
Y01061
X00374Y01169
Y01199
X0034
X00476Y01223
X00533Y01214
Y01244
X0044602Y0130763
X00477Y01439
X00768Y01514
X0080335Y01489
X00891Y0145
X01031Y01592
X0105605Y0170905
X0111575Y0113025
X00692Y01224
Y01256
X00604Y01073
X00603Y01043
T04
X0023563Y0025
X0031437
T05
X0053012Y0117157
X0084508
T06
X00065Y0006
Y0016
Y0026
Y0036
Y0046
X01185Y0047
Y0037
Y0027
X01335
Y0017
Y0007
Y0037
Y0047
Y0057
Y0067
Y0077
X01185
Y0067
Y0057
X00065Y0056
Y0066
Y0076
T07
X003063Y0141
X010937
T08
X0128Y0163
X0012
M30
