G04*
G04 #@! TF.GenerationSoftware,Altium Limited,Altium Designer,19.1.8 (144)*
G04*
G04 Layer_Physical_Order=1*
G04 Layer_Color=255*
%FSLAX25Y25*%
%MOIN*%
G70*
G01*
G75*
%ADD10C,0.00600*%
%ADD20R,0.01575X0.07874*%
%ADD21R,0.07087X0.07480*%
%ADD22R,0.03740X0.03543*%
%ADD23R,0.03000X0.03740*%
%ADD24R,0.01575X0.04331*%
%ADD25R,0.01968X0.04331*%
%ADD26R,0.03740X0.03000*%
%ADD27R,0.05315X0.03937*%
%ADD28R,0.03000X0.03937*%
%ADD29R,0.03937X0.05512*%
%ADD30R,0.03937X0.03150*%
%ADD31O,0.01102X0.07087*%
%ADD32O,0.07087X0.01102*%
%ADD33R,0.03937X0.03000*%
%ADD34R,0.03937X0.05315*%
%ADD35R,0.02362X0.05512*%
G04:AMPARAMS|DCode=36|XSize=13.39mil|YSize=13.39mil|CornerRadius=6.7mil|HoleSize=0mil|Usage=FLASHONLY|Rotation=270.000|XOffset=0mil|YOffset=0mil|HoleType=Round|Shape=RoundedRectangle|*
%AMROUNDEDRECTD36*
21,1,0.01339,0.00000,0,0,270.0*
21,1,0.00000,0.01339,0,0,270.0*
1,1,0.01339,0.00000,0.00000*
1,1,0.01339,0.00000,0.00000*
1,1,0.01339,0.00000,0.00000*
1,1,0.01339,0.00000,0.00000*
%
%ADD36ROUNDEDRECTD36*%
%ADD37R,0.06299X0.05512*%
%ADD38R,0.06299X0.04724*%
%ADD39R,0.03150X0.07874*%
%ADD40R,0.03543X0.03740*%
%ADD41R,0.04528X0.05512*%
%ADD42R,0.04331X0.01575*%
%ADD43R,0.04331X0.01968*%
%ADD44R,0.04724X0.03740*%
%ADD77C,0.02000*%
%ADD78C,0.01500*%
%ADD79C,0.03000*%
%ADD80C,0.01200*%
%ADD81C,0.01000*%
%ADD82C,0.02500*%
%ADD83C,0.02200*%
%ADD84R,0.03400X0.03800*%
%ADD85R,0.03790X0.03790*%
%ADD86O,0.02362X0.05118*%
%ADD87O,0.03347X0.04134*%
%ADD88P,0.06494X8X22.5*%
%ADD89C,0.05600*%
%ADD90C,0.17500*%
%ADD91C,0.20866*%
%ADD92C,0.02000*%
%ADD93C,0.03937*%
G36*
X23850Y167043D02*
X33150D01*
Y168611D01*
X97744D01*
X106850Y159505D01*
Y156508D01*
X106388Y156316D01*
X106103Y156602D01*
X105276Y157154D01*
X104301Y157348D01*
X95000D01*
Y158268D01*
X89000D01*
Y151870D01*
X83500D01*
Y151449D01*
X80335D01*
X79907Y151877D01*
X71835D01*
Y153400D01*
X71696Y154102D01*
X71298Y154698D01*
X70702Y155096D01*
X70354Y155165D01*
X70404Y155665D01*
X71378D01*
X72000Y155789D01*
X72500Y155546D01*
Y154079D01*
X78500D01*
Y155515D01*
X79878D01*
X80581Y155655D01*
X81176Y156052D01*
X81574Y156648D01*
X81713Y157350D01*
X81574Y158053D01*
X81176Y158648D01*
X80581Y159046D01*
X79878Y159186D01*
X78500D01*
Y160819D01*
X72500D01*
Y159453D01*
X72000Y159212D01*
X71378Y159335D01*
X70000D01*
Y160870D01*
X64000D01*
Y155539D01*
X62604D01*
X61902Y155400D01*
X61306Y155002D01*
X61202Y154898D01*
X60804Y154302D01*
X60665Y153600D01*
X60804Y152898D01*
X61152Y152377D01*
X61067Y152085D01*
X60938Y151877D01*
X59635D01*
Y153600D01*
X59496Y154302D01*
X59098Y154898D01*
X58502Y155296D01*
X57800Y155435D01*
X57098Y155296D01*
X56502Y154898D01*
X56104Y154302D01*
X55965Y153600D01*
Y150400D01*
X56104Y149698D01*
X56502Y149102D01*
X58028Y147576D01*
X58355Y147358D01*
X58609Y147130D01*
X58482Y146717D01*
X58304Y146451D01*
X58165Y145749D01*
X58304Y145047D01*
X58680Y144484D01*
X58742Y144337D01*
Y144012D01*
X58680Y143865D01*
X58304Y143302D01*
X58165Y142600D01*
X58304Y141898D01*
X58609Y141442D01*
X58256Y141070D01*
X52957D01*
Y142105D01*
X48299D01*
X47449Y142956D01*
Y147244D01*
X47949Y147744D01*
X53649D01*
Y156256D01*
X48349D01*
X43049Y161556D01*
Y164100D01*
X42855Y165076D01*
X42302Y165902D01*
X41475Y166455D01*
X40500Y166649D01*
X39524Y166455D01*
X38698Y165902D01*
X38145Y165076D01*
X37951Y164100D01*
Y160500D01*
X38145Y159525D01*
X38698Y158698D01*
X44350Y153045D01*
Y151355D01*
X43098Y150102D01*
X42545Y149276D01*
X42351Y148300D01*
Y141900D01*
X42545Y140925D01*
X43098Y140098D01*
X44642Y138553D01*
Y135169D01*
X49012D01*
X49100Y135151D01*
X52300D01*
Y134330D01*
X57552D01*
X57911Y133830D01*
X57830Y133421D01*
X57969Y132719D01*
X58367Y132123D01*
X58963Y131725D01*
X59602Y131598D01*
X59600Y130300D01*
X60685D01*
Y129580D01*
X57340Y126235D01*
X53300D01*
X52598Y126096D01*
X52002Y125698D01*
X51604Y125102D01*
X51465Y124400D01*
X51604Y123698D01*
X51911Y123238D01*
X51968Y122900D01*
X51911Y122562D01*
X51604Y122102D01*
X51465Y121400D01*
X51604Y120698D01*
X51911Y120239D01*
X51843Y119766D01*
X51786Y119646D01*
X51616Y119575D01*
X51037Y119131D01*
X50594Y118553D01*
X50315Y117879D01*
X50219Y117157D01*
X50315Y116434D01*
X50594Y115761D01*
X51037Y115182D01*
X51616Y114738D01*
X51785Y114668D01*
X51882Y114178D01*
X51400Y113695D01*
X49435Y115660D01*
Y122300D01*
X49296Y123002D01*
X48898Y123598D01*
X48302Y123996D01*
X47600Y124135D01*
X46898Y123996D01*
X46302Y123598D01*
X45904Y123002D01*
X45765Y122300D01*
Y114900D01*
X45904Y114198D01*
X46302Y113602D01*
X48480Y111425D01*
Y98860D01*
X47980Y98708D01*
X47857Y98892D01*
X47178Y99345D01*
X46378Y99505D01*
X45578Y99345D01*
X45210Y99100D01*
X25900D01*
Y105168D01*
X19900D01*
Y103993D01*
X16969D01*
Y106606D01*
X20700D01*
X21578Y106781D01*
X22322Y107278D01*
X24329Y109284D01*
X24826Y110029D01*
X25001Y110907D01*
Y111291D01*
X27551D01*
X27903Y110791D01*
X27865Y110600D01*
X28004Y109898D01*
X28402Y109302D01*
X28998Y108904D01*
X29700Y108765D01*
X30402Y108904D01*
X30998Y109302D01*
X31091Y109396D01*
X31489Y109991D01*
X31629Y110693D01*
Y111291D01*
X33459D01*
Y115090D01*
X37273D01*
X37400Y115065D01*
X38102Y115204D01*
X38698Y115602D01*
X39096Y116198D01*
X39235Y116900D01*
X39096Y117602D01*
X38698Y118198D01*
Y118332D01*
X38792Y118744D01*
X39096Y119198D01*
X39235Y119900D01*
X39096Y120602D01*
X38698Y121198D01*
X35434Y124461D01*
X34839Y124859D01*
X34136Y124999D01*
X33459D01*
Y125709D01*
X20436D01*
X19222Y126922D01*
X18478Y127419D01*
X17600Y127594D01*
X12300D01*
X11422Y127419D01*
X10678Y126922D01*
X8778Y125022D01*
X8350Y124382D01*
X7850Y124483D01*
Y124921D01*
X1931D01*
Y155655D01*
X2431Y155830D01*
X3536Y154536D01*
X4964Y153316D01*
X6566Y152335D01*
X8301Y151616D01*
X10127Y151177D01*
X12000Y151030D01*
X13872Y151177D01*
X15699Y151616D01*
X17434Y152335D01*
X19036Y153316D01*
X20464Y154536D01*
X21684Y155964D01*
X22665Y157566D01*
X23384Y159301D01*
X23850Y159157D01*
Y155232D01*
X26206D01*
Y153800D01*
X26381Y152922D01*
X26878Y152178D01*
X27622Y151681D01*
X28337Y151538D01*
X28363Y151023D01*
X26689Y150516D01*
X24908Y149564D01*
X23347Y148283D01*
X22066Y146722D01*
X21114Y144941D01*
X20528Y143009D01*
X20330Y141000D01*
X20528Y138991D01*
X21114Y137058D01*
X22066Y135278D01*
X23347Y133717D01*
X24908Y132436D01*
X26689Y131484D01*
X28621Y130898D01*
X30630Y130700D01*
X32639Y130898D01*
X34571Y131484D01*
X36352Y132436D01*
X37913Y133717D01*
X39194Y135278D01*
X40146Y137058D01*
X40732Y138991D01*
X40930Y141000D01*
X40732Y143009D01*
X40146Y144941D01*
X39194Y146722D01*
X37913Y148283D01*
X36352Y149564D01*
X34571Y150516D01*
X32639Y151102D01*
X30630Y151300D01*
X29433Y151182D01*
X29359Y151677D01*
X29378Y151681D01*
X30122Y152178D01*
X30619Y152922D01*
X30794Y153800D01*
Y155232D01*
X33150D01*
Y162957D01*
X24010D01*
X23970Y163000D01*
X23823Y164873D01*
X23384Y166699D01*
X22665Y168434D01*
X21684Y170036D01*
X20464Y171464D01*
X19170Y172569D01*
X19345Y173069D01*
X23850D01*
Y167043D01*
D02*
G37*
G36*
X138069Y155655D02*
Y143819D01*
X133500D01*
X133421Y143874D01*
Y143874D01*
X128100D01*
Y151038D01*
X129873Y151177D01*
X131699Y151616D01*
X133434Y152335D01*
X135036Y153316D01*
X136464Y154536D01*
X137569Y155830D01*
X138069Y155655D01*
D02*
G37*
G36*
X77533Y129132D02*
X77672Y128430D01*
X78070Y127834D01*
X81102Y124802D01*
X81102Y124802D01*
X81602Y124302D01*
X82198Y123904D01*
X82531Y123838D01*
Y122600D01*
X95768D01*
Y123249D01*
X97751D01*
Y120097D01*
X97251Y119829D01*
X97002Y119996D01*
X96300Y120135D01*
X91600D01*
X90898Y119996D01*
X90302Y119598D01*
X87748Y117044D01*
X87283Y117286D01*
X87205Y117879D01*
X86926Y118553D01*
X86482Y119131D01*
X85904Y119575D01*
X85231Y119854D01*
X84508Y119949D01*
X83785Y119854D01*
X83112Y119575D01*
X82533Y119131D01*
X82090Y118553D01*
X81811Y117879D01*
X81716Y117157D01*
X81811Y116434D01*
X82090Y115761D01*
X82533Y115182D01*
X83112Y114738D01*
X83785Y114460D01*
X84379Y114381D01*
X84621Y113916D01*
X83040Y112335D01*
X72300D01*
X71598Y112196D01*
X71002Y111798D01*
X70604Y111202D01*
X70465Y110500D01*
X70604Y109798D01*
X71002Y109202D01*
X71200Y109070D01*
Y108000D01*
X71181D01*
Y102081D01*
X70398Y101298D01*
X69802Y101696D01*
X69100Y101835D01*
X66160D01*
X65835Y102160D01*
Y103700D01*
X65696Y104402D01*
X65298Y104998D01*
X61857Y108438D01*
X61777Y109065D01*
X72676Y119964D01*
X73074Y120560D01*
X73213Y121262D01*
Y129206D01*
X73713Y129481D01*
X74300Y129365D01*
X74316Y129368D01*
X74331Y129365D01*
X75033Y129504D01*
X75629Y129902D01*
X75894Y130300D01*
X77533D01*
Y129132D01*
D02*
G37*
G36*
X104598Y150898D02*
X104880Y150709D01*
X104856Y150209D01*
X103648Y149564D01*
X102087Y148283D01*
X100806Y146722D01*
X99854Y144941D01*
X99268Y143009D01*
X99070Y141000D01*
X99268Y138991D01*
X99854Y137058D01*
X100806Y135278D01*
X102087Y133717D01*
X103648Y132436D01*
X104718Y131865D01*
X104742Y131365D01*
X104678Y131322D01*
X103653Y130298D01*
X103156Y129553D01*
X103088Y129209D01*
X102791D01*
Y127837D01*
X101366D01*
X101276Y127898D01*
X100300Y128092D01*
X99325Y127898D01*
X99234Y127837D01*
X95768D01*
Y134000D01*
X89468D01*
Y137365D01*
X96300D01*
X97002Y137504D01*
X97598Y137902D01*
X97996Y138498D01*
X98135Y139200D01*
Y139300D01*
X97996Y140002D01*
X97598Y140598D01*
X97002Y140996D01*
X96300Y141135D01*
X95797Y141035D01*
X89370D01*
Y143219D01*
X89802Y143304D01*
X90398Y143702D01*
X90796Y144298D01*
X90935Y145000D01*
X90961Y145031D01*
X95000D01*
Y152250D01*
X103245D01*
X104598Y150898D01*
D02*
G37*
G36*
X138069Y86080D02*
X137607Y85888D01*
X134398Y89098D01*
X133802Y89496D01*
X133100Y89635D01*
X126819D01*
Y93500D01*
X125284D01*
Y94143D01*
X125335Y94400D01*
X125196Y95102D01*
X124798Y95698D01*
X124202Y96096D01*
X123500Y96235D01*
X122798Y96096D01*
X122202Y95698D01*
X122151Y95647D01*
X121753Y95051D01*
X121709Y94827D01*
X121209Y94876D01*
Y98378D01*
Y105709D01*
X120717D01*
X120608Y106256D01*
X120166Y106918D01*
X119505Y107360D01*
X118724Y107515D01*
X117944Y107360D01*
X117282Y106918D01*
X116841Y106256D01*
X116732Y105709D01*
X116240D01*
Y100304D01*
X115740Y100037D01*
X115502Y100196D01*
X114800Y100335D01*
X114713D01*
Y105709D01*
X114260D01*
Y105875D01*
X114121Y106577D01*
X113723Y107173D01*
X110298Y110598D01*
X109702Y110996D01*
X109115Y111112D01*
X108877Y111582D01*
X109442Y112146D01*
X109445Y112147D01*
X110058Y112055D01*
X110277Y111727D01*
X110302Y111702D01*
X110898Y111304D01*
X111600Y111165D01*
X112302Y111304D01*
X112898Y111702D01*
X112935Y111758D01*
X113500Y111704D01*
X113502Y111702D01*
X114098Y111304D01*
X114800Y111165D01*
X115502Y111304D01*
X116098Y111702D01*
X116496Y112298D01*
X116635Y113000D01*
X116560Y113380D01*
Y114791D01*
X117209D01*
Y119608D01*
X117624Y119886D01*
X117782Y119821D01*
X118500Y119726D01*
X119095D01*
Y118342D01*
X126031D01*
Y126657D01*
X125941D01*
Y131851D01*
X128059D01*
Y125126D01*
X133421D01*
Y133638D01*
X133234D01*
X133095Y134335D01*
X132743Y134862D01*
X133010Y135362D01*
X133421D01*
Y136611D01*
X133500Y137079D01*
X138069D01*
Y86080D01*
D02*
G37*
G36*
X7850Y112079D02*
Y112079D01*
X8310Y111945D01*
X9678Y110578D01*
X9701Y110345D01*
X8138Y108782D01*
X7640Y108038D01*
X7466Y107160D01*
Y98902D01*
X7000Y98819D01*
Y98819D01*
X1931D01*
Y108755D01*
X2431Y109022D01*
X3013Y108633D01*
X3988Y108439D01*
X4964Y108633D01*
X5791Y109186D01*
X6343Y110013D01*
X6537Y110988D01*
Y112079D01*
X7850D01*
X7850Y112079D01*
D02*
G37*
G36*
X104565Y103840D02*
Y100300D01*
X104704Y99598D01*
X104765Y99507D01*
X104464Y99057D01*
X104100Y99129D01*
X99100D01*
X98515Y99013D01*
X98019Y98681D01*
X96213Y96876D01*
X95842Y96976D01*
X95713Y97066D01*
Y97413D01*
X95554Y98214D01*
X95101Y98892D01*
X94422Y99345D01*
X93622Y99505D01*
X92822Y99345D01*
X92638Y99223D01*
X92454Y99345D01*
X92115Y99413D01*
X91951Y99955D01*
X94582Y102586D01*
X95079Y102537D01*
X95102Y102502D01*
X95698Y102104D01*
X96400Y101965D01*
X97102Y102104D01*
X97698Y102502D01*
X99460Y104265D01*
X104140D01*
X104565Y103840D01*
D02*
G37*
G36*
X19900Y98231D02*
Y91931D01*
X20149D01*
X20152Y91926D01*
X19835Y91426D01*
X16900D01*
X16117Y91323D01*
X15387Y91021D01*
X14760Y90540D01*
X14760Y90540D01*
X12260Y88040D01*
X11779Y87413D01*
X11477Y86683D01*
X11374Y85900D01*
Y82800D01*
Y78554D01*
X10874Y78376D01*
X8750Y80500D01*
X4250D01*
X2431Y78681D01*
X1931Y78888D01*
Y91882D01*
X6291D01*
Y90110D01*
X13228D01*
Y98622D01*
X13666Y98772D01*
X16969D01*
Y99405D01*
X19900D01*
Y98231D01*
D02*
G37*
G36*
X104200Y97500D02*
Y88700D01*
X103300Y87800D01*
X97200Y88000D01*
Y95700D01*
X99100Y97600D01*
X104100D01*
X104200Y97500D01*
D02*
G37*
G36*
X28407Y87195D02*
X28602Y86902D01*
X29198Y86504D01*
X29427Y86459D01*
X29476Y86427D01*
X30178Y86287D01*
X34886D01*
X34995Y86154D01*
X35155Y85353D01*
X35277Y85169D01*
X35155Y84985D01*
X34995Y84185D01*
X35155Y83385D01*
X35277Y83201D01*
X35155Y83017D01*
X34995Y82217D01*
X35155Y81416D01*
X35099Y81341D01*
X34800Y80970D01*
Y80970D01*
X34800Y80970D01*
X31974D01*
X28522Y84422D01*
X27778Y84919D01*
X26900Y85094D01*
X21965D01*
X21865Y85594D01*
X22313Y85780D01*
X22406Y85851D01*
X25300D01*
X26276Y86045D01*
X27102Y86598D01*
X27778Y87273D01*
X28407Y87195D01*
D02*
G37*
G36*
X91787Y85591D02*
Y83982D01*
X82490Y74685D01*
X80350D01*
X79648Y74546D01*
X79052Y74148D01*
X66602Y61698D01*
X66204Y61102D01*
X66065Y60400D01*
X66204Y59698D01*
X66602Y59102D01*
X67198Y58704D01*
X67900Y58565D01*
X68602Y58704D01*
X69198Y59102D01*
X73999Y63904D01*
X74643Y63841D01*
X74802Y63602D01*
X75398Y63204D01*
X76100Y63065D01*
X76802Y63204D01*
X77398Y63602D01*
X78295Y64499D01*
X78601Y64406D01*
X78787Y64285D01*
X78804Y64198D01*
X79202Y63602D01*
X81102Y61702D01*
X81698Y61304D01*
X82400Y61165D01*
X86170D01*
X86872Y61304D01*
X87468Y61702D01*
X88430Y62665D01*
X93269D01*
X93420Y62165D01*
X92965Y61861D01*
X89003Y57898D01*
X89002Y57898D01*
X88604Y57302D01*
X88464Y56600D01*
X88604Y55898D01*
X89002Y55302D01*
X89597Y54904D01*
X90300Y54765D01*
X90300D01*
X91002Y54904D01*
X91598Y55302D01*
X91925Y55630D01*
X92569Y55567D01*
X92728Y55328D01*
X92854Y55202D01*
X93450Y54804D01*
X94152Y54665D01*
X94300D01*
X94743Y54753D01*
X94838Y54658D01*
X94997Y53857D01*
X95120Y53673D01*
X94997Y53489D01*
X94838Y52689D01*
X94997Y51889D01*
X95120Y51705D01*
X94997Y51521D01*
X94838Y50721D01*
X94997Y49920D01*
X95120Y49736D01*
X94997Y49552D01*
X94923Y49180D01*
X94398Y48998D01*
X93802Y49396D01*
X93100Y49535D01*
X83160D01*
X82098Y50598D01*
X81502Y50996D01*
X80800Y51135D01*
X80098Y50996D01*
X79502Y50598D01*
X79104Y50002D01*
X78965Y49300D01*
X79104Y48598D01*
X79408Y48143D01*
X79209Y47643D01*
X78285D01*
X78192Y47624D01*
X77936Y47796D01*
X77233Y47935D01*
X76531Y47796D01*
X75936Y47398D01*
X75790Y47179D01*
X75146Y47116D01*
X74864Y47398D01*
X74269Y47796D01*
X73567Y47935D01*
X72864Y47796D01*
X72269Y47398D01*
X72123Y47179D01*
X71479Y47116D01*
X71198Y47398D01*
X70602Y47796D01*
X69900Y47935D01*
X69198Y47796D01*
X68602Y47398D01*
X68204Y46802D01*
X68065Y46100D01*
X68204Y45398D01*
X68602Y44802D01*
X72102Y41302D01*
X72698Y40904D01*
X73400Y40765D01*
X82504D01*
X82821Y40378D01*
X82789Y40215D01*
X82846Y39927D01*
X82812Y39865D01*
X82413Y39542D01*
X81811Y39662D01*
X81011Y39503D01*
X80827Y39380D01*
X80643Y39503D01*
X79843Y39662D01*
X79042Y39503D01*
X78858Y39380D01*
X78674Y39503D01*
X77874Y39662D01*
X77074Y39503D01*
X76890Y39380D01*
X76706Y39503D01*
X75906Y39662D01*
X75105Y39503D01*
X74921Y39380D01*
X74737Y39503D01*
X73937Y39662D01*
X73137Y39503D01*
X72953Y39380D01*
X72769Y39503D01*
X71969Y39662D01*
X71168Y39503D01*
X70984Y39380D01*
X70800Y39503D01*
X70000Y39662D01*
X69200Y39503D01*
X69016Y39380D01*
X68832Y39503D01*
X68032Y39662D01*
X67231Y39503D01*
X67047Y39380D01*
X66863Y39503D01*
X66063Y39662D01*
X65263Y39503D01*
X65079Y39380D01*
X64895Y39503D01*
X64095Y39662D01*
X63294Y39503D01*
X63110Y39380D01*
X62926Y39503D01*
X62126Y39662D01*
X61326Y39503D01*
X61142Y39380D01*
X60958Y39503D01*
X60158Y39662D01*
X59357Y39503D01*
X59173Y39380D01*
X58989Y39503D01*
X58189Y39662D01*
X57573Y39540D01*
X57154Y39871D01*
X57135Y39900D01*
Y59616D01*
X57597Y59807D01*
X58302Y59102D01*
X58898Y58704D01*
X59600Y58565D01*
X60302Y58704D01*
X60898Y59102D01*
X61296Y59698D01*
X61435Y60400D01*
X61296Y61102D01*
X60898Y61698D01*
X59035Y63560D01*
Y82421D01*
X59462Y82816D01*
X59602Y82802D01*
X60198Y82404D01*
X60900Y82265D01*
X62209D01*
X62477Y81765D01*
X62304Y81507D01*
X62165Y80805D01*
X62304Y80102D01*
X62702Y79507D01*
X63298Y79109D01*
X64000Y78969D01*
X64702Y79109D01*
X65298Y79507D01*
X68455Y82665D01*
X80900D01*
X81602Y82804D01*
X82198Y83202D01*
X83434Y84439D01*
X83802Y84402D01*
X84040Y84243D01*
X84104Y83599D01*
X83702Y83198D01*
X83304Y82602D01*
X83165Y81900D01*
X83304Y81198D01*
X83702Y80602D01*
X84298Y80204D01*
X85000Y80065D01*
X85702Y80204D01*
X86298Y80602D01*
X90983Y85287D01*
X91287Y85742D01*
X91787Y85591D01*
D02*
G37*
G36*
X28800Y77656D02*
Y74230D01*
X29506D01*
Y70500D01*
X29680Y69622D01*
X30178Y68878D01*
X30290Y68766D01*
X30099Y68304D01*
X24481D01*
X24016Y68769D01*
Y74685D01*
X23506D01*
X23500Y74700D01*
Y80506D01*
X25950D01*
X28800Y77656D01*
D02*
G37*
G36*
X106791Y97313D02*
Y91291D01*
X107413D01*
X107430Y91205D01*
X107872Y90544D01*
X108116Y90381D01*
X108302Y90102D01*
X108410Y90030D01*
X108458Y89958D01*
X109120Y89516D01*
X109900Y89361D01*
X111839D01*
X112620Y89516D01*
X113281Y89958D01*
X113546Y90222D01*
X114189Y90159D01*
X114277Y90027D01*
X117802Y86502D01*
X118398Y86104D01*
X119100Y85965D01*
X132340D01*
X135965Y82340D01*
Y81589D01*
X135750Y81500D01*
X131250D01*
X129000Y79250D01*
Y75095D01*
X127602Y73698D01*
X127204Y73102D01*
X127065Y72400D01*
Y61200D01*
Y59620D01*
X126750Y59250D01*
X123000D01*
Y79250D01*
X120750Y81500D01*
X116250D01*
X114000Y79250D01*
Y76949D01*
X113538Y76757D01*
X109257Y81038D01*
X109449Y81500D01*
X115319D01*
Y87500D01*
X108579D01*
Y86224D01*
X104597D01*
X104446Y86724D01*
X104566Y86903D01*
X105281Y87619D01*
X105613Y88115D01*
X105729Y88700D01*
Y97500D01*
X105688Y97710D01*
X106149Y97956D01*
X106791Y97313D01*
D02*
G37*
G36*
X50365Y82216D02*
Y43760D01*
X49017Y42413D01*
X48619Y41817D01*
X48480Y41115D01*
Y39772D01*
X48346Y39662D01*
X47546Y39503D01*
X46868Y39050D01*
X46414Y38371D01*
X46255Y37571D01*
Y31587D01*
X46216Y31539D01*
X42865D01*
X39942Y34462D01*
X39280Y34904D01*
X38500Y35059D01*
X37720Y34904D01*
X37058Y34462D01*
X36616Y33801D01*
X36461Y33020D01*
X36616Y32240D01*
X37058Y31578D01*
X40578Y28058D01*
X40578Y28058D01*
X41240Y27616D01*
X42020Y27461D01*
X47200D01*
X47980Y27616D01*
X48642Y28058D01*
X49788Y29204D01*
X50022Y29554D01*
X50315Y29495D01*
X51115Y29654D01*
X51299Y29777D01*
X51483Y29654D01*
X52284Y29495D01*
X52535Y29545D01*
X52889Y29192D01*
X52871Y29100D01*
Y26929D01*
X53500Y26300D01*
X53500Y21200D01*
X54519Y20181D01*
X57181Y20181D01*
X58300Y21300D01*
X58300Y26400D01*
X58700Y26800D01*
X60700D01*
X60900Y26600D01*
Y20800D01*
X62200Y19500D01*
X71700D01*
X71800Y19400D01*
Y8900D01*
X71571Y8671D01*
Y8134D01*
X70967Y7529D01*
X67300D01*
X67029Y7751D01*
Y8271D01*
X66400Y8900D01*
Y15800D01*
X64500Y17700D01*
X53409D01*
X52100Y19010D01*
Y21400D01*
X51600Y21900D01*
X47000D01*
Y15382D01*
Y10429D01*
X35800D01*
X35215Y10313D01*
X34719Y9981D01*
X33519Y8781D01*
X33187Y8285D01*
X33071Y7700D01*
Y2200D01*
X32850Y1931D01*
X9834D01*
X9643Y2393D01*
X11000Y3750D01*
Y6221D01*
X16540Y11760D01*
X17020Y12387D01*
X17323Y13117D01*
X17426Y13900D01*
X17426Y13900D01*
Y34579D01*
X22772D01*
Y40681D01*
X35034D01*
X35155Y40078D01*
X35608Y39399D01*
X36286Y38946D01*
X37087Y38787D01*
X43071D01*
X43871Y38946D01*
X44550Y39399D01*
X45003Y40078D01*
X45162Y40878D01*
X45003Y41678D01*
X44880Y41862D01*
X45003Y42046D01*
X45162Y42847D01*
X45003Y43647D01*
X44880Y43831D01*
X45003Y44015D01*
X45162Y44815D01*
X45003Y45615D01*
X44880Y45799D01*
X45003Y45983D01*
X45162Y46784D01*
X45003Y47584D01*
X44880Y47768D01*
X45003Y47952D01*
X45162Y48752D01*
X45003Y49552D01*
X44880Y49736D01*
X45003Y49920D01*
X45162Y50721D01*
X45003Y51521D01*
X44550Y52199D01*
X44267Y52388D01*
Y52990D01*
X44550Y53179D01*
X45003Y53857D01*
X45162Y54658D01*
X45003Y55458D01*
X44880Y55642D01*
X45003Y55826D01*
X45162Y56626D01*
X45003Y57426D01*
X44880Y57610D01*
X45003Y57794D01*
X45162Y58595D01*
X45127Y58770D01*
X45325Y58946D01*
X45581Y59049D01*
X46098Y58704D01*
X46800Y58565D01*
X47502Y58704D01*
X48098Y59102D01*
X48496Y59698D01*
X48635Y60400D01*
X48496Y61102D01*
X48098Y61698D01*
X45966Y63829D01*
X45371Y64227D01*
X45162Y64500D01*
X45003Y65300D01*
X44880Y65484D01*
X45003Y65668D01*
X45162Y66469D01*
X45003Y67269D01*
X44880Y67453D01*
X45003Y67637D01*
X45162Y68437D01*
X45003Y69237D01*
X44550Y69916D01*
X44267Y70105D01*
Y70706D01*
X44550Y70895D01*
X45003Y71574D01*
X45162Y72374D01*
X45003Y73174D01*
X44880Y73358D01*
X45003Y73542D01*
X45162Y74343D01*
X45003Y75143D01*
X44880Y75327D01*
X45003Y75511D01*
X45162Y76311D01*
X45003Y77111D01*
X44880Y77295D01*
X45003Y77479D01*
X45162Y78280D01*
X45627Y78508D01*
X45850Y78553D01*
X46446Y78950D01*
X49903Y82407D01*
X50365Y82216D01*
D02*
G37*
G36*
X22423Y65171D02*
X22787Y64927D01*
Y58000D01*
X22681D01*
Y52000D01*
X29421D01*
Y57512D01*
X30262D01*
X30304Y57298D01*
X30702Y56702D01*
X31298Y56304D01*
X32000Y56165D01*
X32624D01*
X32758Y56023D01*
X32957Y55665D01*
X32865Y55200D01*
X33004Y54498D01*
X33402Y53902D01*
X33998Y53504D01*
X34700Y53365D01*
X35110Y53446D01*
X35267Y53260D01*
X35035Y52760D01*
X34420D01*
X33640Y52604D01*
X32979Y52162D01*
X32978Y52162D01*
X31058Y50242D01*
X30616Y49580D01*
X30461Y48800D01*
Y47500D01*
X17426D01*
Y66173D01*
X21420D01*
X22423Y65171D01*
D02*
G37*
G36*
X109700Y45702D02*
Y30695D01*
X105600Y26595D01*
Y26300D01*
X104900Y25600D01*
X104605D01*
X103573Y24568D01*
X102564Y25578D01*
X102530Y25600D01*
X98900D01*
Y28063D01*
X98581Y28381D01*
X98085Y28713D01*
X97500Y28829D01*
X92200D01*
X92055Y28800D01*
X91787Y29000D01*
X91642Y29272D01*
X91724Y29685D01*
X91724Y29685D01*
Y29903D01*
X92224Y30054D01*
X92822Y29654D01*
X93622Y29495D01*
X94422Y29654D01*
X95101Y30108D01*
X95554Y30786D01*
X95597Y31002D01*
X97500D01*
Y30181D01*
X103500D01*
Y31051D01*
X104600D01*
X105576Y31245D01*
X106402Y31798D01*
X106955Y32625D01*
X107149Y33600D01*
X106955Y34576D01*
X106402Y35402D01*
X105576Y35955D01*
X104600Y36149D01*
X103500D01*
Y36921D01*
X97500D01*
Y36100D01*
X95713D01*
Y37571D01*
X95554Y38371D01*
X95535Y38399D01*
X95769Y38911D01*
X96093Y38970D01*
X96129Y38946D01*
X96929Y38787D01*
X102913D01*
X103714Y38946D01*
X104392Y39399D01*
X104845Y40078D01*
X105005Y40878D01*
X104845Y41678D01*
X104723Y41862D01*
X104845Y42046D01*
X105005Y42847D01*
X104937Y43188D01*
X105362Y43613D01*
X105900Y43506D01*
X106778Y43681D01*
X107522Y44178D01*
X109238Y45894D01*
X109700Y45702D01*
D02*
G37*
G36*
X90200Y27300D02*
Y19000D01*
X87400Y16200D01*
X76900D01*
Y21900D01*
X84200D01*
X86000Y23700D01*
Y27200D01*
X86200Y27400D01*
X90100D01*
X90200Y27300D01*
D02*
G37*
G36*
X98000Y26800D02*
Y25200D01*
X98704Y24496D01*
X101482D01*
X102900Y23078D01*
X102900Y12500D01*
X102600Y12200D01*
X101200D01*
X100800Y12600D01*
Y19300D01*
X99600Y20500D01*
X93000D01*
X92200Y21300D01*
Y27300D01*
X97500D01*
X98000Y26800D01*
D02*
G37*
G36*
X92415Y19087D02*
X93000Y18971D01*
X95344D01*
X95409Y18890D01*
X98260D01*
Y15890D01*
X95825D01*
X95925Y15648D01*
X96353Y15089D01*
X96912Y14661D01*
X97562Y14391D01*
X98260Y14299D01*
X98771Y14367D01*
X99271Y14039D01*
Y12600D01*
X99387Y12015D01*
X99594Y11704D01*
Y10819D01*
X88177D01*
X88129Y11299D01*
Y13700D01*
X88013Y14285D01*
X87992Y14317D01*
X88188Y14923D01*
X88481Y15119D01*
X91281Y17919D01*
X91613Y18415D01*
X91720Y18950D01*
X91864Y19057D01*
X92229Y19211D01*
X92415Y19087D01*
D02*
G37*
G36*
X71900Y28700D02*
X71900Y24500D01*
X74500Y21900D01*
X76100Y20300D01*
X76100Y16000D01*
X76600Y15500D01*
X84800D01*
X86600Y13700D01*
X86600Y2300D01*
X86700Y2200D01*
X82400D01*
X81800Y2800D01*
X81900Y2900D01*
Y6400D01*
X80700Y7600D01*
Y12700D01*
X79500Y13900D01*
X73300D01*
X72400Y14800D01*
X72400Y20000D01*
X71700Y20700D01*
X62600Y20700D01*
X62100Y21200D01*
X62100Y27000D01*
X61200Y27900D01*
X58000Y27900D01*
X57200Y27100D01*
Y21500D01*
X57000Y21300D01*
X54400D01*
Y29100D01*
X55300Y30000D01*
X70600D01*
X71900Y28700D01*
D02*
G37*
G36*
X129000Y49250D02*
Y44750D01*
Y39250D01*
Y34750D01*
Y29250D01*
Y24750D01*
Y19250D01*
Y14750D01*
X131250Y12500D01*
X131900D01*
X132200Y12200D01*
X138069D01*
Y1931D01*
X125823D01*
Y10819D01*
X111846D01*
Y12166D01*
X111300Y12200D01*
Y21547D01*
X108835D01*
Y22640D01*
X112896Y26700D01*
X113300D01*
X114038Y27438D01*
X116800Y30200D01*
X117000D01*
Y31000D01*
X116500D01*
X116250Y31104D01*
Y32500D01*
X120750D01*
X123000Y34750D01*
Y39250D01*
Y44750D01*
Y48905D01*
X124770Y50675D01*
X127575D01*
X129000Y49250D01*
D02*
G37*
G36*
X79100Y13300D02*
X79100Y3100D01*
X78200Y2200D01*
X72884D01*
X71700Y1016D01*
X67784D01*
X67300Y1500D01*
Y6000D01*
X71600D01*
X73100Y7500D01*
X73100Y13300D01*
X79100Y13300D01*
D02*
G37*
G36*
X56600Y1000D02*
X35800D01*
X34600Y2200D01*
Y7700D01*
X35800Y8900D01*
X56600D01*
Y1000D01*
D02*
G37*
G36*
X64300Y16800D02*
X65500Y15600D01*
X65500Y1000D01*
X61300Y1000D01*
Y16800D01*
X64300Y16800D01*
D02*
G37*
%LPC*%
G36*
X32937Y28492D02*
Y26500D01*
X34929D01*
X34756Y26916D01*
X34147Y27710D01*
X33353Y28319D01*
X32937Y28492D01*
D02*
G37*
G36*
X34929Y23500D02*
X32937D01*
Y21508D01*
X33353Y21681D01*
X34147Y22290D01*
X34756Y23084D01*
X34929Y23500D01*
D02*
G37*
G36*
X23563Y29337D02*
X22441Y29189D01*
X21395Y28756D01*
X20496Y28067D01*
X19807Y27169D01*
X19374Y26122D01*
X19226Y25000D01*
X19374Y23877D01*
X19807Y22831D01*
X20496Y21933D01*
X21395Y21244D01*
X22441Y20811D01*
X23563Y20663D01*
X24686Y20811D01*
X25732Y21244D01*
X26630Y21933D01*
X27319Y22831D01*
X27500Y23268D01*
X28041D01*
X28118Y23084D01*
X28727Y22290D01*
X29521Y21681D01*
X29937Y21508D01*
Y25000D01*
Y28492D01*
X29521Y28319D01*
X28727Y27710D01*
X28118Y26916D01*
X28041Y26732D01*
X27500D01*
X27319Y27169D01*
X26630Y28067D01*
X25732Y28756D01*
X24686Y29189D01*
X23563Y29337D01*
D02*
G37*
G36*
X120000Y31000D02*
Y30200D01*
X121300D01*
X120500Y31000D01*
X120000D01*
D02*
G37*
G36*
X117240Y20002D02*
Y18890D01*
X118175D01*
X118075Y19131D01*
X117647Y19690D01*
X117240Y20002D01*
D02*
G37*
G36*
X114240D02*
X113834Y19690D01*
X113405Y19131D01*
X113305Y18890D01*
X114240D01*
Y20002D01*
D02*
G37*
G36*
X118175Y15890D02*
X117240D01*
Y14777D01*
X117647Y15089D01*
X118075Y15648D01*
X118175Y15890D01*
D02*
G37*
G36*
X114240D02*
X113305D01*
X113405Y15648D01*
X113834Y15089D01*
X114240Y14777D01*
Y15890D01*
D02*
G37*
G36*
X135500Y11000D02*
X135000D01*
Y8500D01*
X137500D01*
Y9000D01*
X135500Y11000D01*
D02*
G37*
G36*
X132000D02*
X131500D01*
X129500Y9000D01*
Y8500D01*
X132000D01*
Y11000D01*
D02*
G37*
G36*
X137500Y5500D02*
X135000D01*
Y3000D01*
X135500D01*
X137500Y5000D01*
Y5500D01*
D02*
G37*
G36*
X132000D02*
X129500D01*
Y5000D01*
X131500Y3000D01*
X132000D01*
Y5500D01*
D02*
G37*
%LPD*%
D10*
X80900Y84500D02*
X85748Y89348D01*
X67695Y84500D02*
X80900D01*
X64000Y80805D02*
X67695Y84500D01*
X67100Y86200D02*
X80800D01*
X65000Y84100D02*
X67100Y86200D01*
X60900Y84100D02*
X65000D01*
X80800Y86200D02*
X83780Y89179D01*
X82400Y126100D02*
X82900Y125600D01*
X79368Y129132D02*
X82400Y126100D01*
X81200Y132300D02*
Y135535D01*
X78885Y137850D02*
X81200Y135535D01*
X75905Y137850D02*
X78885D01*
X110900Y60600D02*
X112900Y58600D01*
Y31300D02*
Y58600D01*
X104441Y22841D02*
X112900Y31300D01*
X110900Y60600D02*
Y72600D01*
X112200Y61300D02*
Y73300D01*
Y61300D02*
X114200Y59300D01*
Y30600D02*
Y59300D01*
X107000Y23400D02*
X114200Y30600D01*
X88700Y139200D02*
X96300D01*
X93753Y42847D02*
X99921D01*
X92600Y44000D02*
X93753Y42847D01*
X75667Y44000D02*
X92600D01*
X74331Y131200D02*
Y133126D01*
X55300Y88300D02*
X55600Y88600D01*
X57200Y83400D02*
X60100Y86300D01*
X57200Y62800D02*
Y83400D01*
Y62800D02*
X59600Y60400D01*
X60400Y107300D02*
X64000Y103700D01*
Y101400D02*
Y103700D01*
Y101400D02*
X65400Y100000D01*
X62126Y94421D02*
Y102474D01*
X60300Y104300D02*
X62126Y102474D01*
X65400Y100000D02*
X69100D01*
X58000Y107884D02*
X71378Y121262D01*
X60158Y94421D02*
Y99700D01*
X58000Y101857D02*
Y107884D01*
Y101857D02*
X60158Y99700D01*
X69100Y100000D02*
X70000Y99100D01*
X108200Y98500D02*
X114800D01*
X106400Y100300D02*
X108200Y98500D01*
X106400Y100300D02*
Y104600D01*
X98700Y106100D02*
X104900D01*
X96400Y103800D02*
X98700Y106100D01*
X104900D02*
X106400Y104600D01*
X114800Y98500D02*
X115575Y97725D01*
Y94957D02*
Y97725D01*
X91600Y118300D02*
X96300D01*
X83800Y110500D02*
X91600Y118300D01*
X72300Y110500D02*
X83800D01*
X112425Y102043D02*
Y105875D01*
X109000Y109300D02*
X112425Y105875D01*
X96000Y109300D02*
X109000D01*
X87717Y101016D02*
X96000Y109300D01*
X87717Y94421D02*
Y101016D01*
X94300Y110700D02*
X105400D01*
X83780Y100180D02*
X94300Y110700D01*
X83780Y94421D02*
Y100180D01*
X97043Y107643D02*
X107257D01*
X109276Y105624D01*
X65200Y86300D02*
X68032Y89131D01*
X60100Y86300D02*
X65200D01*
X59200Y88500D02*
X62300D01*
X58189Y89511D02*
X59200Y88500D01*
X58189Y89511D02*
Y94421D01*
X59326Y148874D02*
X62520D01*
X57800Y150400D02*
X59326Y148874D01*
X57800Y150400D02*
Y153600D01*
X59665Y133421D02*
X62520Y136276D01*
X85000Y81900D02*
X89685Y86585D01*
X80500Y64900D02*
X82400Y63000D01*
X86170D01*
X87670Y64500D02*
X99921D01*
X86170Y63000D02*
X87670Y64500D01*
X86668Y66469D02*
X99921D01*
X85300Y65100D02*
X86668Y66469D01*
X66988Y139313D02*
X67100Y139200D01*
X65584Y139313D02*
X66988D01*
X65472Y139425D02*
X65584Y139313D01*
X81200Y132300D02*
X82400Y131100D01*
X74331Y136276D02*
X75905Y137850D01*
X77283Y145724D02*
X80324D01*
X81048Y145000D01*
X89100D01*
X60276Y145724D02*
X62520D01*
X60063Y142637D02*
X62458D01*
X62520Y142575D01*
X94100Y76311D02*
X99921D01*
X65472Y142769D02*
X68503Y145800D01*
X65472Y142575D02*
Y142769D01*
X68400Y145800D02*
X68503D01*
X68425Y148874D02*
Y151675D01*
X66396Y153704D02*
X68425Y151675D01*
X62604Y153704D02*
X66396D01*
X70000Y150252D02*
Y153400D01*
Y150252D02*
X71378Y148874D01*
X53300Y121400D02*
X57800D01*
X65472Y129072D01*
X58100Y124400D02*
X62520Y128820D01*
X53300Y124400D02*
X58100D01*
X70000Y94421D02*
Y99100D01*
X89626Y72374D02*
X99921D01*
X87700Y74300D02*
X89626Y72374D01*
X89685Y86585D02*
Y94421D01*
X87717Y88317D02*
Y94421D01*
X85100Y85700D02*
X87717Y88317D01*
X105194Y70406D02*
X105200Y70400D01*
X99921Y70406D02*
X105194D01*
X104363Y68437D02*
X105900Y66900D01*
X99921Y68437D02*
X104363D01*
X105220Y78280D02*
X110900Y72600D01*
X99921Y78280D02*
X105220D01*
X105252Y80248D02*
X112200Y73300D01*
X99921Y80248D02*
X105252D01*
X113500Y62000D02*
Y74200D01*
X105483Y82217D02*
X113500Y74200D01*
X99921Y82217D02*
X105483D01*
X88705Y71000D02*
X89300Y70406D01*
X82200Y71000D02*
X88705D01*
X76100Y64900D02*
X82200Y71000D01*
X89300Y70406D02*
X99921D01*
X83163Y68437D02*
X99921D01*
X114724Y113076D02*
X114800Y113000D01*
X114724Y113076D02*
Y118457D01*
X111575Y113025D02*
X111600Y113000D01*
X111575Y113025D02*
Y118457D01*
X80350Y72850D02*
X83250D01*
X93622Y83222D02*
Y94421D01*
X83250Y72850D02*
X93622Y83222D01*
X90300Y56600D02*
X90300D01*
X94263Y60563D01*
X99921D01*
X44668Y62532D02*
X46800Y60400D01*
X67900D02*
X80350Y72850D01*
X99951Y58564D02*
X103736D01*
X99921Y58595D02*
X99951Y58564D01*
X103736D02*
X105700Y56600D01*
X52284Y39683D02*
X52500Y39900D01*
X52284Y34579D02*
Y39683D01*
X52200Y43000D02*
Y84200D01*
X50315Y41115D02*
X52200Y43000D01*
X50315Y34579D02*
Y41115D01*
X55300Y39900D02*
Y88300D01*
X54252Y38852D02*
X55300Y39900D01*
X68032Y89131D02*
Y94421D01*
X94026Y56626D02*
X99921D01*
X94152Y56500D02*
X94300D01*
X94026Y56626D02*
X94152Y56500D01*
X89685Y94421D02*
Y100285D01*
X97043Y107643D01*
X109276Y102043D02*
Y105624D01*
X105400Y110700D02*
X108425Y113725D01*
X103700Y112300D02*
X105276Y113876D01*
X92900Y112300D02*
X103700D01*
X79843Y99243D02*
X92900Y112300D01*
X79843Y94421D02*
Y99243D01*
X105276Y113876D02*
Y118457D01*
X108425Y113725D02*
Y118457D01*
X54252Y34579D02*
Y38852D01*
X45443Y86642D02*
X47300Y88500D01*
X44385Y84185D02*
X45443Y85242D01*
Y86642D01*
X47300Y88500D02*
X49100D01*
X48300Y86400D02*
X50400D01*
X44117Y82217D02*
X48300Y86400D01*
X50400D02*
X52200Y88200D01*
X40079Y82217D02*
X44117D01*
X40079Y84185D02*
X44385D01*
X40079Y80248D02*
X45148D01*
X49100Y84200D01*
X52200Y88200D02*
Y88500D01*
X83780Y89179D02*
Y94421D01*
X85748Y89348D02*
Y94421D01*
X79800Y88300D02*
X79843Y88342D01*
Y94421D01*
X47600Y114900D02*
Y122300D01*
X56221Y94421D02*
Y109421D01*
X69200Y122400D01*
X54252Y94421D02*
Y110652D01*
X69200Y125600D01*
X68425Y128125D02*
Y133126D01*
X52284Y111984D02*
X68425Y128125D01*
X52284Y94421D02*
Y111984D01*
X50315Y94421D02*
Y112185D01*
X47600Y114900D02*
X50315Y112185D01*
X137800Y71300D02*
Y83100D01*
X133100Y87800D02*
X137800Y83100D01*
X119100Y87800D02*
X133100D01*
X93522Y40878D02*
X99921D01*
X91800Y42600D02*
X93522Y40878D01*
X73400Y42600D02*
X91800D01*
X40079Y62532D02*
X44668D01*
X34700Y55200D02*
X36126Y56626D01*
X40079D01*
X93100Y47700D02*
X94016Y46784D01*
X82400Y47700D02*
X93100D01*
X80800Y49300D02*
X82400Y47700D01*
X73567Y46100D02*
X75667Y44000D01*
X69900Y46100D02*
X73400Y42600D01*
X92908Y45807D02*
X93900Y44815D01*
X78285Y45807D02*
X92908D01*
X37375Y116925D02*
X37400Y116900D01*
X29793Y116925D02*
X37375D01*
X113500Y62000D02*
X118500Y57000D01*
X62500Y153600D02*
X62604Y153704D01*
X29793Y110693D02*
Y113776D01*
X29700Y110600D02*
X29793Y110693D01*
X30100Y88200D02*
X30178Y88122D01*
X40079D01*
X104441Y16110D02*
Y22841D01*
X34136Y123164D02*
X37400Y119900D01*
X29854Y123164D02*
X34136D01*
X62520Y128820D02*
Y133126D01*
X130740Y139618D02*
X131571Y140449D01*
X96300Y139200D02*
Y139300D01*
X86000Y136500D02*
X88700Y139200D01*
X128900Y61200D02*
Y72400D01*
Y57400D02*
Y61200D01*
X115575Y91325D02*
X119100Y87800D01*
X123449Y94349D02*
X123500Y94400D01*
X123449Y90500D02*
Y94349D01*
X80275Y139425D02*
X83200Y136500D01*
X86000D01*
X77283Y139425D02*
X80275D01*
X133500Y67000D02*
X137800Y71300D01*
X118500Y47000D02*
X128900Y57400D01*
Y72400D02*
X133500Y77000D01*
X118724Y91776D02*
X120000Y90500D01*
X123079D01*
X118724Y91776D02*
Y94376D01*
X115575Y91325D02*
Y94957D01*
X94016Y46784D02*
X99921D01*
X93900Y44815D02*
X99921D01*
X87717Y34579D02*
Y40215D01*
X85748Y34579D02*
Y39091D01*
X84624Y40215D02*
X85748Y39091D01*
X111634Y84185D02*
X111949Y84500D01*
X107000Y16110D02*
Y23400D01*
X34764Y60563D02*
X40079D01*
X35594Y58595D02*
X40079D01*
X35000Y58000D02*
X35594Y58595D01*
X32000Y58000D02*
X35000D01*
X29793Y123224D02*
X29854Y123164D01*
X29793Y120075D02*
X33825D01*
X34000Y119900D01*
X19949Y70732D02*
Y77000D01*
Y70732D02*
X20252Y70429D01*
X26051Y55000D02*
Y61268D01*
X20252Y69937D02*
Y70429D01*
Y69937D02*
X23720Y66469D01*
X40079D01*
X26551Y61768D02*
Y62151D01*
X28900Y64500D01*
X40079D01*
X65472Y148874D02*
Y151528D01*
X77283Y142575D02*
X80625D01*
X81200Y142000D01*
X86000D01*
X83165Y131000D02*
X86000D01*
X82900Y125600D02*
X86000D01*
X71378Y121262D02*
Y133126D01*
X79368Y129132D02*
Y134191D01*
X77283Y136276D02*
X79368Y134191D01*
X71424Y145724D02*
X74331D01*
X65472Y129072D02*
Y133126D01*
X67000Y157500D02*
X71378D01*
X75500Y157350D02*
X79878D01*
D20*
X107000Y16110D02*
D03*
X109559D02*
D03*
X112118D02*
D03*
X101882D02*
D03*
X104441D02*
D03*
D21*
X102472Y5579D02*
D03*
X111528D02*
D03*
X120780D02*
D03*
X93221D02*
D03*
D22*
X87949Y25500D02*
D03*
X94051D02*
D03*
D23*
X102500Y101551D02*
D03*
Y95449D02*
D03*
X100500Y27449D02*
D03*
Y33551D02*
D03*
X55300Y131598D02*
D03*
Y137700D02*
D03*
X136500Y146551D02*
D03*
Y140449D02*
D03*
X86500Y154602D02*
D03*
Y148500D02*
D03*
X75500Y163551D02*
D03*
Y157449D02*
D03*
X67000Y163602D02*
D03*
Y157500D02*
D03*
X32500Y37949D02*
D03*
Y44051D02*
D03*
X26000Y37949D02*
D03*
Y44051D02*
D03*
X31800Y83702D02*
D03*
Y77600D02*
D03*
X40000Y101551D02*
D03*
Y95449D02*
D03*
D24*
X112425Y102043D02*
D03*
Y94957D02*
D03*
X115575D02*
D03*
Y102043D02*
D03*
X108425Y125543D02*
D03*
Y118457D02*
D03*
X111575D02*
D03*
Y125543D02*
D03*
D25*
X109276Y94957D02*
D03*
X118724D02*
D03*
Y102043D02*
D03*
X109276D02*
D03*
X105276Y118457D02*
D03*
X114724D02*
D03*
Y125543D02*
D03*
X105276D02*
D03*
D26*
X129551Y90500D02*
D03*
X123449D02*
D03*
X118051Y84500D02*
D03*
X111949D02*
D03*
X75449Y25500D02*
D03*
X81551D02*
D03*
X68449Y105000D02*
D03*
X74551D02*
D03*
X92102Y142000D02*
D03*
X86000D02*
D03*
X26051Y55000D02*
D03*
X19949D02*
D03*
Y77000D02*
D03*
X26051D02*
D03*
D27*
X69000Y17563D02*
D03*
Y25437D02*
D03*
X48800Y138637D02*
D03*
Y130763D02*
D03*
X43500Y13437D02*
D03*
Y5563D02*
D03*
D28*
X50000Y6350D02*
D03*
Y12650D02*
D03*
X92000Y154799D02*
D03*
Y148500D02*
D03*
X69000Y3850D02*
D03*
Y10150D02*
D03*
X50000Y18850D02*
D03*
Y25150D02*
D03*
X22900Y95400D02*
D03*
Y101699D02*
D03*
X4000Y95350D02*
D03*
Y101650D02*
D03*
D29*
X75260Y10366D02*
D03*
X82740D02*
D03*
X79000Y19028D02*
D03*
X9760Y94366D02*
D03*
X17240D02*
D03*
X13500Y103028D02*
D03*
D30*
X74579Y4000D02*
D03*
X84421D02*
D03*
D31*
X46378Y94421D02*
D03*
X48346D02*
D03*
X50315D02*
D03*
X52284D02*
D03*
X54252D02*
D03*
X56221D02*
D03*
X58189D02*
D03*
X60158D02*
D03*
X62126D02*
D03*
X64095D02*
D03*
X66063D02*
D03*
X68032D02*
D03*
X70000D02*
D03*
X71969D02*
D03*
X73937D02*
D03*
X75906D02*
D03*
X77874D02*
D03*
X79843D02*
D03*
X81811D02*
D03*
X83780D02*
D03*
X85748D02*
D03*
X87717D02*
D03*
X89685D02*
D03*
X91654D02*
D03*
X93622D02*
D03*
Y34579D02*
D03*
X91654D02*
D03*
X89685D02*
D03*
X87717D02*
D03*
X85748D02*
D03*
X83780D02*
D03*
X81811D02*
D03*
X79843D02*
D03*
X77874D02*
D03*
X75906D02*
D03*
X73937D02*
D03*
X71969D02*
D03*
X70000D02*
D03*
X68032D02*
D03*
X66063D02*
D03*
X64095D02*
D03*
X62126D02*
D03*
X60158D02*
D03*
X58189D02*
D03*
X56221D02*
D03*
X54252D02*
D03*
X52284D02*
D03*
X50315D02*
D03*
X48346D02*
D03*
X46378D02*
D03*
D32*
X99921Y88122D02*
D03*
Y86154D02*
D03*
Y84185D02*
D03*
Y82217D02*
D03*
Y80248D02*
D03*
Y78280D02*
D03*
Y76311D02*
D03*
Y74343D02*
D03*
Y72374D02*
D03*
Y70406D02*
D03*
Y68437D02*
D03*
Y66469D02*
D03*
Y64500D02*
D03*
Y62532D02*
D03*
Y60563D02*
D03*
Y58595D02*
D03*
Y56626D02*
D03*
Y54658D02*
D03*
Y52689D02*
D03*
Y50721D02*
D03*
Y48752D02*
D03*
Y46784D02*
D03*
Y44815D02*
D03*
Y42847D02*
D03*
Y40878D02*
D03*
X40079D02*
D03*
Y42847D02*
D03*
Y44815D02*
D03*
Y46784D02*
D03*
Y48752D02*
D03*
Y50721D02*
D03*
Y52689D02*
D03*
Y54658D02*
D03*
Y56626D02*
D03*
Y58595D02*
D03*
Y60563D02*
D03*
Y62532D02*
D03*
Y64500D02*
D03*
Y66469D02*
D03*
Y68437D02*
D03*
Y70406D02*
D03*
Y72374D02*
D03*
Y74343D02*
D03*
Y76311D02*
D03*
Y78280D02*
D03*
Y80248D02*
D03*
Y82217D02*
D03*
Y84185D02*
D03*
Y86154D02*
D03*
Y88122D02*
D03*
D33*
X86000Y136500D02*
D03*
X92299D02*
D03*
X86000Y131000D02*
D03*
X92299D02*
D03*
X86000Y125600D02*
D03*
X92299D02*
D03*
D34*
X130437Y122500D02*
D03*
X122563D02*
D03*
X130437Y146500D02*
D03*
X122563D02*
D03*
D35*
X123260Y139618D02*
D03*
X130740D02*
D03*
Y129382D02*
D03*
X127000D02*
D03*
X123260D02*
D03*
X63240Y13882D02*
D03*
X55760D02*
D03*
Y24118D02*
D03*
X59500D02*
D03*
X63240D02*
D03*
D36*
X77283Y148874D02*
D03*
Y145724D02*
D03*
Y142575D02*
D03*
Y139425D02*
D03*
Y136276D02*
D03*
Y133126D02*
D03*
X74331Y148874D02*
D03*
Y145724D02*
D03*
Y142575D02*
D03*
Y139425D02*
D03*
Y136276D02*
D03*
Y133126D02*
D03*
X71378Y148874D02*
D03*
X65472D02*
D03*
X62520D02*
D03*
X68425D02*
D03*
X62520Y145724D02*
D03*
Y142575D02*
D03*
Y139425D02*
D03*
Y136276D02*
D03*
X71378Y133126D02*
D03*
X68425D02*
D03*
X65472D02*
D03*
X62520D02*
D03*
X65472Y145724D02*
D03*
Y142575D02*
D03*
Y139425D02*
D03*
Y136276D02*
D03*
D37*
X49000Y152000D02*
D03*
Y163024D02*
D03*
X31500Y93988D02*
D03*
Y105012D02*
D03*
D38*
X111500Y159095D02*
D03*
Y170905D02*
D03*
X28500Y159095D02*
D03*
Y170905D02*
D03*
D39*
X63937Y5000D02*
D03*
X55063D02*
D03*
D40*
X19500Y37949D02*
D03*
Y44051D02*
D03*
D41*
X20252Y61768D02*
D03*
X26551Y70429D02*
D03*
X20252D02*
D03*
X26551Y61768D02*
D03*
D42*
X29793Y120075D02*
D03*
X22707D02*
D03*
Y116925D02*
D03*
X29793D02*
D03*
D43*
X22707Y123224D02*
D03*
Y113776D02*
D03*
X29793D02*
D03*
Y123224D02*
D03*
D44*
X3988Y115449D02*
D03*
Y121551D02*
D03*
X15012Y115449D02*
D03*
Y121551D02*
D03*
D77*
X44900Y141900D02*
X49100Y137700D01*
X73724Y116024D02*
X79000Y121300D01*
X68449Y110749D02*
X73724Y116024D01*
X68449Y105000D02*
Y110749D01*
X100300Y117500D02*
Y125543D01*
X98050Y115250D02*
X100300Y117500D01*
X91950Y115250D02*
X98050D01*
X81700Y105000D02*
X91950Y115250D01*
X74551Y105000D02*
X81700D01*
X79000Y121300D02*
X96100D01*
X48600Y152000D02*
X48607D01*
X40500Y160500D02*
Y164100D01*
Y160500D02*
X46850Y154149D01*
Y153756D02*
Y154149D01*
Y153756D02*
X48607Y152000D01*
X49000D01*
X49635Y131598D02*
X55300D01*
X44602Y130763D02*
X48800D01*
X49100Y137700D02*
X55300D01*
X59900D01*
X44900Y141900D02*
Y148300D01*
X48600Y152000D01*
X20800Y88400D02*
X25300D01*
X100549Y33600D02*
X104600D01*
X100500Y33551D02*
X100549Y33600D01*
X50000Y12650D02*
Y18850D01*
Y12650D02*
X55579D01*
X55760Y12831D01*
Y13882D01*
X25300Y88400D02*
X30888Y93988D01*
X31500D01*
X32961Y95449D02*
X40000D01*
X31500Y93988D02*
X32961Y95449D01*
X94100Y33551D02*
X100500D01*
X40000Y95449D02*
X45800D01*
X3988Y110988D02*
Y115449D01*
X105605Y170905D02*
X111500D01*
X122563Y122500D02*
X123260Y123197D01*
X130740Y129382D02*
Y133360D01*
X129700Y134400D02*
X130740Y133360D01*
X124500Y134400D02*
X129700D01*
X123260Y133160D02*
X124500Y134400D01*
X123260Y129382D02*
Y133160D01*
X131571Y140449D02*
X136500D01*
X122563Y146500D02*
X123260Y145803D01*
Y139618D02*
Y145803D01*
X122563Y146500D02*
Y150437D01*
X120300Y152700D02*
X122563Y150437D01*
X106400Y152700D02*
X120300D01*
X104301Y154799D02*
X106400Y152700D01*
X92000Y154799D02*
X104301D01*
X74800Y100400D02*
Y104751D01*
X74551Y105000D02*
X74800Y104751D01*
X80335Y148900D02*
X86100D01*
X86500Y148500D02*
X92000D01*
D78*
X26900Y82800D02*
X31950Y77750D01*
X14400Y82800D02*
X26900D01*
X101349Y101600D02*
X101900Y102151D01*
X106500Y89500D02*
Y97551D01*
X103620Y100431D02*
X106500Y97551D01*
X103250Y100431D02*
X103620D01*
X102500Y101181D02*
X103250Y100431D01*
X102500Y101181D02*
Y101551D01*
X98500Y101600D02*
X101349D01*
X67304Y136304D02*
X67400Y136400D01*
X66951Y136304D02*
X67304D01*
X66922Y136276D02*
X66951Y136304D01*
X65472Y136276D02*
X66922D01*
X65448Y136300D02*
X65472Y136276D01*
X28500Y170905D02*
X98694D01*
X108700Y48600D02*
Y72300D01*
X106658Y74343D02*
X108700Y72300D01*
X105157Y74343D02*
X106658D01*
X105900Y45800D02*
X108700Y48600D01*
X35288Y108800D02*
X40000D01*
X33900Y107412D02*
X35288Y108800D01*
X33900Y107018D02*
Y107412D01*
X31894Y105012D02*
X33900Y107018D01*
X31500Y105012D02*
X31894D01*
X49000Y163024D02*
Y167222D01*
X44802Y163024D02*
X49000D01*
X92102Y142100D02*
X96300D01*
X8100Y88700D02*
X11574D01*
X15234Y92360D01*
X16022D01*
X17240Y93579D01*
Y94366D01*
X18400Y50300D02*
X19949Y51849D01*
Y55000D01*
X100300Y125543D02*
X105276D01*
X92356D02*
X100300D01*
X92299Y125600D02*
Y131000D01*
Y125600D02*
X92356Y125543D01*
X19676Y123224D02*
X22707D01*
X17600Y125300D02*
X19676Y123224D01*
X12300Y125300D02*
X17600D01*
X17325Y120075D02*
X22707D01*
X15849Y121551D02*
X17325Y120075D01*
X15012Y121551D02*
X15849D01*
X14251Y115449D02*
X15012D01*
X10400Y119300D02*
X14251Y115449D01*
X10400Y119300D02*
Y123400D01*
X8600Y114900D02*
Y117500D01*
X4549Y121551D02*
X8600Y117500D01*
X3988Y121551D02*
X4549D01*
X19000Y116300D02*
X19588Y116888D01*
X19000Y113250D02*
Y116300D01*
X17950Y112200D02*
X19000Y113250D01*
X19588Y116888D02*
X22669D01*
X22707Y110907D02*
Y113776D01*
X9760Y107160D02*
X11500Y108900D01*
X20700D02*
X22707Y110907D01*
X11500Y108900D02*
X20700D01*
X9760Y94366D02*
Y107160D01*
X4000Y95116D02*
Y95350D01*
Y95116D02*
X4750Y94366D01*
X9760D01*
X13500Y102918D02*
Y103028D01*
Y102918D02*
X14718Y101699D01*
X22900D01*
X14400Y37600D02*
X14749Y37949D01*
X19500D01*
X22900Y85600D02*
X27302D01*
X29200Y83702D01*
X31800D01*
Y70500D02*
X32900Y69400D01*
X31800Y70500D02*
Y77600D01*
X19949Y55000D02*
X20252Y55303D01*
Y61768D01*
X26051Y77000D02*
X26551Y76500D01*
Y70429D02*
Y76500D01*
X26051Y77000D02*
Y79851D01*
X24100Y107600D02*
X26688Y105012D01*
X31500D01*
X40000Y101551D02*
Y106100D01*
X110505Y159095D02*
X111500D01*
X98694Y170905D02*
X110505Y159095D01*
X95000Y136500D02*
X96600Y134900D01*
X92299Y136500D02*
X95000D01*
X28500Y153800D02*
Y159095D01*
X22900Y91700D02*
Y95400D01*
X108425Y129225D02*
X108900Y129700D01*
X112000D01*
X106300D02*
X108900D01*
X108425Y125543D02*
Y129225D01*
X111575Y129275D02*
X112000Y129700D01*
X114100D01*
X111575Y125543D02*
Y129275D01*
X114724Y125543D02*
Y129076D01*
X114100Y129700D02*
X114724Y129076D01*
X105276Y128676D02*
X106300Y129700D01*
X105276Y125543D02*
Y128676D01*
X130437Y118851D02*
Y122500D01*
X134086D01*
X127000Y125937D02*
X130437Y122500D01*
X127000Y125937D02*
Y129382D01*
X130437Y146500D02*
Y150149D01*
X136500Y146551D02*
Y150200D01*
X67000Y163701D02*
Y167899D01*
X75500Y163650D02*
Y167848D01*
X86500Y154701D02*
Y158899D01*
X10400Y123400D02*
X12300Y125300D01*
X11300Y112200D02*
X17950D01*
X8600Y114900D02*
X11300Y112200D01*
X77283Y148874D02*
X80126D01*
D79*
X14400Y82800D02*
Y85900D01*
Y37600D02*
Y82800D01*
X16900Y88400D02*
X20800D01*
X14400Y85900D02*
X16900Y88400D01*
X14400Y13900D02*
Y37600D01*
X6500Y6000D02*
X14400Y13900D01*
D80*
X73200Y139400D02*
X73212Y139412D01*
X71400Y142700D02*
X71498Y142602D01*
X73212Y139412D02*
X74318D01*
X74331Y139425D01*
X71498Y142602D02*
X74304D01*
X74331Y142575D01*
X55000Y143900D02*
X58700Y140200D01*
X47700Y143900D02*
X55000D01*
X48800Y130763D02*
X49635Y131598D01*
X119851Y82700D02*
X122000D01*
X118051Y84500D02*
X119851Y82700D01*
X4000Y101650D02*
Y105700D01*
X75449Y25500D02*
Y29051D01*
X26000Y37949D02*
X29449D01*
X32500D02*
X36151D01*
X129551Y90500D02*
X133000D01*
X58700Y140200D02*
X61745D01*
X62520Y139425D01*
X74331Y148931D02*
X76800Y151400D01*
X74331Y148874D02*
Y148931D01*
D81*
X40079Y70406D02*
X44695D01*
X46800Y68300D01*
X40500Y37200D02*
X41600D01*
X44221Y34579D01*
X108500Y88000D02*
X114551D01*
X116681Y85870D01*
Y85500D02*
Y85870D01*
Y85500D02*
X117681Y84500D01*
X118051D01*
X91654Y30246D02*
X92900Y29000D01*
X91654Y30246D02*
Y34579D01*
X92900Y29000D02*
X98949D01*
X99130Y28819D01*
X99500D01*
X100500Y27819D01*
Y27449D02*
Y27819D01*
X90900Y40200D02*
Y40300D01*
Y40200D02*
X91654Y39446D01*
Y34579D02*
Y39446D01*
X34420Y50721D02*
X40079D01*
X32500Y48800D02*
X34420Y50721D01*
X32500Y47500D02*
Y48800D01*
Y44051D02*
Y47500D01*
X26000Y44051D02*
X32500D01*
X19500D02*
X26000D01*
X40049Y101600D02*
X46800D01*
X40000Y101551D02*
X40049Y101600D01*
X46800D02*
X48346Y100054D01*
Y94421D02*
Y100054D01*
X30500Y55100D02*
X32911Y52689D01*
X40079D01*
X38500Y33020D02*
X42020Y29500D01*
X47200D01*
X48346Y30646D01*
Y34579D01*
X44221D02*
X46378D01*
X109314Y91986D02*
Y94918D01*
X109276Y94957D02*
X109314Y94918D01*
X109900Y91400D02*
X111839D01*
X112425Y91986D01*
Y94957D01*
X102500Y95449D02*
X102992Y94957D01*
X31950Y77750D02*
X32480Y78280D01*
X32900Y69400D02*
X33863Y68437D01*
X32480Y78280D02*
X40079D01*
X33863Y68437D02*
X40079D01*
X115575Y102043D02*
Y105476D01*
X118724Y102043D02*
Y105476D01*
X106653Y86154D02*
X108500Y88000D01*
X99921Y86154D02*
X106653D01*
X99921Y74343D02*
X105157D01*
X32500Y47500D02*
X33600D01*
X34852Y48752D02*
X40079D01*
X33600Y47500D02*
X34852Y48752D01*
X80126Y148874D02*
X80217Y148783D01*
X80300Y148700D01*
X89685Y29685D02*
Y34579D01*
X88800Y28800D02*
X89685Y29685D01*
X81551Y25500D02*
Y28151D01*
X82200Y28800D01*
X88800D01*
X99921Y84185D02*
X111634D01*
X86100Y148900D02*
X86500Y148500D01*
D82*
X118500Y122500D02*
X122563D01*
D83*
X123260Y123197D02*
Y129382D01*
D84*
X68400Y105900D02*
D03*
D85*
X96325Y17354D02*
D03*
X117675D02*
D03*
D86*
X122335Y5579D02*
D03*
X91665D02*
D03*
D87*
X115740Y17390D02*
D03*
X98260D02*
D03*
D88*
X133500Y7000D02*
D03*
Y17000D02*
D03*
Y27000D02*
D03*
Y37000D02*
D03*
Y47000D02*
D03*
Y57000D02*
D03*
Y67000D02*
D03*
Y77000D02*
D03*
X118500D02*
D03*
Y67000D02*
D03*
Y57000D02*
D03*
Y47000D02*
D03*
Y37000D02*
D03*
Y27000D02*
D03*
X6500Y6000D02*
D03*
Y16000D02*
D03*
Y26000D02*
D03*
Y36000D02*
D03*
Y46000D02*
D03*
Y56000D02*
D03*
Y66000D02*
D03*
Y76000D02*
D03*
D89*
X31437Y25000D02*
D03*
X23563D02*
D03*
D90*
X109370Y141000D02*
D03*
X30630D02*
D03*
D91*
X12000Y163000D02*
D03*
X128000D02*
D03*
D92*
X125000Y70900D02*
D03*
X86000Y54500D02*
D03*
X81000D02*
D03*
X76000D02*
D03*
X26000Y109500D02*
D03*
X6000Y129500D02*
D03*
X81000Y54500D02*
D03*
X11000Y149500D02*
D03*
X47300Y55100D02*
D03*
X48400Y64700D02*
D03*
X109200Y42100D02*
D03*
X123100Y112400D02*
D03*
X133500Y115200D02*
D03*
X133300Y97100D02*
D03*
X131000Y104800D02*
D03*
X128000Y109800D02*
D03*
X68300Y111800D02*
D03*
X119200Y117700D02*
D03*
X60900Y84100D02*
D03*
X74300Y131200D02*
D03*
X60400Y107300D02*
D03*
X60300Y104300D02*
D03*
X18400Y33500D02*
D03*
X59705Y80805D02*
D03*
X72100Y69900D02*
D03*
X67900D02*
D03*
X62600D02*
D03*
X115400Y109800D02*
D03*
X102200Y96300D02*
D03*
X96400Y103800D02*
D03*
X96300Y118300D02*
D03*
X72300Y110500D02*
D03*
X62300Y88500D02*
D03*
X98500Y101600D02*
D03*
X96200Y121300D02*
D03*
X49000Y167222D02*
D03*
X40500Y164100D02*
D03*
X79000Y121200D02*
D03*
X82900Y68700D02*
D03*
X85000Y81900D02*
D03*
X80500Y64900D02*
D03*
X85300Y65100D02*
D03*
X67100Y139200D02*
D03*
X73000Y139400D02*
D03*
X71300Y142700D02*
D03*
X67400Y136400D02*
D03*
X60000Y145749D02*
D03*
Y142600D02*
D03*
X82400Y131100D02*
D03*
X89100Y145000D02*
D03*
X94100Y76311D02*
D03*
X68400Y145800D02*
D03*
X47700Y143900D02*
D03*
X70000Y153400D02*
D03*
X57800Y153600D02*
D03*
X53300Y121400D02*
D03*
Y124400D02*
D03*
X59900Y133421D02*
D03*
X87700Y74300D02*
D03*
X85100Y85700D02*
D03*
X105900Y66900D02*
D03*
X105200Y70400D02*
D03*
X114800Y113000D02*
D03*
X111575Y113025D02*
D03*
X90300Y56600D02*
D03*
X46800Y60400D02*
D03*
X67900D02*
D03*
X59600D02*
D03*
X105700Y56600D02*
D03*
X94200Y56700D02*
D03*
X105900Y45800D02*
D03*
X64000Y80805D02*
D03*
X55300Y88500D02*
D03*
X52200Y84200D02*
D03*
X76100Y64900D02*
D03*
X46800Y68300D02*
D03*
X52200Y88500D02*
D03*
X49100D02*
D03*
Y84200D02*
D03*
X79800Y88300D02*
D03*
X73724Y116024D02*
D03*
X47600Y122300D02*
D03*
X40000Y108800D02*
D03*
X44602Y130763D02*
D03*
X59900Y137700D02*
D03*
X74800Y100400D02*
D03*
X68200Y43100D02*
D03*
X64700D02*
D03*
X60800D02*
D03*
X132600Y84900D02*
D03*
X113600Y80400D02*
D03*
X112900Y78100D02*
D03*
X111200Y80400D02*
D03*
X109600Y91400D02*
D03*
X20000Y58300D02*
D03*
X40500Y37200D02*
D03*
X82800Y154800D02*
D03*
X124900Y76900D02*
D03*
X122000Y82700D02*
D03*
X84900Y167100D02*
D03*
X103100Y159200D02*
D03*
X98500Y130800D02*
D03*
X100400Y150500D02*
D03*
X97800Y148100D02*
D03*
X4400Y86500D02*
D03*
X8000Y84400D02*
D03*
X8100Y88700D02*
D03*
X90900Y40300D02*
D03*
X5200Y146800D02*
D03*
Y133700D02*
D03*
Y140250D02*
D03*
X30500Y55100D02*
D03*
X34700Y55200D02*
D03*
X38500Y33020D02*
D03*
X100300Y125543D02*
D03*
X14600Y83600D02*
D03*
X4000Y105700D02*
D03*
X113100Y22200D02*
D03*
Y24800D02*
D03*
X43000Y18900D02*
D03*
Y22300D02*
D03*
Y25700D02*
D03*
X39100Y18900D02*
D03*
Y22300D02*
D03*
X63700Y18800D02*
D03*
X59600D02*
D03*
X55500D02*
D03*
X52500Y40100D02*
D03*
X88100Y22600D02*
D03*
X75449Y29051D02*
D03*
X39100Y4100D02*
D03*
Y7200D02*
D03*
X36700Y4100D02*
D03*
Y7200D02*
D03*
X104600Y33600D02*
D03*
Y27676D02*
D03*
X29449Y37200D02*
D03*
X36151D02*
D03*
X77500Y6400D02*
D03*
X74700D02*
D03*
X62500Y153600D02*
D03*
X22900Y85600D02*
D03*
X26051Y79851D02*
D03*
X24100Y107600D02*
D03*
X40000Y106100D02*
D03*
X133000Y90500D02*
D03*
X115575Y105476D02*
D03*
X118724D02*
D03*
X29700Y110600D02*
D03*
X29900Y88200D02*
D03*
X108500Y88000D02*
D03*
X105157Y74343D02*
D03*
X3988Y110988D02*
D03*
X37400Y119900D02*
D03*
X105605Y170905D02*
D03*
X96600Y134900D02*
D03*
X28500Y153800D02*
D03*
X22900Y91700D02*
D03*
X118500Y122500D02*
D03*
X130437Y118851D02*
D03*
X134086Y122500D02*
D03*
X130437Y150149D02*
D03*
X136500Y150200D02*
D03*
X96300Y139300D02*
D03*
X128900Y61200D02*
D03*
X123500Y94400D02*
D03*
X76800Y151400D02*
D03*
X67000Y167899D02*
D03*
X75500Y167848D02*
D03*
X86500Y158899D02*
D03*
X96300Y142100D02*
D03*
X115575Y91325D02*
D03*
X80800Y49300D02*
D03*
X65472Y151528D02*
D03*
X73567Y46100D02*
D03*
X69900D02*
D03*
X77233D02*
D03*
X87717Y40215D02*
D03*
X84624D02*
D03*
X34764Y60563D02*
D03*
X32000Y58000D02*
D03*
X34000Y119900D02*
D03*
X37400Y116900D02*
D03*
X69200Y125600D02*
D03*
Y122400D02*
D03*
X82400Y126100D02*
D03*
X71424Y145724D02*
D03*
X71378Y157500D02*
D03*
X79878Y157350D02*
D03*
X80335Y148900D02*
D03*
D93*
X84508Y117157D02*
D03*
X53012D02*
D03*
M02*
