G04*
G04 #@! TF.GenerationSoftware,Altium Limited,Altium Designer,19.1.8 (144)*
G04*
G04 Layer_Color=16711935*
%FSLAX25Y25*%
%MOIN*%
G70*
G01*
G75*
%ADD70O,0.02862X0.05618*%
%ADD71O,0.03847X0.04634*%
%ADD72P,0.07036X8X22.5*%
%ADD73C,0.06100*%
%ADD74C,0.18000*%
%ADD75C,0.21366*%
%ADD76C,0.04437*%
%ADD100R,0.06799X0.06012*%
%ADD101R,0.05224X0.09161*%
%ADD102R,0.03256X0.06799*%
%ADD103R,0.05224X0.06012*%
D70*
X122335Y5579D02*
D03*
X91665D02*
D03*
D71*
X115740Y17390D02*
D03*
X98260D02*
D03*
D72*
X133500Y7000D02*
D03*
Y17000D02*
D03*
Y27000D02*
D03*
Y37000D02*
D03*
Y47000D02*
D03*
Y57000D02*
D03*
Y67000D02*
D03*
Y77000D02*
D03*
X118500D02*
D03*
Y67000D02*
D03*
Y57000D02*
D03*
Y47000D02*
D03*
Y37000D02*
D03*
Y27000D02*
D03*
X6500Y6000D02*
D03*
Y16000D02*
D03*
Y26000D02*
D03*
Y36000D02*
D03*
Y46000D02*
D03*
Y56000D02*
D03*
Y66000D02*
D03*
Y76000D02*
D03*
D73*
X31437Y25000D02*
D03*
X23563D02*
D03*
D74*
X109370Y141000D02*
D03*
X30630D02*
D03*
D75*
X12000Y163000D02*
D03*
X128000D02*
D03*
D76*
X84508Y117157D02*
D03*
X53012D02*
D03*
D100*
X99468Y77787D02*
D03*
D101*
X41988Y115582D02*
D03*
D102*
X81358Y75818D02*
D03*
X77028D02*
D03*
X72697D02*
D03*
X68366D02*
D03*
X64035D02*
D03*
X59705D02*
D03*
X55374D02*
D03*
X51043D02*
D03*
X46713D02*
D03*
D103*
X41988Y77787D02*
D03*
M02*
