G04*
G04 #@! TF.GenerationSoftware,Altium Limited,Altium Designer,19.1.8 (144)*
G04*
G04 Layer_Physical_Order=2*
G04 Layer_Color=16711680*
%FSLAX25Y25*%
%MOIN*%
G70*
G01*
G75*
%ADD10C,0.00600*%
%ADD77C,0.02000*%
%ADD78C,0.01500*%
%ADD79C,0.03000*%
%ADD80C,0.01200*%
%ADD81C,0.01000*%
%ADD82C,0.02500*%
%ADD86O,0.02362X0.05118*%
%ADD87O,0.03347X0.04134*%
%ADD88P,0.06494X8X22.5*%
%ADD89C,0.05600*%
%ADD90C,0.17500*%
%ADD91C,0.20866*%
%ADD92C,0.02000*%
%ADD93C,0.03937*%
%ADD94R,0.06299X0.05512*%
%ADD95R,0.04724X0.08661*%
%ADD96R,0.02756X0.06299*%
%ADD97R,0.04724X0.05512*%
%ADD98C,0.04000*%
%ADD99R,0.38700X0.07200*%
G36*
X103347Y172569D02*
X97551Y166774D01*
X32500D01*
X31782Y166679D01*
X31113Y166402D01*
X30539Y165961D01*
X23905Y159327D01*
X23451Y159581D01*
X23823Y161127D01*
X23970Y163000D01*
X23823Y164873D01*
X23384Y166699D01*
X22665Y168434D01*
X21684Y170036D01*
X20464Y171464D01*
X19170Y172569D01*
X19345Y173069D01*
X103139D01*
X103347Y172569D01*
D02*
G37*
G36*
X89826Y147201D02*
X89326Y146790D01*
X89100Y146835D01*
X88398Y146696D01*
X87802Y146298D01*
X87404Y145702D01*
X87265Y145000D01*
Y137184D01*
X86803Y136993D01*
X86098Y137698D01*
X85502Y138096D01*
X84800Y138235D01*
X73460D01*
X72635Y139060D01*
Y140151D01*
X74135D01*
X75111Y140345D01*
X75937Y140898D01*
X82137Y147098D01*
X82690Y147924D01*
X82884Y148900D01*
X82690Y149875D01*
X82137Y150702D01*
X81310Y151255D01*
X80335Y151449D01*
X79360Y151255D01*
X78533Y150702D01*
X76435Y148605D01*
X75935Y148812D01*
Y153540D01*
X77910Y155515D01*
X79878D01*
X80581Y155655D01*
X81176Y156052D01*
X81574Y156648D01*
X81713Y157350D01*
X81574Y158053D01*
X81176Y158648D01*
X80581Y159046D01*
X79878Y159186D01*
X77150D01*
X76448Y159046D01*
X75853Y158648D01*
X74530Y157325D01*
X74032Y157374D01*
X73898Y157576D01*
X72676Y158798D01*
X72080Y159196D01*
X71378Y159335D01*
X70676Y159196D01*
X70080Y158798D01*
X69682Y158202D01*
X69543Y157500D01*
X69682Y156798D01*
X70080Y156202D01*
X70448Y155834D01*
X70417Y155637D01*
X70000Y155235D01*
X69298Y155096D01*
X68702Y154698D01*
X68304Y154102D01*
X68165Y153400D01*
Y152292D01*
X67748Y151875D01*
X67205Y152040D01*
X67168Y152230D01*
X66770Y152826D01*
X66174Y153224D01*
X65472Y153363D01*
X64770Y153224D01*
X64320Y153525D01*
X64335Y153600D01*
X64196Y154302D01*
X63798Y154898D01*
X63202Y155296D01*
X62500Y155435D01*
X61798Y155296D01*
X61202Y154898D01*
X60105Y153801D01*
X59563Y153965D01*
X59496Y154302D01*
X59098Y154898D01*
X58502Y155296D01*
X57800Y155435D01*
X57098Y155296D01*
X56502Y154898D01*
X48702Y147098D01*
X48304Y146502D01*
X48165Y145800D01*
Y128660D01*
X44102Y124598D01*
X43704Y124002D01*
X43565Y123300D01*
Y87900D01*
X43704Y87198D01*
X44102Y86602D01*
X47216Y83489D01*
X47232Y83387D01*
X47120Y82877D01*
X46702Y82598D01*
X45415Y81310D01*
X45017Y80715D01*
X44968Y80468D01*
X43835D01*
Y71169D01*
X49285D01*
X49348Y70854D01*
X49746Y70259D01*
X56402Y63602D01*
X56998Y63204D01*
X57700Y63065D01*
X59016D01*
X59207Y62603D01*
X58302Y61698D01*
X57904Y61102D01*
X57765Y60400D01*
X57800Y60222D01*
X57483Y59835D01*
X49960D01*
X48098Y61698D01*
X47502Y62096D01*
X46800Y62235D01*
X46098Y62096D01*
X45502Y61698D01*
X45104Y61102D01*
X44965Y60400D01*
X45104Y59698D01*
X45502Y59102D01*
X47902Y56702D01*
X48498Y56304D01*
X49200Y56165D01*
X88000D01*
X88146Y56194D01*
X88604Y55898D01*
X89002Y55302D01*
X89597Y54904D01*
X90300Y54765D01*
X91002Y54904D01*
X91597Y55302D01*
X92076Y55781D01*
X92221Y55806D01*
X92683Y55680D01*
X93002Y55202D01*
X93598Y54804D01*
X94300Y54665D01*
X101840D01*
X115627Y40877D01*
X114776Y40026D01*
X108630D01*
X108225Y40374D01*
X108194Y40516D01*
Y45800D01*
X108019Y46678D01*
X107522Y47422D01*
X106778Y47919D01*
X105900Y48094D01*
X105022Y47919D01*
X104278Y47422D01*
X103780Y46678D01*
X103606Y45800D01*
Y41350D01*
X86478Y24222D01*
X85981Y23478D01*
X85806Y22600D01*
X85981Y21722D01*
X86478Y20978D01*
X86705Y20826D01*
X86554Y20326D01*
X78053D01*
X63340Y35040D01*
X62713Y35520D01*
X62365Y35665D01*
X62464Y36165D01*
X85502D01*
X86204Y36304D01*
X86799Y36702D01*
X89014Y38917D01*
X89412Y39513D01*
X89552Y40215D01*
X89412Y40917D01*
X89014Y41513D01*
X88419Y41910D01*
X87717Y42050D01*
X87014Y41910D01*
X86419Y41513D01*
X86374Y41468D01*
X85922Y41513D01*
X85326Y41910D01*
X84624Y42050D01*
X60096D01*
X58444Y43703D01*
X58635Y44165D01*
X69800D01*
X70502Y44304D01*
X71098Y44702D01*
X71198Y44802D01*
X71344Y45020D01*
X71987Y45084D01*
X72269Y44802D01*
X72864Y44404D01*
X73567Y44265D01*
X74269Y44404D01*
X74864Y44802D01*
X75010Y45020D01*
X75654Y45084D01*
X75936Y44802D01*
X76531Y44404D01*
X77233Y44265D01*
X77936Y44404D01*
X78531Y44802D01*
X78929Y45398D01*
X79069Y46100D01*
X78929Y46802D01*
X78820Y46965D01*
X79088Y47465D01*
X80800D01*
X81502Y47604D01*
X82098Y48002D01*
X82496Y48598D01*
X82635Y49300D01*
X82496Y50002D01*
X82098Y50598D01*
X81502Y50996D01*
X80800Y51135D01*
X77960D01*
X75898Y53198D01*
X75302Y53596D01*
X74600Y53735D01*
X36538D01*
X36331Y54235D01*
X38598Y56502D01*
X38996Y57098D01*
X39135Y57800D01*
Y116397D01*
X39235Y116900D01*
X39096Y117602D01*
X38698Y118198D01*
X38662Y118566D01*
X38698Y118602D01*
X39096Y119198D01*
X39235Y119900D01*
X39096Y120602D01*
X38698Y121198D01*
X38102Y121596D01*
X37400Y121735D01*
X36698Y121596D01*
X36102Y121198D01*
X35899Y120994D01*
X35401Y121043D01*
X35298Y121198D01*
X34702Y121596D01*
X34000Y121735D01*
X33298Y121596D01*
X32702Y121198D01*
X30702Y119198D01*
X30304Y118602D01*
X30165Y117900D01*
Y112737D01*
X29778Y112420D01*
X29700Y112435D01*
X28998Y112296D01*
X28402Y111898D01*
X28004Y111302D01*
X27865Y110600D01*
X28004Y109898D01*
X28065Y109807D01*
Y88200D01*
X28204Y87498D01*
X28602Y86902D01*
X29198Y86504D01*
X29900Y86365D01*
X30165Y86147D01*
Y58000D01*
X30304Y57298D01*
X30702Y56702D01*
X31298Y56304D01*
X32000Y56165D01*
X32667Y56297D01*
X32768Y56219D01*
X33008Y55907D01*
X33004Y55902D01*
X32865Y55200D01*
X33004Y54498D01*
X33180Y54235D01*
X32912Y53735D01*
X18460D01*
X16235Y55960D01*
Y62500D01*
X16096Y63202D01*
X15698Y63798D01*
X14035Y65460D01*
Y70300D01*
X13896Y71002D01*
X13498Y71598D01*
X11000Y74095D01*
Y78250D01*
X8750Y80500D01*
X4250D01*
X2431Y78681D01*
X1931Y78888D01*
Y108470D01*
X2431Y108717D01*
X2601Y108586D01*
X3270Y108309D01*
X3988Y108214D01*
X11826D01*
Y83600D01*
X11921Y82882D01*
X12198Y82213D01*
X12639Y81639D01*
X13213Y81198D01*
X13882Y80921D01*
X14600Y80826D01*
X15318Y80921D01*
X15987Y81198D01*
X16561Y81639D01*
X17002Y82213D01*
X17279Y82882D01*
X17374Y83600D01*
Y93329D01*
X17836Y93520D01*
X21278Y90078D01*
X22022Y89581D01*
X22900Y89406D01*
X23778Y89581D01*
X24522Y90078D01*
X25019Y90822D01*
X25194Y91700D01*
X25019Y92578D01*
X24522Y93322D01*
X20894Y96950D01*
Y136410D01*
X21394Y136535D01*
X22066Y135278D01*
X23347Y133717D01*
X24908Y132436D01*
X26689Y131484D01*
X28621Y130898D01*
X30630Y130700D01*
X32639Y130898D01*
X34571Y131484D01*
X36352Y132436D01*
X37913Y133717D01*
X39194Y135278D01*
X40146Y137058D01*
X40732Y138991D01*
X40930Y141000D01*
X40732Y143009D01*
X40146Y144941D01*
X39194Y146722D01*
X37913Y148283D01*
X36352Y149564D01*
X34571Y150516D01*
X32639Y151102D01*
X30630Y151300D01*
X29831Y151221D01*
X29617Y151673D01*
X30122Y152178D01*
X30619Y152922D01*
X30794Y153800D01*
X30619Y154678D01*
X30122Y155422D01*
X29378Y155920D01*
X29034Y155988D01*
X28889Y156466D01*
X33649Y161226D01*
X89826D01*
Y147201D01*
D02*
G37*
G36*
X120830Y172569D02*
X119536Y171464D01*
X118316Y170036D01*
X117335Y168434D01*
X116616Y166699D01*
X116177Y164873D01*
X116030Y163000D01*
X116177Y161127D01*
X116616Y159301D01*
X117335Y157566D01*
X118316Y155964D01*
X119536Y154536D01*
X120964Y153316D01*
X122566Y152335D01*
X124301Y151616D01*
X126128Y151177D01*
X128000Y151030D01*
X129873Y151177D01*
X131699Y151616D01*
X133434Y152335D01*
X135036Y153316D01*
X136464Y154536D01*
X137569Y155830D01*
X138069Y155655D01*
Y128779D01*
X137607Y128588D01*
X134598Y131598D01*
X134002Y131996D01*
X133300Y132135D01*
X115514D01*
X115335Y132635D01*
X116653Y133717D01*
X117934Y135278D01*
X118886Y137058D01*
X119472Y138991D01*
X119670Y141000D01*
X119472Y143009D01*
X118886Y144941D01*
X117934Y146722D01*
X116653Y148283D01*
X115092Y149564D01*
X113312Y150516D01*
X111379Y151102D01*
X109370Y151300D01*
X107361Y151102D01*
X105429Y150516D01*
X103648Y149564D01*
X102087Y148283D01*
X100806Y146722D01*
X99854Y144941D01*
X99268Y143009D01*
X99070Y141000D01*
X99198Y139705D01*
X98718Y139478D01*
X97598Y140598D01*
X97002Y140996D01*
X96300Y141135D01*
X95874Y141051D01*
X95477Y141286D01*
X95374Y141402D01*
Y161226D01*
X98700D01*
X99418Y161321D01*
X100087Y161598D01*
X100661Y162039D01*
X107567Y168944D01*
X108008Y169519D01*
X108285Y170188D01*
X108379Y170905D01*
X108285Y171623D01*
X108008Y172292D01*
X107795Y172569D01*
X108042Y173069D01*
X120655D01*
X120830Y172569D01*
D02*
G37*
G36*
X104002Y129002D02*
X104195Y128873D01*
X104043Y128373D01*
X97645D01*
X95374Y130645D01*
Y136978D01*
X95836Y137169D01*
X104002Y129002D01*
D02*
G37*
G36*
X82758Y123832D02*
X82804Y123598D01*
X83202Y123002D01*
X85658Y120547D01*
X85632Y120161D01*
X85508Y120066D01*
X85186Y119860D01*
X84508Y119949D01*
X83785Y119854D01*
X83112Y119575D01*
X82533Y119131D01*
X82090Y118553D01*
X81811Y117879D01*
X81716Y117157D01*
X81811Y116434D01*
X82090Y115761D01*
X82533Y115182D01*
X83112Y114738D01*
X83785Y114460D01*
X84508Y114364D01*
X85231Y114460D01*
X85325Y114499D01*
X85741Y114221D01*
Y87802D01*
X85355Y87485D01*
X85100Y87535D01*
X81993D01*
X81937Y87557D01*
X81596Y87954D01*
X81580Y88021D01*
X81635Y88300D01*
X81496Y89002D01*
X81098Y89598D01*
X80502Y89996D01*
X79800Y90135D01*
X79098Y89996D01*
X78502Y89598D01*
X77773Y88868D01*
X77312Y89115D01*
X77349Y89300D01*
Y100400D01*
X77155Y101375D01*
X76602Y102202D01*
X75775Y102755D01*
X74800Y102949D01*
X73825Y102755D01*
X72998Y102202D01*
X72445Y101375D01*
X72251Y100400D01*
Y90356D01*
X66564Y84668D01*
X66011Y83842D01*
X65817Y82866D01*
Y82320D01*
X65317Y82169D01*
X65298Y82198D01*
X64702Y82596D01*
X64000Y82735D01*
X63298Y82596D01*
X62702Y82198D01*
X62304Y81602D01*
X62165Y80900D01*
Y80468D01*
X61157D01*
Y71169D01*
X83367D01*
X83462Y70886D01*
X83068Y70502D01*
X82900Y70535D01*
X82198Y70396D01*
X81602Y69998D01*
X81293Y69535D01*
X80627Y68869D01*
X60027D01*
X58098Y70797D01*
X58252Y71169D01*
X58252D01*
Y80468D01*
X56816D01*
X56625Y80930D01*
X57960Y82265D01*
X60900D01*
X61602Y82404D01*
X62198Y82802D01*
X62596Y83398D01*
X62735Y84100D01*
X62596Y84802D01*
X62198Y85398D01*
X61602Y85796D01*
X60900Y85935D01*
X59484D01*
X59293Y86397D01*
X60361Y87466D01*
X60859Y87417D01*
X61002Y87202D01*
X61598Y86804D01*
X62300Y86665D01*
X63002Y86804D01*
X63598Y87202D01*
X63996Y87798D01*
X64135Y88500D01*
Y93940D01*
X68198Y98002D01*
X68596Y98598D01*
X68735Y99300D01*
Y104340D01*
X73598Y109202D01*
X73996Y109798D01*
X74135Y110500D01*
X73996Y111202D01*
X73598Y111798D01*
X73002Y112196D01*
X72300Y112335D01*
X71598Y112196D01*
X71002Y111798D01*
X67397Y108193D01*
X66935Y108384D01*
Y121996D01*
X67435Y122046D01*
X67504Y121698D01*
X67902Y121102D01*
X68498Y120704D01*
X69200Y120565D01*
X69902Y120704D01*
X70498Y121102D01*
X73660Y124265D01*
X82400D01*
X82758Y123832D01*
D02*
G37*
G36*
X136065Y124940D02*
Y81630D01*
X135750Y81500D01*
X134596D01*
X125335Y90760D01*
Y94400D01*
X125196Y95102D01*
X124798Y95698D01*
X124202Y96096D01*
X123500Y96235D01*
X122798Y96096D01*
X122202Y95698D01*
X121804Y95102D01*
X121665Y94400D01*
Y90000D01*
X121804Y89298D01*
X122202Y88702D01*
X130327Y80577D01*
X129000Y79250D01*
Y74750D01*
Y69250D01*
Y63481D01*
X128800Y63035D01*
X123000D01*
Y74750D01*
Y79250D01*
X120750Y81500D01*
X116250D01*
X114000Y79250D01*
Y75300D01*
X110561D01*
Y83774D01*
X110422Y84476D01*
X110024Y85072D01*
X108135Y86960D01*
Y89142D01*
X108576Y89378D01*
X108722Y89281D01*
X109600Y89106D01*
X110478Y89281D01*
X111222Y89778D01*
X113344Y91900D01*
X113805Y91653D01*
X113740Y91325D01*
X113879Y90623D01*
X114277Y90027D01*
X114873Y89630D01*
X115575Y89490D01*
X116277Y89630D01*
X116873Y90027D01*
X117270Y90623D01*
X117410Y91325D01*
X117270Y92027D01*
X116873Y92623D01*
X116277Y93021D01*
X115575Y93160D01*
X115247Y93095D01*
X115000Y93556D01*
X120347Y98902D01*
X120844Y99647D01*
X121019Y100524D01*
Y105476D01*
Y113076D01*
X120844Y113953D01*
X120347Y114698D01*
X116222Y118822D01*
X115478Y119319D01*
X114600Y119494D01*
X104749D01*
Y122826D01*
X114251D01*
X116539Y120539D01*
X117113Y120098D01*
X117782Y119821D01*
X118500Y119726D01*
X119218Y119821D01*
X119887Y120098D01*
X120461Y120539D01*
X120902Y121113D01*
X121179Y121782D01*
X121274Y122500D01*
X121179Y123218D01*
X120902Y123887D01*
X120461Y124461D01*
X117362Y127561D01*
X116835Y127965D01*
X116838Y128127D01*
X116976Y128465D01*
X132540D01*
X136065Y124940D01*
D02*
G37*
G36*
X3536Y154536D02*
X4964Y153316D01*
X6566Y152335D01*
X8301Y151616D01*
X10127Y151177D01*
X12000Y151030D01*
X13872Y151177D01*
X15419Y151549D01*
X15673Y151095D01*
X12639Y148061D01*
X12198Y147487D01*
X11921Y146818D01*
X11826Y146100D01*
Y113762D01*
X3988D01*
X3270Y113667D01*
X2601Y113390D01*
X2431Y113259D01*
X1931Y113506D01*
Y155655D01*
X2431Y155830D01*
X3536Y154536D01*
D02*
G37*
G36*
X113502Y111702D02*
X114098Y111304D01*
X114800Y111165D01*
X115502Y111304D01*
X115930Y111590D01*
X116430Y111369D01*
Y105476D01*
Y101475D01*
X108597Y93642D01*
X108135Y93833D01*
Y106990D01*
X112873Y111727D01*
X112896Y111762D01*
X113393Y111811D01*
X113502Y111702D01*
D02*
G37*
G36*
X96496Y122826D02*
X99651D01*
Y116700D01*
Y96300D01*
X99845Y95324D01*
X100398Y94498D01*
X101225Y93945D01*
X102200Y93751D01*
X102378Y93787D01*
X102765Y93469D01*
Y85400D01*
X102904Y84698D01*
X103302Y84102D01*
X105465Y81940D01*
Y76430D01*
X105157Y76178D01*
X104455Y76038D01*
X103860Y75640D01*
X103462Y75045D01*
X103322Y74343D01*
X103462Y73640D01*
X103860Y73045D01*
X104269Y72771D01*
X104393Y72188D01*
X103902Y71698D01*
X103504Y71102D01*
X103365Y70400D01*
X103504Y69698D01*
X103902Y69102D01*
X104440Y68743D01*
X104538Y68533D01*
X104615Y68210D01*
X104602Y68198D01*
X104204Y67602D01*
X104065Y66900D01*
X104097Y66735D01*
X103687Y66235D01*
X89601D01*
X89567Y66261D01*
X89333Y66735D01*
X89334Y66736D01*
X89473Y67438D01*
Y70502D01*
X90105Y71133D01*
X90118Y71153D01*
X93298Y74332D01*
X93476Y74600D01*
X94100Y74476D01*
X94802Y74616D01*
X95398Y75013D01*
X95796Y75609D01*
X95935Y76311D01*
Y101665D01*
X96062Y101770D01*
X96400Y101965D01*
X97102Y102104D01*
X97698Y102502D01*
X98096Y103098D01*
X98235Y103800D01*
X98135Y104303D01*
Y118300D01*
X97996Y119002D01*
X97598Y119598D01*
X97002Y119996D01*
X96300Y120135D01*
X95935Y120435D01*
Y122521D01*
X96311Y122850D01*
X96496Y122826D01*
D02*
G37*
G36*
X125265Y37240D02*
Y33400D01*
X125404Y32698D01*
X125802Y32102D01*
X129000Y28905D01*
Y24750D01*
Y19250D01*
Y17492D01*
X127038Y15530D01*
X118568D01*
X118328Y15890D01*
X113153D01*
X112912Y15530D01*
X101087D01*
X100847Y15890D01*
X98260D01*
X95672D01*
X95432Y15530D01*
X91763D01*
X91571Y15992D01*
X109553Y33974D01*
X114776D01*
X116250Y32500D01*
X120750D01*
X123000Y34750D01*
Y38797D01*
X123500Y39005D01*
X125265Y37240D01*
D02*
G37*
G36*
X57302Y36702D02*
X57716Y36426D01*
X57564Y35926D01*
X23700D01*
X22917Y35823D01*
X22187Y35520D01*
X21560Y35040D01*
X21560Y35040D01*
X15997Y29476D01*
X15535Y29668D01*
Y34340D01*
X19460Y38265D01*
X52500D01*
X53202Y38404D01*
X53798Y38802D01*
X54077Y39220D01*
X54657Y39348D01*
X57302Y36702D01*
D02*
G37*
G36*
X74660Y15160D02*
X75287Y14680D01*
X76017Y14377D01*
X76800Y14274D01*
X86928D01*
X87120Y13812D01*
X83397Y10089D01*
X59762D01*
X54055Y15796D01*
X53324Y16357D01*
X52473Y16710D01*
X51559Y16830D01*
X30662D01*
X27093Y20399D01*
Y22537D01*
X27319Y22831D01*
X27500Y23268D01*
X28041D01*
X28118Y23084D01*
X28727Y22290D01*
X29521Y21681D01*
X29937Y21508D01*
Y25000D01*
Y28492D01*
X29521Y28319D01*
X28727Y27710D01*
X28118Y26916D01*
X28041Y26732D01*
X27500D01*
X27319Y27169D01*
X26630Y28067D01*
X25732Y28756D01*
X25032Y29046D01*
X24894Y29566D01*
X25144Y29874D01*
X59947D01*
X74660Y15160D01*
D02*
G37*
G36*
X129500Y8106D02*
Y5000D01*
X131500Y3000D01*
X132000D01*
Y7000D01*
X135000D01*
Y3000D01*
X135500D01*
X137500Y5000D01*
Y8111D01*
X137569Y8157D01*
X138069Y7890D01*
Y1931D01*
X124551D01*
X124356Y2431D01*
X124677Y2848D01*
X124947Y3501D01*
X125039Y4200D01*
Y6956D01*
X124947Y7656D01*
X124817Y7970D01*
X125151Y8470D01*
X128500D01*
X129000Y8536D01*
X129500Y8106D01*
D02*
G37*
%LPC*%
G36*
X120500Y31000D02*
X120000D01*
Y28500D01*
X122500D01*
Y29000D01*
X120500Y31000D01*
D02*
G37*
G36*
X117000D02*
X116500D01*
X114500Y29000D01*
Y28500D01*
X117000D01*
Y31000D01*
D02*
G37*
G36*
X122500Y25500D02*
X120000D01*
Y23000D01*
X120500D01*
X122500Y25000D01*
Y25500D01*
D02*
G37*
G36*
X117000D02*
X114500D01*
Y25000D01*
X116500Y23000D01*
X117000D01*
Y25500D01*
D02*
G37*
G36*
X99760Y20002D02*
Y18890D01*
X100695D01*
X100595Y19131D01*
X100166Y19690D01*
X99760Y20002D01*
D02*
G37*
G36*
X117240Y20002D02*
Y18890D01*
X118175D01*
X118075Y19131D01*
X117647Y19690D01*
X117240Y20002D01*
D02*
G37*
G36*
X114240D02*
X113834Y19690D01*
X113405Y19131D01*
X113305Y18890D01*
X114240D01*
Y20002D01*
D02*
G37*
G36*
X96760Y20002D02*
X96353Y19690D01*
X95925Y19131D01*
X95825Y18890D01*
X96760D01*
Y20002D01*
D02*
G37*
G36*
X32937Y28492D02*
Y26500D01*
X34929D01*
X34756Y26916D01*
X34147Y27710D01*
X33353Y28319D01*
X32937Y28492D01*
D02*
G37*
G36*
X34929Y23500D02*
X32937D01*
Y21508D01*
X33353Y21681D01*
X34147Y22290D01*
X34756Y23084D01*
X34929Y23500D01*
D02*
G37*
%LPD*%
D10*
X79800Y128500D02*
X82400Y131100D01*
X72100Y128500D02*
X79800D01*
X69200Y125600D02*
X72100Y128500D01*
X69200Y122400D02*
X72900Y126100D01*
X82400D01*
X137900Y61400D02*
Y125700D01*
X105300Y130300D02*
X133300D01*
X137900Y125700D01*
X46800Y60400D02*
X49200Y58000D01*
X88000D01*
X60500Y96000D02*
X65100Y100600D01*
X60500Y90200D02*
Y96000D01*
X54500Y84200D02*
X60500Y90200D01*
X87361Y127500D02*
Y133839D01*
X84800Y136400D02*
X87361Y133839D01*
X72700Y136400D02*
X84800D01*
X86161Y125245D02*
Y132439D01*
X83500Y135100D02*
X86161Y132439D01*
X72303Y135100D02*
X83500D01*
X69600Y137803D02*
X72303Y135100D01*
X70800Y138300D02*
X72700Y136400D01*
X45400Y87900D02*
Y123300D01*
Y87900D02*
X49100Y84200D01*
X47200Y118000D02*
X50600Y121400D01*
X53300D01*
X47200Y90400D02*
Y118000D01*
Y90400D02*
X49100Y88500D01*
X58400Y97700D02*
X63300Y102600D01*
X58400Y91600D02*
Y97700D01*
X55300Y88500D02*
X58400Y91600D01*
X53300Y124400D02*
X56300Y121400D01*
Y92600D02*
Y121400D01*
X52200Y88500D02*
X56300Y92600D01*
X53500Y131500D02*
X58300Y126700D01*
Y106300D02*
Y126700D01*
Y106300D02*
X60300Y104300D01*
X53500Y131500D02*
Y144800D01*
X55300Y131900D02*
Y144200D01*
Y131900D02*
X60400Y126800D01*
Y107300D02*
Y126800D01*
X57000Y132500D02*
Y138700D01*
Y132500D02*
X63300Y126200D01*
X70450Y131200D02*
X74300D01*
X65100Y125850D02*
X70450Y131200D01*
X65100Y100600D02*
Y125850D01*
X96300Y103800D02*
Y118300D01*
X66900Y105100D02*
X72300Y110500D01*
X66900Y99300D02*
Y105100D01*
X57200Y84100D02*
X60900D01*
X54400Y81300D02*
X57200Y84100D01*
X62300Y94700D02*
X66900Y99300D01*
X62300Y88500D02*
Y94700D01*
X63300Y102600D02*
Y126200D01*
X48000Y81300D02*
X54400D01*
X70800Y138300D02*
Y140183D01*
X65234Y145749D02*
X70800Y140183D01*
X60000Y145749D02*
X65234D01*
X66686Y142600D02*
X69600Y139686D01*
X60000Y142600D02*
X66686D01*
X69600Y137803D02*
Y139686D01*
X96300Y139300D02*
X105300Y130300D01*
X87576Y77476D02*
Y121224D01*
X85600Y75500D02*
X87576Y77476D01*
X85600Y68430D02*
Y75500D01*
X89700Y76300D02*
Y121706D01*
X87700Y74300D02*
X89700Y76300D01*
X86161Y125245D02*
X89700Y121706D01*
X87361Y127500D02*
X92000Y122861D01*
Y75630D02*
Y122861D01*
X88807Y72438D02*
X92000Y75630D01*
X87638Y71262D02*
X88807Y72431D01*
Y72438D01*
X94100Y76311D02*
Y123000D01*
X89100Y128000D02*
X94100Y123000D01*
X84500Y124300D02*
X87576Y121224D01*
X59900Y133421D02*
X59954Y133367D01*
X89100Y128000D02*
Y145000D01*
X84500Y124300D02*
Y131970D01*
X85300Y65100D02*
X87638Y67438D01*
Y71262D01*
X80500Y64900D02*
X82059D01*
X83770Y66600D02*
X85600Y68430D01*
X83759Y66600D02*
X83770D01*
X82059Y64900D02*
X83759Y66600D01*
X83049Y133421D02*
X84500Y131970D01*
X59900Y133421D02*
X83049D01*
X59267Y67033D02*
X81387D01*
X82900Y68546D01*
Y68700D01*
X87434Y62534D02*
X89300Y64400D01*
X61734Y62534D02*
X87434D01*
X59600Y60400D02*
X61734Y62534D01*
X83000Y81900D02*
X85000D01*
X89300Y64400D02*
X111000D01*
X66900Y139400D02*
X67100Y139200D01*
X64175Y139400D02*
X66900D01*
X72600Y150000D02*
Y156278D01*
X68400Y145800D02*
X72600Y150000D01*
X74100Y148400D02*
Y154300D01*
X71424Y145724D02*
X74100Y148400D01*
X58800Y140500D02*
X63075D01*
X64175Y139400D01*
X57000Y138700D02*
X58800Y140500D01*
X55300Y144200D02*
X59200Y148100D01*
X53500Y144800D02*
X58300Y149600D01*
X77150Y157350D02*
X79878D01*
X74100Y154300D02*
X77150Y157350D01*
X71378Y157500D02*
X72600Y156278D01*
X70000Y151532D02*
Y153400D01*
X66568Y148100D02*
X70000Y151532D01*
X59200Y148100D02*
X66568D01*
X52200Y84200D02*
X54500D01*
X58300Y149600D02*
X63544D01*
X65472Y151528D01*
X51800Y145700D02*
X57200Y151100D01*
X51800Y126500D02*
Y145700D01*
X60000Y151100D02*
X62500Y153600D01*
X57200Y151100D02*
X60000D01*
X50000Y145800D02*
X57800Y153600D01*
X50000Y127900D02*
Y145800D01*
X90600Y62700D02*
X114200D01*
X88300Y60400D02*
X90600Y62700D01*
X67900Y60400D02*
X88300D01*
X45400Y123300D02*
X50000Y127900D01*
X47600Y122300D02*
X51800Y126500D01*
X81700Y85700D02*
X85100D01*
X77028Y81028D02*
X81700Y85700D01*
X77028Y75818D02*
Y81028D01*
X72697Y81197D02*
X79800Y88300D01*
X81358Y80258D02*
X83000Y81900D01*
X81358Y75818D02*
Y80258D01*
X111000Y64400D02*
X114400Y67800D01*
X114200Y62700D02*
X118500Y67000D01*
X110700Y115200D02*
X112600D01*
X104600Y109100D02*
X110700Y115200D01*
X104600Y85400D02*
Y109100D01*
X112600Y115200D02*
X114800Y113000D01*
X107300Y72500D02*
Y82700D01*
X104600Y85400D02*
X107300Y82700D01*
X106300Y107750D02*
X111575Y113025D01*
X106300Y86200D02*
Y107750D01*
Y86200D02*
X108726Y83774D01*
X105200Y70400D02*
X107300Y72500D01*
X108726Y69726D02*
Y83774D01*
X105900Y66900D02*
X108726Y69726D01*
X91200Y61200D02*
X128800D01*
X88000Y58000D02*
X91200Y61200D01*
X92700Y59000D02*
X107000D01*
X90300Y56600D02*
X92700Y59000D01*
X18700Y40100D02*
X52500D01*
X114400Y67800D02*
Y72900D01*
X118500Y77000D01*
X117700Y41400D02*
X123700D01*
X102600Y56500D02*
X117700Y41400D01*
X94300Y56500D02*
X102600D01*
X127600Y42900D02*
Y48100D01*
X124200Y51500D02*
X127600Y48100D01*
X110800Y51500D02*
X124200D01*
X105700Y56600D02*
X110800Y51500D01*
X127600Y52900D02*
X133500Y47000D01*
X113100Y52900D02*
X127600D01*
X107000Y59000D02*
X113100Y52900D01*
X64000Y75854D02*
Y80805D01*
Y80900D01*
X46713Y80013D02*
X48000Y81300D01*
X46713Y75818D02*
Y80013D01*
X64000Y75854D02*
X64035Y75818D01*
X55374Y70926D02*
X59267Y67033D01*
X55374Y70926D02*
Y75818D01*
X57700Y64900D02*
X76100D01*
X51043Y71557D02*
X57700Y64900D01*
X51043Y71557D02*
Y75818D01*
X72697D02*
Y81197D01*
X13700Y35100D02*
X18700Y40100D01*
X13700Y23200D02*
Y35100D01*
X6500Y16000D02*
X13700Y23200D01*
X6500Y26000D02*
X11500Y31000D01*
Y36400D01*
X17600Y42500D01*
X17700Y51900D02*
X74600D01*
X12200Y64700D02*
X14400Y62500D01*
Y55200D02*
X17700Y51900D01*
X14400Y55200D02*
Y62500D01*
X6500Y66000D02*
X12200Y60300D01*
Y54100D02*
X16300Y50000D01*
X12200Y54100D02*
Y60300D01*
X37300Y57800D02*
Y116800D01*
X34700Y55200D02*
X37300Y57800D01*
X74600Y51900D02*
X77200Y49300D01*
X73333Y50000D02*
X77233Y46100D01*
X16300Y50000D02*
X73333D01*
X71467Y48200D02*
X73567Y46100D01*
X14300Y48200D02*
X71467D01*
X6500Y56000D02*
X14300Y48200D01*
X77200Y49300D02*
X80800D01*
X6500Y46000D02*
X69800D01*
X69900Y46100D01*
X14551Y44051D02*
X55500D01*
X59336Y40215D01*
X84624D01*
X17600Y42500D02*
X54100D01*
X58600Y38000D01*
X37300Y116800D02*
X37400Y116900D01*
X85502Y38000D02*
X87717Y40215D01*
X58600Y38000D02*
X85502D01*
X6500Y36000D02*
X14551Y44051D01*
X29900Y88200D02*
Y110400D01*
X29700Y110600D02*
X29900Y110400D01*
X34764Y117264D02*
X37400Y119900D01*
X34764Y60563D02*
Y117264D01*
X133500Y57000D02*
X137900Y61400D01*
X127100Y33400D02*
Y38000D01*
Y33400D02*
X133500Y27000D01*
X123700Y41400D02*
X127100Y38000D01*
X127600Y42900D02*
X133500Y37000D01*
X123500Y90000D02*
Y94400D01*
Y90000D02*
X133500Y80000D01*
Y77000D02*
Y80000D01*
X12200Y64700D02*
Y70300D01*
X6500Y76000D02*
X12200Y70300D01*
X32000Y117900D02*
X34000Y119900D01*
X32000Y58000D02*
Y117900D01*
D77*
X102200Y116700D02*
Y125500D01*
Y96300D02*
Y116700D01*
X102100Y125600D02*
X102200Y125500D01*
X71400Y142700D02*
X74135D01*
X61200Y136400D02*
X67400D01*
X74135Y142700D02*
X80335Y148900D01*
X59900Y137700D02*
X61200Y136400D01*
X68366Y82866D02*
X74800Y89300D01*
Y100400D01*
X68366Y75818D02*
Y82866D01*
D78*
X101100Y128200D02*
X121088D01*
X98500Y130800D02*
X101100Y128200D01*
X121088D02*
X121095D01*
X130437Y118858D01*
X118724Y100524D02*
Y105476D01*
X109600Y91400D02*
X118724Y100524D01*
X59705Y75818D02*
Y80805D01*
X102200Y116700D02*
X102700Y117200D01*
X114600D01*
X118724Y113076D01*
Y105476D02*
Y113076D01*
X88100Y22600D02*
X105900Y40400D01*
Y45800D01*
X18600Y96000D02*
Y143900D01*
Y96000D02*
X22900Y91700D01*
X18600Y143900D02*
X28500Y153800D01*
D79*
X88600Y17300D02*
X108300Y37000D01*
X23700Y32900D02*
X61200D01*
X17500Y7800D02*
X18400Y6900D01*
X17500Y7800D02*
Y26700D01*
X23700Y32900D01*
X61200D02*
X76800Y17300D01*
X88600D01*
X108300Y37000D02*
X118500D01*
D80*
X68574Y35926D02*
X75449Y29051D01*
X56974Y35926D02*
X68574D01*
X73200Y139400D02*
X75600D01*
X82800Y146600D02*
Y154800D01*
X75600Y139400D02*
X82800Y146600D01*
X40631Y37331D02*
X55569D01*
X40500Y37200D02*
X40631Y37331D01*
X55569D02*
X56974Y35926D01*
D81*
X121088Y128200D02*
X130437Y118851D01*
D82*
X96496Y125600D02*
X102100D01*
X32500Y164000D02*
X92600D01*
X102100Y125600D02*
X115400D01*
X92600Y129496D02*
X96496Y125600D01*
X92600Y129496D02*
Y164000D01*
X98700D01*
X14600Y146100D02*
X32500Y164000D01*
X98700D02*
X105605Y170905D01*
X115400Y125600D02*
X118500Y122500D01*
X3988Y110988D02*
X14600D01*
Y146100D01*
Y83600D02*
Y110988D01*
D86*
X122335Y5579D02*
D03*
X91665D02*
D03*
D87*
X115740Y17390D02*
D03*
X98260D02*
D03*
D88*
X133500Y7000D02*
D03*
Y17000D02*
D03*
Y27000D02*
D03*
Y37000D02*
D03*
Y47000D02*
D03*
Y57000D02*
D03*
Y67000D02*
D03*
Y77000D02*
D03*
X118500D02*
D03*
Y67000D02*
D03*
Y57000D02*
D03*
Y47000D02*
D03*
Y37000D02*
D03*
Y27000D02*
D03*
X6500Y6000D02*
D03*
Y16000D02*
D03*
Y26000D02*
D03*
Y36000D02*
D03*
Y46000D02*
D03*
Y56000D02*
D03*
Y66000D02*
D03*
Y76000D02*
D03*
D89*
X31437Y25000D02*
D03*
X23563D02*
D03*
D90*
X109370Y141000D02*
D03*
X30630D02*
D03*
D91*
X12000Y163000D02*
D03*
X128000D02*
D03*
D92*
X125000Y70900D02*
D03*
X86000Y54500D02*
D03*
X81000D02*
D03*
X76000D02*
D03*
X26000Y109500D02*
D03*
X6000Y129500D02*
D03*
X81000Y54500D02*
D03*
X11000Y149500D02*
D03*
X47300Y55100D02*
D03*
X48400Y64700D02*
D03*
X109200Y42100D02*
D03*
X123100Y112400D02*
D03*
X133500Y115200D02*
D03*
X133300Y97100D02*
D03*
X131000Y104800D02*
D03*
X128000Y109800D02*
D03*
X68300Y111800D02*
D03*
X119200Y117700D02*
D03*
X60900Y84100D02*
D03*
X74300Y131200D02*
D03*
X60400Y107300D02*
D03*
X60300Y104300D02*
D03*
X18400Y33500D02*
D03*
X59705Y80805D02*
D03*
X72100Y69900D02*
D03*
X67900D02*
D03*
X62600D02*
D03*
X115400Y109800D02*
D03*
X102200Y96300D02*
D03*
X96400Y103800D02*
D03*
X96300Y118300D02*
D03*
X72300Y110500D02*
D03*
X62300Y88500D02*
D03*
X98500Y101600D02*
D03*
X96200Y121300D02*
D03*
X49000Y167222D02*
D03*
X40500Y164100D02*
D03*
X79000Y121200D02*
D03*
X82900Y68700D02*
D03*
X85000Y81900D02*
D03*
X80500Y64900D02*
D03*
X85300Y65100D02*
D03*
X67100Y139200D02*
D03*
X73000Y139400D02*
D03*
X71300Y142700D02*
D03*
X67400Y136400D02*
D03*
X60000Y145749D02*
D03*
Y142600D02*
D03*
X82400Y131100D02*
D03*
X89100Y145000D02*
D03*
X94100Y76311D02*
D03*
X68400Y145800D02*
D03*
X47700Y143900D02*
D03*
X70000Y153400D02*
D03*
X57800Y153600D02*
D03*
X53300Y121400D02*
D03*
Y124400D02*
D03*
X59900Y133421D02*
D03*
X87700Y74300D02*
D03*
X85100Y85700D02*
D03*
X105900Y66900D02*
D03*
X105200Y70400D02*
D03*
X114800Y113000D02*
D03*
X111575Y113025D02*
D03*
X90300Y56600D02*
D03*
X46800Y60400D02*
D03*
X67900D02*
D03*
X59600D02*
D03*
X105700Y56600D02*
D03*
X94200Y56700D02*
D03*
X105900Y45800D02*
D03*
X64000Y80805D02*
D03*
X55300Y88500D02*
D03*
X52200Y84200D02*
D03*
X76100Y64900D02*
D03*
X46800Y68300D02*
D03*
X52200Y88500D02*
D03*
X49100D02*
D03*
Y84200D02*
D03*
X79800Y88300D02*
D03*
X73724Y116024D02*
D03*
X47600Y122300D02*
D03*
X40000Y108800D02*
D03*
X44602Y130763D02*
D03*
X59900Y137700D02*
D03*
X74800Y100400D02*
D03*
X68200Y43100D02*
D03*
X64700D02*
D03*
X60800D02*
D03*
X132600Y84900D02*
D03*
X113600Y80400D02*
D03*
X112900Y78100D02*
D03*
X111200Y80400D02*
D03*
X109600Y91400D02*
D03*
X20000Y58300D02*
D03*
X40500Y37200D02*
D03*
X82800Y154800D02*
D03*
X124900Y76900D02*
D03*
X122000Y82700D02*
D03*
X84900Y167100D02*
D03*
X103100Y159200D02*
D03*
X98500Y130800D02*
D03*
X100400Y150500D02*
D03*
X97800Y148100D02*
D03*
X4400Y86500D02*
D03*
X8000Y84400D02*
D03*
X8100Y88700D02*
D03*
X90900Y40300D02*
D03*
X5200Y146800D02*
D03*
Y133700D02*
D03*
Y140250D02*
D03*
X30500Y55100D02*
D03*
X34700Y55200D02*
D03*
X38500Y33020D02*
D03*
X100300Y125543D02*
D03*
X14600Y83600D02*
D03*
X4000Y105700D02*
D03*
X113100Y22200D02*
D03*
Y24800D02*
D03*
X43000Y18900D02*
D03*
Y22300D02*
D03*
Y25700D02*
D03*
X39100Y18900D02*
D03*
Y22300D02*
D03*
X63700Y18800D02*
D03*
X59600D02*
D03*
X55500D02*
D03*
X52500Y40100D02*
D03*
X88100Y22600D02*
D03*
X75449Y29051D02*
D03*
X39100Y4100D02*
D03*
Y7200D02*
D03*
X36700Y4100D02*
D03*
Y7200D02*
D03*
X104600Y33600D02*
D03*
Y27676D02*
D03*
X29449Y37200D02*
D03*
X36151D02*
D03*
X77500Y6400D02*
D03*
X74700D02*
D03*
X62500Y153600D02*
D03*
X22900Y85600D02*
D03*
X26051Y79851D02*
D03*
X24100Y107600D02*
D03*
X40000Y106100D02*
D03*
X133000Y90500D02*
D03*
X115575Y105476D02*
D03*
X118724D02*
D03*
X29700Y110600D02*
D03*
X29900Y88200D02*
D03*
X108500Y88000D02*
D03*
X105157Y74343D02*
D03*
X3988Y110988D02*
D03*
X37400Y119900D02*
D03*
X105605Y170905D02*
D03*
X96600Y134900D02*
D03*
X28500Y153800D02*
D03*
X22900Y91700D02*
D03*
X118500Y122500D02*
D03*
X130437Y118851D02*
D03*
X134086Y122500D02*
D03*
X130437Y150149D02*
D03*
X136500Y150200D02*
D03*
X96300Y139300D02*
D03*
X128900Y61200D02*
D03*
X123500Y94400D02*
D03*
X76800Y151400D02*
D03*
X67000Y167899D02*
D03*
X75500Y167848D02*
D03*
X86500Y158899D02*
D03*
X96300Y142100D02*
D03*
X115575Y91325D02*
D03*
X80800Y49300D02*
D03*
X65472Y151528D02*
D03*
X73567Y46100D02*
D03*
X69900D02*
D03*
X77233D02*
D03*
X87717Y40215D02*
D03*
X84624D02*
D03*
X34764Y60563D02*
D03*
X32000Y58000D02*
D03*
X34000Y119900D02*
D03*
X37400Y116900D02*
D03*
X69200Y125600D02*
D03*
Y122400D02*
D03*
X82400Y126100D02*
D03*
X71424Y145724D02*
D03*
X71378Y157500D02*
D03*
X79878Y157350D02*
D03*
X80335Y148900D02*
D03*
D93*
X84508Y117157D02*
D03*
X53012D02*
D03*
D94*
X99468Y77787D02*
D03*
D95*
X41988Y115582D02*
D03*
D96*
X81358Y75818D02*
D03*
X77028D02*
D03*
X72697D02*
D03*
X68366D02*
D03*
X64035D02*
D03*
X59705D02*
D03*
X55374D02*
D03*
X51043D02*
D03*
X46713D02*
D03*
D97*
X41988Y77787D02*
D03*
D98*
X58300Y6559D02*
X84859D01*
X23563Y18937D02*
Y25000D01*
Y18937D02*
X29200Y13300D01*
X51559D02*
X58300Y6559D01*
X29200Y13300D02*
X51559D01*
X90300Y12000D02*
X128500D01*
X84859Y6559D02*
X90300Y12000D01*
X128500D02*
X133500Y17000D01*
D99*
X21750Y5700D02*
D03*
M02*
