G04*
G04 #@! TF.GenerationSoftware,Altium Limited,Altium Designer,19.1.8 (144)*
G04*
G04 Layer_Color=8388736*
%FSLAX25Y25*%
%MOIN*%
G70*
G01*
G75*
%ADD45R,0.02075X0.08374*%
%ADD46R,0.07587X0.07980*%
%ADD47R,0.04240X0.04043*%
%ADD48R,0.03500X0.04240*%
%ADD49R,0.02075X0.04831*%
%ADD50R,0.02468X0.04831*%
%ADD51R,0.04240X0.03500*%
%ADD52R,0.05815X0.04437*%
%ADD53R,0.03500X0.04437*%
%ADD54R,0.04437X0.06012*%
%ADD55R,0.04437X0.03650*%
%ADD56O,0.01602X0.07587*%
%ADD57O,0.07587X0.01602*%
%ADD58R,0.04437X0.03500*%
%ADD59R,0.04437X0.05815*%
%ADD60R,0.02862X0.06012*%
G04:AMPARAMS|DCode=61|XSize=18.39mil|YSize=18.39mil|CornerRadius=9.2mil|HoleSize=0mil|Usage=FLASHONLY|Rotation=270.000|XOffset=0mil|YOffset=0mil|HoleType=Round|Shape=RoundedRectangle|*
%AMROUNDEDRECTD61*
21,1,0.01839,0.00000,0,0,270.0*
21,1,0.00000,0.01839,0,0,270.0*
1,1,0.01839,0.00000,0.00000*
1,1,0.01839,0.00000,0.00000*
1,1,0.01839,0.00000,0.00000*
1,1,0.01839,0.00000,0.00000*
%
%ADD61ROUNDEDRECTD61*%
%ADD62R,0.06799X0.06012*%
%ADD63R,0.06799X0.05224*%
%ADD64R,0.03650X0.08374*%
%ADD65R,0.04043X0.04240*%
%ADD66R,0.05028X0.06012*%
%ADD67R,0.04831X0.02075*%
%ADD68R,0.04831X0.02468*%
%ADD69R,0.05224X0.04240*%
%ADD70O,0.02862X0.05618*%
%ADD71O,0.03847X0.04634*%
%ADD72P,0.07036X8X22.5*%
%ADD73C,0.06100*%
%ADD74C,0.18000*%
%ADD75C,0.21366*%
%ADD76C,0.04437*%
D45*
X107000Y16110D02*
D03*
X109559D02*
D03*
X112118D02*
D03*
X101882D02*
D03*
X104441D02*
D03*
D46*
X102472Y5579D02*
D03*
X111528D02*
D03*
X120780D02*
D03*
X93221D02*
D03*
D47*
X87949Y25500D02*
D03*
X94051D02*
D03*
D48*
X102500Y101551D02*
D03*
Y95449D02*
D03*
X100500Y27449D02*
D03*
Y33551D02*
D03*
X55300Y131598D02*
D03*
Y137700D02*
D03*
X136500Y146551D02*
D03*
Y140449D02*
D03*
X86500Y154602D02*
D03*
Y148500D02*
D03*
X75500Y163551D02*
D03*
Y157449D02*
D03*
X67000Y163602D02*
D03*
Y157500D02*
D03*
X32500Y37949D02*
D03*
Y44051D02*
D03*
X26000Y37949D02*
D03*
Y44051D02*
D03*
X31800Y83702D02*
D03*
Y77600D02*
D03*
X40000Y101551D02*
D03*
Y95449D02*
D03*
D49*
X112425Y102043D02*
D03*
Y94957D02*
D03*
X115575D02*
D03*
Y102043D02*
D03*
X108425Y125543D02*
D03*
Y118457D02*
D03*
X111575D02*
D03*
Y125543D02*
D03*
D50*
X109276Y94957D02*
D03*
X118724D02*
D03*
Y102043D02*
D03*
X109276D02*
D03*
X105276Y118457D02*
D03*
X114724D02*
D03*
Y125543D02*
D03*
X105276D02*
D03*
D51*
X129551Y90500D02*
D03*
X123449D02*
D03*
X118051Y84500D02*
D03*
X111949D02*
D03*
X75449Y25500D02*
D03*
X81551D02*
D03*
X68449Y105000D02*
D03*
X74551D02*
D03*
X92102Y142000D02*
D03*
X86000D02*
D03*
X26051Y55000D02*
D03*
X19949D02*
D03*
Y77000D02*
D03*
X26051D02*
D03*
D52*
X69000Y17563D02*
D03*
Y25437D02*
D03*
X48800Y138637D02*
D03*
Y130763D02*
D03*
X43500Y13437D02*
D03*
Y5563D02*
D03*
D53*
X50000Y6350D02*
D03*
Y12650D02*
D03*
X92000Y154799D02*
D03*
Y148500D02*
D03*
X69000Y3850D02*
D03*
Y10150D02*
D03*
X50000Y18850D02*
D03*
Y25150D02*
D03*
X22900Y95400D02*
D03*
Y101699D02*
D03*
X4000Y95350D02*
D03*
Y101650D02*
D03*
D54*
X75260Y10366D02*
D03*
X82740D02*
D03*
X79000Y19028D02*
D03*
X9760Y94366D02*
D03*
X17240D02*
D03*
X13500Y103028D02*
D03*
D55*
X74579Y4000D02*
D03*
X84421D02*
D03*
D56*
X46378Y94421D02*
D03*
X48346D02*
D03*
X50315D02*
D03*
X52284D02*
D03*
X54252D02*
D03*
X56221D02*
D03*
X58189D02*
D03*
X60158D02*
D03*
X62126D02*
D03*
X64095D02*
D03*
X66063D02*
D03*
X68032D02*
D03*
X70000D02*
D03*
X71969D02*
D03*
X73937D02*
D03*
X75906D02*
D03*
X77874D02*
D03*
X79843D02*
D03*
X81811D02*
D03*
X83780D02*
D03*
X85748D02*
D03*
X87717D02*
D03*
X89685D02*
D03*
X91654D02*
D03*
X93622D02*
D03*
Y34579D02*
D03*
X91654D02*
D03*
X89685D02*
D03*
X87717D02*
D03*
X85748D02*
D03*
X83780D02*
D03*
X81811D02*
D03*
X79843D02*
D03*
X77874D02*
D03*
X75906D02*
D03*
X73937D02*
D03*
X71969D02*
D03*
X70000D02*
D03*
X68032D02*
D03*
X66063D02*
D03*
X64095D02*
D03*
X62126D02*
D03*
X60158D02*
D03*
X58189D02*
D03*
X56221D02*
D03*
X54252D02*
D03*
X52284D02*
D03*
X50315D02*
D03*
X48346D02*
D03*
X46378D02*
D03*
D57*
X99921Y88122D02*
D03*
Y86154D02*
D03*
Y84185D02*
D03*
Y82217D02*
D03*
Y80248D02*
D03*
Y78280D02*
D03*
Y76311D02*
D03*
Y74343D02*
D03*
Y72374D02*
D03*
Y70406D02*
D03*
Y68437D02*
D03*
Y66469D02*
D03*
Y64500D02*
D03*
Y62532D02*
D03*
Y60563D02*
D03*
Y58595D02*
D03*
Y56626D02*
D03*
Y54658D02*
D03*
Y52689D02*
D03*
Y50721D02*
D03*
Y48752D02*
D03*
Y46784D02*
D03*
Y44815D02*
D03*
Y42847D02*
D03*
Y40878D02*
D03*
X40079D02*
D03*
Y42847D02*
D03*
Y44815D02*
D03*
Y46784D02*
D03*
Y48752D02*
D03*
Y50721D02*
D03*
Y52689D02*
D03*
Y54658D02*
D03*
Y56626D02*
D03*
Y58595D02*
D03*
Y60563D02*
D03*
Y62532D02*
D03*
Y64500D02*
D03*
Y66469D02*
D03*
Y68437D02*
D03*
Y70406D02*
D03*
Y72374D02*
D03*
Y74343D02*
D03*
Y76311D02*
D03*
Y78280D02*
D03*
Y80248D02*
D03*
Y82217D02*
D03*
Y84185D02*
D03*
Y86154D02*
D03*
Y88122D02*
D03*
D58*
X86000Y136500D02*
D03*
X92299D02*
D03*
X86000Y131000D02*
D03*
X92299D02*
D03*
X86000Y125600D02*
D03*
X92299D02*
D03*
D59*
X130437Y122500D02*
D03*
X122563D02*
D03*
X130437Y146500D02*
D03*
X122563D02*
D03*
D60*
X123260Y139618D02*
D03*
X130740D02*
D03*
Y129382D02*
D03*
X127000D02*
D03*
X123260D02*
D03*
X63240Y13882D02*
D03*
X55760D02*
D03*
Y24118D02*
D03*
X59500D02*
D03*
X63240D02*
D03*
D61*
X77283Y148874D02*
D03*
Y145724D02*
D03*
Y142575D02*
D03*
Y139425D02*
D03*
Y136276D02*
D03*
Y133126D02*
D03*
X74331Y148874D02*
D03*
Y145724D02*
D03*
Y142575D02*
D03*
Y139425D02*
D03*
Y136276D02*
D03*
Y133126D02*
D03*
X71378Y148874D02*
D03*
X65472D02*
D03*
X62520D02*
D03*
X68425D02*
D03*
X62520Y145724D02*
D03*
Y142575D02*
D03*
Y139425D02*
D03*
Y136276D02*
D03*
X71378Y133126D02*
D03*
X68425D02*
D03*
X65472D02*
D03*
X62520D02*
D03*
X65472Y145724D02*
D03*
Y142575D02*
D03*
Y139425D02*
D03*
Y136276D02*
D03*
D62*
X49000Y152000D02*
D03*
Y163024D02*
D03*
X31500Y93988D02*
D03*
Y105012D02*
D03*
D63*
X111500Y159095D02*
D03*
Y170905D02*
D03*
X28500Y159095D02*
D03*
Y170905D02*
D03*
D64*
X63937Y5000D02*
D03*
X55063D02*
D03*
D65*
X19500Y37949D02*
D03*
Y44051D02*
D03*
D66*
X20252Y61768D02*
D03*
X26551Y70429D02*
D03*
X20252D02*
D03*
X26551Y61768D02*
D03*
D67*
X29793Y120075D02*
D03*
X22707D02*
D03*
Y116925D02*
D03*
X29793D02*
D03*
D68*
X22707Y123224D02*
D03*
Y113776D02*
D03*
X29793D02*
D03*
Y123224D02*
D03*
D69*
X3988Y115449D02*
D03*
Y121551D02*
D03*
X15012Y115449D02*
D03*
Y121551D02*
D03*
D70*
X122335Y5579D02*
D03*
X91665D02*
D03*
D71*
X115740Y17390D02*
D03*
X98260D02*
D03*
D72*
X133500Y7000D02*
D03*
Y17000D02*
D03*
Y27000D02*
D03*
Y37000D02*
D03*
Y47000D02*
D03*
Y57000D02*
D03*
Y67000D02*
D03*
Y77000D02*
D03*
X118500D02*
D03*
Y67000D02*
D03*
Y57000D02*
D03*
Y47000D02*
D03*
Y37000D02*
D03*
Y27000D02*
D03*
X6500Y6000D02*
D03*
Y16000D02*
D03*
Y26000D02*
D03*
Y36000D02*
D03*
Y46000D02*
D03*
Y56000D02*
D03*
Y66000D02*
D03*
Y76000D02*
D03*
D73*
X31437Y25000D02*
D03*
X23563D02*
D03*
D74*
X109370Y141000D02*
D03*
X30630D02*
D03*
D75*
X12000Y163000D02*
D03*
X128000D02*
D03*
D76*
X84508Y117157D02*
D03*
X53012D02*
D03*
M02*
